SplineFontDB: 3.2
FontName: linja_laso
FullName: linja laso
FamilyName: linja laso
Weight: Regular
Copyright: Copyright (c) 2025, mute ante
Version: 000.9.1
ItalicAngle: 0
UnderlinePosition: -62
UnderlineWidth: 30
Ascent: 576
Descent: 64
InvalidEm: 0
sfntRevision: 0x0000e666
LayerCount: 2
Layer: 0 0 "Back" 1
Layer: 1 0 "Fore" 0
XUID: [1021 412 1039766594 11549582]
StyleMap: 0x0040
FSType: 0
OS2Version: 4
OS2_WeightWidthSlopeOnly: 0
OS2_UseTypoMetrics: 1
CreationTime: 1759787008
ModificationTime: 1764521595
PfmFamily: 17
TTFWeight: 400
TTFWidth: 5
LineGap: 59
VLineGap: 0
Panose: 2 0 5 3 0 0 0 0 0 0
OS2TypoAscent: 576
OS2TypoAOffset: 0
OS2TypoDescent: -64
OS2TypoDOffset: 0
OS2TypoLinegap: 59
OS2WinAscent: 552
OS2WinAOffset: 0
OS2WinDescent: 39
OS2WinDOffset: 0
HheadAscent: 552
HheadAOffset: 0
HheadDescent: -39
HheadDOffset: 0
OS2SubXSize: 416
OS2SubYSize: 448
OS2SubXOff: 0
OS2SubYOff: 89
OS2SupXSize: 416
OS2SupYSize: 448
OS2SupXOff: 0
OS2SupYOff: 307
OS2StrikeYSize: 31
OS2StrikeYPos: 165
OS2Vendor: 'PfEd'
OS2CodePages: 00000001.00000000
OS2UnicodeRanges: 00000001.02000000.04000000.00000000
Lookup: 4 0 1 "LIGA basics" { "LIGA basics"  } ['liga' ('DFLT' <'dflt' > 'latn' <'dflt' > ) ]
Lookup: 6 0 0 "CALT cartouches" { "CALT cartouches"  } ['calt' ('DFLT' <'dflt' > 'latn' <'dflt' > ) ]
Lookup: 2 0 0 "CCMP cartouches" { "CCMP cartouches"  } ['stch' ('DFLT' <'dflt' > 'latn' <'dflt' > ) ]
MarkAttachClasses: 1
DEI: 91125
ChainSub2: class "CALT cartouches" 3 3 3 1

StartChar: .notdef
Encoding: 214 -1 0
GlifName: _notdef
Width: 640
GlyphClass: 1
Flags: W
HStem: 0 512<63.999 575.999>
VStem: 63.999 512<0 512>
LayerCount: 2
Fore
SplineSet
63.9990234375 0 m 1
 63.9990234375 512 l 1
 575.999023438 512 l 1
 575.999023438 0 l 1
 63.9990234375 0 l 1
EndSplineSet
Validated: 1
EndChar

StartChar: t.a
Encoding: 68 989440 2
GlifName: t.a
Width: 640
GlyphClass: 1
Flags: W
HStem: -8.00391 64.0039<257.235 335.467 448.644 488.026> 184.008 64.0049<257.235 334.81>
VStem: 168.031 64.0039<81.2185 158.794> 264.005 64<303.995 511.995> 360.019 64.0039<80.4923 158.073>
LayerCount: 2
Fore
SplineSet
296.014648438 248.012695312 m 0
 366.71875 248.012695312 424.022460938 190.708984375 424.022460938 120.00390625 c 0
 424.022460938 84.6640625 452.686523438 56 488.026367188 56 c 1
 488.026367188 -8.00390625 l 1
 449.784179688 -8.00390625 415.484375 8.7587890625 392.020507812 35.3427734375 c 1
 368.557617188 8.6865234375 334.2578125 -8.00390625 296.014648438 -8.00390625 c 0
 225.333984375 -8.00390625 168.03125 49.32421875 168.03125 120.00390625 c 0
 168.03125 190.708984375 225.333984375 248.012695312 296.014648438 248.012695312 c 0
296.014648438 184.0078125 m 0
 260.674804688 184.0078125 232.03515625 155.344726562 232.03515625 120.00390625 c 0
 232.03515625 84.6640625 260.674804688 56 296.014648438 56 c 0
 331.37890625 56 360.018554688 84.6640625 360.018554688 120.00390625 c 0
 360.018554688 155.344726562 331.37890625 184.0078125 296.014648438 184.0078125 c 0
264.004882812 303.995117188 m 1
 264.004882812 511.995117188 l 1
 328.004882812 511.995117188 l 1
 328.004882812 303.995117188 l 1
 264.004882812 303.995117188 l 1
EndSplineSet
Validated: 1
MultipleSubs2: "CCMP cartouches" t.a cart.body
Ligature2: "LIGA basics" a
EndChar

StartChar: t.akesi
Encoding: 69 989441 3
GlifName: t.akesi
Width: 640
GlyphClass: 1
Flags: W
HStem: -8 63.998<281.95 358.076> 119.998 64<128.011 192.011 256.011 384.011 448.013 512.011> 247.996 63.999<128.011 192.011 256.011 384.011 448.011 512.011> 375.996 63.998<281.222 358.799> 439.99 80<185.773 246.264 393.765 454.256>
VStem: 176.019 80<449.744 510.236> 192.011 64<81.935 119.998 183.998 247.996 311.995 350.058> 384.011 80<449.744 510.236> 384.011 64<81.935 119.998 183.998 247.996 311.995 350.058>
LayerCount: 2
Fore
SplineSet
216.018554688 519.990234375 m 0xec
 238.109375 519.990234375 256.018554688 502.081054688 256.018554688 479.990234375 c 0
 256.018554688 457.8984375 238.109375 439.990234375 216.018554688 439.990234375 c 0
 193.926757812 439.990234375 176.018554688 457.8984375 176.018554688 479.990234375 c 0
 176.018554688 502.081054688 193.926757812 519.990234375 216.018554688 519.990234375 c 0xec
424.010742188 519.990234375 m 0
 446.1015625 519.990234375 464.010742188 502.081054688 464.010742188 479.990234375 c 0
 464.010742188 457.8984375 446.1015625 439.990234375 424.010742188 439.990234375 c 0
 401.918945312 439.990234375 384.010742188 457.8984375 384.010742188 479.990234375 c 0xe9
 384.010742188 502.081054688 401.918945312 519.990234375 424.010742188 519.990234375 c 0
320.010742188 439.994140625 m 0xf280
 390.702148438 439.994140625 448.009765625 382.6875 448.010742188 311.995117188 c 1
 512.010742188 311.995117188 l 1
 512.010742188 247.99609375 l 1
 448.010742188 247.99609375 l 1
 448.010742188 183.998046875 l 1
 512.010742188 183.998046875 l 1
 512.010742188 119.998046875 l 1
 448.012695312 119.998046875 l 1
 448.01171875 49.3056640625 390.704101562 -8 320.012695312 -8 c 0
 249.3203125 -8 192.013671875 49.3056640625 192.01171875 119.998046875 c 1
 128.010742188 119.998046875 l 1
 128.010742188 183.998046875 l 1
 192.010742188 183.998046875 l 1
 192.010742188 247.99609375 l 1
 128.010742188 247.99609375 l 1
 128.010742188 311.995117188 l 1
 192.010742188 311.995117188 l 1
 192.01171875 382.6875 249.318359375 439.994140625 320.010742188 439.994140625 c 0xf280
320.010742188 375.99609375 m 0
 284.663085938 375.99609375 256.008789062 347.342773438 256.0078125 311.995117188 c 1
 384.01171875 311.995117188 l 1
 384.01171875 347.342773438 355.357421875 375.99609375 320.010742188 375.99609375 c 0
256.010742188 247.99609375 m 1
 256.010742188 183.998046875 l 1
 384.010742188 183.998046875 l 1
 384.010742188 247.99609375 l 1
 256.010742188 247.99609375 l 1
256.010742188 119.998046875 m 1
 256.01171875 84.6513671875 284.666015625 55.998046875 320.012695312 55.998046875 c 0
 355.359375 55.9970703125 384.013671875 84.6513671875 384.014648438 119.998046875 c 1
 256.010742188 119.998046875 l 1
EndSplineSet
Validated: 33
MultipleSubs2: "CCMP cartouches" t.akesi cart.body
Ligature2: "LIGA basics" a k e s i
EndChar

StartChar: t.ala
Encoding: 70 989442 4
GlifName: t.ala
Width: 640
GlyphClass: 1
Flags: W
LayerCount: 2
Fore
SplineSet
138.973632812 482.274414062 m 1
 320.00390625 301.244140625 l 1
 501.009765625 482.274414062 l 1
 546.267578125 437.017578125 l 1
 365.237304688 256.010742188 l 1
 546.267578125 74.98046875 l 1
 501.009765625 29.72265625 l 1
 320.00390625 210.752929688 l 1
 138.973632812 29.72265625 l 1
 93.7158203125 74.98046875 l 1
 274.74609375 256.010742188 l 1
 93.7158203125 437.017578125 l 1
 138.973632812 482.274414062 l 1
EndSplineSet
Validated: 1
MultipleSubs2: "CCMP cartouches" t.ala cart.body
Ligature2: "LIGA basics" a l a
EndChar

StartChar: t.alasa
Encoding: 71 989443 5
GlifName: t.alasa
Width: 640
GlyphClass: 1
Flags: W
HStem: 0.0488281 21G<128.004 194.278> 225.641 60.7617<32.0039 128.004 192.027 306.538> 228.809 54.4434<243.357 318.057 381.172 512.016>
VStem: 128.004 64.0234<75.0469 225.641 286.402 437.061> 318.057 64.6191<182.947 228.809 283.252 329.126>
LayerCount: 2
Fore
SplineSet
128.00390625 512.05859375 m 1xd8
 260.568359375 512.0546875 369.5859375 411.291015625 382.677734375 282.1796875 c 1
 512.015625 280.03515625 l 1
 408.001953125 368.05859375 l 1
 456.017578125 416.048828125 l 1
 616.00390625 256.0390625 l 1
 456.017578125 96.052734375 l 1
 408.001953125 144.044921875 l 1
 512.015625 232.04296875 l 1
 382.67578125 229.88671875 l 1
 369.572265625 100.793945312 260.552734375 0.048828125 128.00390625 0.048828125 c 1
 128.00390625 225.640625 l 1
 32.00390625 224.0390625 l 1
 32.00390625 287.994140625 l 1
 128.00390625 286.40234375 l 1
 128.00390625 512.05859375 l 1xd8
192.02734375 437.060546875 m 1
 192.02734375 285.341796875 l 1
 318.0625 283.251953125 l 1xb8
 308.07421875 353.221679688 260.051757812 412.995117188 192.02734375 437.060546875 c 1
318.056640625 228.80859375 m 1
 192.02734375 226.70703125 l 1
 192.02734375 75.046875 l 1
 260.036132812 99.107421875 308.056640625 158.858398438 318.056640625 228.80859375 c 1
EndSplineSet
Validated: 1
MultipleSubs2: "CCMP cartouches" t.alasa cart.body
Ligature2: "LIGA basics" a l a s a
EndChar

StartChar: t.ale
Encoding: 72 989444 6
GlifName: t.ale
Width: 640
GlyphClass: 1
Flags: W
HStem: 128.005 64.1738<137.219 215.331 423.983 502.802> 319.993 64.0039<137.942 214.829 425.188 502.075>
VStem: 48.0156 64.0039<217.301 294.881> 528.021 63.9795<217.205 294.784>
LayerCount: 2
Fore
SplineSet
175.999023438 383.997070312 m 0
 207.493164062 383.997070312 237.875 372.434570312 261.337890625 351.389648438 c 2
 320.020507812 298.923828125 l 1
 378.678710938 351.389648438 l 2
 402.141601562 372.38671875 432.5234375 383.997070312 464.017578125 383.997070312 c 0
 534.697265625 383.997070312 592.000976562 326.693359375 592.000976562 255.989257812 c 0
 592.000976562 185.30859375 534.697265625 128.004882812 464.017578125 128.004882812 c 0
 432.5234375 128.004882812 402.141601562 139.54296875 378.678710938 160.587890625 c 2
 320.020507812 213.078125 l 1
 261.337890625 160.587890625 l 2
 237.875 139.616210938 207.493164062 128.004882812 175.999023438 128.004882812 c 0
 105.319335938 128.004882812 48.015625 185.30859375 48.015625 255.989257812 c 0
 48.015625 326.693359375 105.319335938 383.997070312 175.999023438 383.997070312 c 0
175.999023438 319.993164062 m 1
 175.999023438 320.186523438 l 1
 140.659179688 320.186523438 112.01953125 291.546875 112.01953125 256.182617188 c 0
 112.01953125 220.841796875 140.659179688 192.178710938 175.999023438 192.178710938 c 0
 191.74609375 192.178710938 206.815429688 197.983398438 218.668945312 208.384765625 c 2
 272.004882812 256.0859375 l 1
 218.668945312 303.786132812 l 2
 206.936523438 314.1875 191.721679688 319.993164062 175.999023438 319.993164062 c 1
464.017578125 319.993164062 m 1
 464.017578125 319.799804688 l 1
 448.270507812 319.799804688 432.958984375 313.994140625 421.34765625 303.592773438 c 2
 368.010742188 255.892578125 l 1
 421.34765625 208.19140625 l 2
 433.079101562 197.790039062 448.294921875 191.984375 464.017578125 191.984375 c 0
 499.357421875 191.984375 528.021484375 220.649414062 528.021484375 255.989257812 c 0
 528.021484375 291.353515625 499.357421875 319.993164062 464.017578125 319.993164062 c 1
EndSplineSet
Validated: 1
MultipleSubs2: "CCMP cartouches" t.ale cart.body
Ligature2: "LIGA basics" a l e
EndChar

StartChar: t.anpa
Encoding: 73 989445 7
GlifName: t.anpa
Width: 640
GlyphClass: 1
Flags: W
HStem: 39.999 96<286.065 353.935> 191.982 192.015<128.004 192.008 448 512.004> 191.982 64.0068<192.008 448>
VStem: 128.004 64.0039<255.989 383.997> 272 96<54.0645 121.933> 448 64.0039<255.989 383.997>
LayerCount: 2
Fore
SplineSet
128.00390625 383.997070312 m 1xdc
 192.0078125 383.997070312 l 1xdc
 192.0078125 255.989257812 l 1
 448 255.989257812 l 1xbc
 448 383.997070312 l 1
 512.00390625 383.997070312 l 1
 512.00390625 191.982421875 l 1
 128.00390625 191.982421875 l 1
 128.00390625 383.997070312 l 1xdc
320 135.999023438 m 0
 346.4921875 135.999023438 368 114.490234375 368 87.9990234375 c 0
 368 61.5068359375 346.4921875 39.9990234375 320 39.9990234375 c 0
 293.5078125 39.9990234375 272 61.5068359375 272 87.9990234375 c 0
 272 114.490234375 293.5078125 135.999023438 320 135.999023438 c 0
EndSplineSet
Validated: 1
MultipleSubs2: "CCMP cartouches" t.anpa cart.body
Ligature2: "LIGA basics" a n p a
EndChar

StartChar: t.ante
Encoding: 74 989446 8
GlifName: t.ante
Width: 640
GlyphClass: 1
Flags: W
HStem: 0.00195312 21G<90.4227 133.464 506.536 549.577>
LayerCount: 2
Fore
SplineSet
104 512.001953125 m 1
 320 365.3828125 l 1
 536 512.001953125 l 1
 571.9453125 459.052734375 l 1
 320 288.001953125 l 1
 68.0546875 459.052734375 l 1
 104 512.001953125 l 1
320 224.001953125 m 1
 571.9453125 52.951171875 l 1
 536 0.001953125 l 1
 320 146.62109375 l 1
 104 0.001953125 l 1
 68.0546875 52.951171875 l 1
 320 224.001953125 l 1
EndSplineSet
Validated: 1
MultipleSubs2: "CCMP cartouches" t.ante cart.body
Ligature2: "LIGA basics" a n t e
EndChar

StartChar: t.anu
Encoding: 75 989447 9
GlifName: t.anu
Width: 640
GlyphClass: 1
Flags: W
VStem: 287.989 64.0049<15.9961 264.478>
LayerCount: 2
Fore
SplineSet
138.9609375 503.997070312 m 1
 319.991210938 322.966796875 l 1
 501.021484375 503.997070312 l 1
 546.279296875 458.739257812 l 1
 351.994140625 264.477539062 l 1
 351.994140625 15.99609375 l 1
 287.989257812 15.99609375 l 1
 287.989257812 264.477539062 l 1
 93.7275390625 458.739257812 l 1
 138.9609375 503.997070312 l 1
EndSplineSet
Validated: 1
MultipleSubs2: "CCMP cartouches" t.anu cart.body
Ligature2: "LIGA basics" a n u
EndChar

StartChar: t.awen
Encoding: 76 989448 10
GlifName: t.awen
Width: 640
GlyphClass: 1
Flags: W
HStem: -0.00390625 64.0039<64.0039 174.232 465.782 576.004>
LayerCount: 2
Fore
SplineSet
288.00390625 511.99609375 m 1
 352.0078125 511.99609375 l 1
 465.782226562 64 l 1
 576.00390625 63.9970703125 l 1
 576.00390625 -0.00390625 l 1
 416.001953125 -0.00390625 l 1
 319.99609375 377.997070312 l 1
 224.013671875 -0.00390625 l 1
 64.00390625 -0.00390625 l 1
 64.00390625 64 l 1
 174.232421875 64 l 1
 288.00390625 511.99609375 l 1
EndSplineSet
Validated: 1
MultipleSubs2: "CCMP cartouches" t.awen cart.body
Ligature2: "LIGA basics" a w e n
EndChar

StartChar: t.e
Encoding: 77 989449 11
GlifName: t.e
Width: 640
GlyphClass: 1
Flags: W
HStem: 0.00683594 21G<76.0092 116.009 300.001 340.002>
LayerCount: 2
Fore
SplineSet
320.000976562 512.008789062 m 1
 575.993164062 255.991210938 l 1
 320.000976562 0.0087890625 l 1
 274.744140625 45.2666015625 l 1
 485.501953125 255.991210938 l 1
 274.744140625 466.750976562 l 1
 320.000976562 512.008789062 l 1
96.0087890625 512.006835938 m 1
 352.000976562 255.991210938 l 1
 96.0087890625 0.0068359375 l 1
 50.751953125 45.2646484375 l 1
 261.510742188 255.991210938 l 1
 50.751953125 466.749023438 l 1
 96.0087890625 512.006835938 l 1
EndSplineSet
Validated: 1
MultipleSubs2: "CCMP cartouches" t.e cart.body
Ligature2: "LIGA basics" e
EndChar

StartChar: t.en
Encoding: 78 989450 12
GlifName: t.en
Width: 640
GlyphClass: 1
Flags: W
HStem: 224.022 63.9795<144.005 288.002 352.006 496.003>
VStem: 288.002 64.0039<80.001 224.022 288.002 431.999>
LayerCount: 2
Fore
SplineSet
288.001953125 431.999023438 m 1
 352.005859375 431.999023438 l 1
 352.005859375 288.001953125 l 1
 496.002929688 288.001953125 l 1
 496.002929688 224.022460938 l 1
 352.005859375 224.022460938 l 1
 352.005859375 80.0009765625 l 1
 288.001953125 80.0009765625 l 1
 288.001953125 224.022460938 l 1
 144.004882812 224.022460938 l 1
 144.004882812 288.001953125 l 1
 288.001953125 288.001953125 l 1
 288.001953125 431.999023438 l 1
EndSplineSet
Validated: 1
MultipleSubs2: "CCMP cartouches" t.en cart.body
Ligature2: "LIGA basics" e n
EndChar

StartChar: t.esun
Encoding: 79 989451 13
GlifName: t.esun
Width: 640
GlyphClass: 1
Flags: W
HStem: 0.00488281 63.8516<153.217 231.638> 191.898 64.167<153.217 233.264> 255.92 64.166<406.738 486.785> 448.129 63.875<408.363 486.785>
VStem: 64.001 64.0029<89.1615 166.757> 511.998 64.0029<345.239 422.835>
LayerCount: 2
Fore
SplineSet
254.897460938 115.973632812 m 2xdc
 322.21484375 407.794921875 l 2
 333.365234375 467.122070312 385.443359375 512.00390625 447.995117188 512.00390625 c 0
 518.698242188 512.00390625 576.000976562 454.685546875 576.000976562 383.961914062 c 0
 576.000976562 313.262695312 518.698242188 255.919921875 447.995117188 255.919921875 c 0
 425.741210938 255.919921875 404.74609375 261.7265625 386.604492188 271.646484375 c 2
 64.0009765625 448.03125 l 1
 94.599609375 504.26171875 l 1
 417.299804688 327.829101562 l 2
 426.466796875 322.989257812 436.868164062 320.0859375 447.995117188 320.0859375 c 0xbc
 483.334960938 320.0859375 511.998046875 348.7578125 511.998046875 384.107421875 c 0
 511.998046875 419.45703125 483.334960938 448.12890625 447.995117188 448.12890625 c 0
 416.71875 448.12890625 390.66796875 425.674804688 385.104492188 396.01171875 c 2
 317.787109375 104.213867188 l 2
 306.63671875 44.88671875 254.55859375 0.0048828125 192.006835938 0.0048828125 c 0
 121.303710938 0.0048828125 64.0009765625 57.3232421875 64.0009765625 128.046875 c 0
 64.0009765625 198.74609375 121.303710938 256.065429688 192.006835938 256.065429688 c 0
 214.259765625 256.065429688 235.255859375 250.2578125 253.397460938 240.337890625 c 2
 576.000976562 63.953125 l 1
 545.40234375 7.72265625 l 1
 222.702148438 184.15625 l 2
 213.534179688 188.995117188 203.133789062 191.8984375 192.006835938 191.8984375 c 0
 156.666992188 191.8984375 128.00390625 163.2265625 128.00390625 127.876953125 c 0
 128.00390625 92.52734375 156.666992188 63.8564453125 192.006835938 63.8564453125 c 0
 223.283203125 63.8564453125 249.333984375 86.3095703125 254.897460938 115.973632812 c 2xdc
EndSplineSet
Validated: 5
MultipleSubs2: "CCMP cartouches" t.esun cart.body
Ligature2: "LIGA basics" e s u n
EndChar

StartChar: t.ijo
Encoding: 80 989452 14
GlifName: t.ijo
Width: 640
GlyphClass: 1
Flags: W
HStem: -7.99609 64.0039<247.259 392.798> 455.997 64.0039<247.259 392.798>
VStem: 56.0303 64.0039<183.233 328.773> 520.023 64.0039<183.233 328.773>
LayerCount: 2
Fore
SplineSet
320.028320312 520.000976562 m 0
 465.733398438 520 584.026367188 401.70703125 584.02734375 256.002929688 c 0
 584.026367188 110.298828125 465.733398438 -7.9951171875 320.028320312 -7.99609375 c 0
 174.32421875 -7.9951171875 56.03125 110.298828125 56.0302734375 256.002929688 c 0
 56.03125 401.70703125 174.32421875 520 320.028320312 520.000976562 c 0
320.028320312 455.997070312 m 0
 209.650390625 455.994140625 120.037109375 366.380859375 120.034179688 256.002929688 c 0
 120.037109375 145.624023438 209.650390625 56.01171875 320.028320312 56.0078125 c 0
 430.407226562 56.01171875 520.01953125 145.624023438 520.0234375 256.002929688 c 0
 520.01953125 366.380859375 430.407226562 455.994140625 320.028320312 455.997070312 c 0
EndSplineSet
Validated: 1
MultipleSubs2: "CCMP cartouches" t.ijo cart.body
Ligature2: "LIGA basics" i j o
EndChar

StartChar: t.ike
Encoding: 81 989453 15
GlifName: t.ike
Width: 640
GlyphClass: 1
Flags: W
HStem: 319.98 64.0039<258.226 381.767>
VStem: 96.0039 64.0049<159.994 221.284> 480.004 64.0049<159.994 221.285>
LayerCount: 2
Fore
SplineSet
319.994140625 383.984375 m 0
 443.620117188 383.984375 544.002929688 283.619140625 544.008789062 159.994140625 c 1
 544.008789062 159.994140625 479.994140625 159.995117188 480.00390625 159.994140625 c 1
 479.99609375 248.293945312 408.295898438 319.98046875 319.994140625 319.98046875 c 0
 231.69921875 319.97265625 160.016601562 248.2890625 160.008789062 159.994140625 c 1
 160.008789062 159.994140625 96.0048828125 159.995117188 96.00390625 159.994140625 c 1
 96.009765625 283.615234375 196.373046875 383.978515625 319.994140625 383.984375 c 0
EndSplineSet
Validated: 37
MultipleSubs2: "CCMP cartouches" t.ike cart.body
Ligature2: "LIGA basics" i k e
EndChar

StartChar: t.ilo
Encoding: 82 989454 16
GlifName: t.ilo
Width: 640
GlyphClass: 1
Flags: W
HStem: -0.00488281 21G<288.004 352.004> 255.985 64.0039<128.006 288.004 352.004 512.006> 447.997 64.0039<128.006 288.004 352.004 512.006>
VStem: 64.002 64.0039<319.989 447.997> 288.004 64<-0.00488281 255.985 319.989 447.997> 512.006 64.0039<319.989 447.997>
LayerCount: 2
Fore
SplineSet
64.001953125 512.000976562 m 1
 576.009765625 512.000976562 l 1
 576.009765625 255.985351562 l 1
 352.00390625 255.985351562 l 1
 352.00390625 -0.0048828125 l 1
 288.00390625 -0.0048828125 l 1
 288.00390625 255.985351562 l 1
 64.001953125 255.985351562 l 1
 64.001953125 512.000976562 l 1
128.005859375 447.997070312 m 1
 128.005859375 319.989257812 l 1
 288.00390625 319.989257812 l 1
 288.00390625 447.997070312 l 1
 128.005859375 447.997070312 l 1
352.00390625 447.997070312 m 1
 352.00390625 319.989257812 l 1
 512.005859375 319.989257812 l 1
 512.005859375 447.997070312 l 1
 352.00390625 447.997070312 l 1
EndSplineSet
Validated: 1
MultipleSubs2: "CCMP cartouches" t.ilo cart.body
Ligature2: "LIGA basics" i l o
EndChar

StartChar: t.insa
Encoding: 83 989455 17
GlifName: t.insa
Width: 640
GlyphClass: 1
Flags: W
HStem: 127.979 64.0039<191.984 448> 255.993 96<286.076 353.944>
VStem: 128.004 63.9805<191.983 383.995> 272.01 96<270.059 337.928> 448 64.0039<191.983 383.995>
LayerCount: 2
Fore
SplineSet
128.00390625 383.995117188 m 1
 191.984375 383.995117188 l 1
 191.984375 191.983398438 l 1
 448 191.983398438 l 1
 448 383.995117188 l 1
 512.00390625 383.995117188 l 1
 512.00390625 127.979492188 l 1
 128.00390625 127.979492188 l 1
 128.00390625 383.995117188 l 1
320.009765625 351.993164062 m 0
 346.501953125 351.993164062 368.009765625 330.485351562 368.009765625 303.993164062 c 0
 368.009765625 277.500976562 346.501953125 255.993164062 320.009765625 255.993164062 c 0
 293.518554688 255.993164062 272.009765625 277.500976562 272.009765625 303.993164062 c 0
 272.009765625 330.485351562 293.518554688 351.993164062 320.009765625 351.993164062 c 0
EndSplineSet
Validated: 1
MultipleSubs2: "CCMP cartouches" t.insa cart.body
Ligature2: "LIGA basics" i n s a
EndChar

StartChar: t.jaki
Encoding: 84 989456 18
GlifName: t.jaki
Width: 640
VWidth: 832
GlyphClass: 1
Flags: W
HStem: -15.9941 64<235.122 274.747> 64.0059 63.9941<180.126 250.648 339.906 422.063> 448.002 64<265.778 315.419>
VStem: 112 64<131.249 173.248> 448 64<153.215 231.418>
LayerCount: 2
Fore
SplineSet
311.876953125 512.001953125 m 1
 464 512.0078125 l 1
 464 448.0078125 l 1
 464 448.005859375 l 1
 227.578125 335.169921875 l 2
 227.6796875 334.823242188 227.784179688 334.47265625 227.890625 334.12890625 c 2
 367.162109375 321.96484375 l 1
 544 400.005859375 l 1
 569.83984375 341.455078125 l 1
 461.705078125 293.732421875 l 1
 492.408203125 270.247070312 512 233.252929688 512 192.005859375 c 0
 512 121.313476562 454.692382812 64.005859375 384 64.005859375 c 2
 339.90625 64.005859375 l 1
 337.817382812 19.4716796875 301.05078125 -15.9931640625 256 -15.994140625 c 0
 234.700195312 -15.9931640625 214.196289062 -7.9013671875 198.63671875 6.64453125 c 1
 244 52.0078125 l 2
 247.461914062 49.4111328125 251.672851562 48.0068359375 256 48.005859375 c 0
 265.67578125 48.0068359375 273.74609375 54.8779296875 275.599609375 64.005859375 c 1
 200 64.005859375 l 2
 151.399414062 64.005859375 112 103.405273438 112 152.005859375 c 0
 112.000976562 186.866210938 132.578125 218.439453125 164.470703125 232.513671875 c 2
 196.591796875 246.689453125 l 1
 184.291015625 273.693359375 l 1
 112 280.0078125 l 1
 84.43359375 337.765625 l 1
 160.6484375 374.140625 l 1
 167.774414062 451.421875 232.751953125 511.9375 311.876953125 512.001953125 c 1
311.876953125 448.001953125 m 1
 311.877929688 448.001953125 l 1
 283.114257812 447.961914062 257.583984375 434.122070312 241.5546875 412.748046875 c 1
 315.418945312 448.001953125 l 1
 312.001953125 448.001953125 l 2
 311.959960938 448.001953125 311.91796875 448.001953125 311.876953125 448.001953125 c 1
377.96484375 256.771484375 m 1
 281.67578125 214.27734375 l 1
 320.974609375 128 l 1
 384 128 l 2
 419.346679688 128 448 156.653320312 448 192 c 0
 448 225.1875 422.630859375 252.870117188 389.568359375 255.7578125 c 2
 377.96484375 256.771484375 l 1
223.12109375 188.4375 m 1
 190.310546875 173.95703125 l 2
 181.612304688 170.118164062 176 161.5078125 176 152 c 0
 176 138.745117188 186.745117188 128 200 128 c 2
 250.6484375 128 l 1
 223.12109375 188.4375 l 1
EndSplineSet
Validated: 5
MultipleSubs2: "CCMP cartouches" t.jaki cart.body
Ligature2: "LIGA basics" j a k i
EndChar

StartChar: t.jan
Encoding: 85 989457 19
GlifName: t.jan
Width: 640
GlyphClass: 1
Flags: W
HStem: -0.00292969 21G<128.004 209.554 430.455 512.004> 135.997 63.999<266.604 373.405> 455.994 64.0029<262.909 377.099>
VStem: 128.004 64<270.63 385.68> 448.005 63.999<270.63 385.68>
LayerCount: 2
Fore
SplineSet
320.00390625 519.997070312 m 0
 426.04296875 519.997070312 512.00390625 434.03515625 512.00390625 327.997070312 c 0
 512.00390625 261.807617188 478.51171875 203.44140625 427.548828125 168.920898438 c 1
 512.00390625 -0.0029296875 l 1
 440.454101562 -0.0029296875 l 1
 369.270507812 142.375976562 l 1
 353.547851562 138.213867188 337.03515625 135.997070312 320.00390625 135.997070312 c 0
 302.973632812 135.997070312 286.4609375 138.213867188 270.73828125 142.375976562 c 1
 199.5546875 -0.0029296875 l 1
 128.00390625 -0.0029296875 l 1
 212.458984375 168.920898438 l 1
 161.497070312 203.44140625 128.00390625 261.807617188 128.00390625 327.997070312 c 0
 128.00390625 434.03515625 213.965820312 519.997070312 320.00390625 519.997070312 c 0
320.00390625 455.994140625 m 0
 249.3125 455.995117188 192.004882812 398.688476562 192.00390625 327.997070312 c 0
 192.00390625 257.303710938 249.311523438 199.99609375 320.00390625 199.99609375 c 0
 390.697265625 199.99609375 448.004882812 257.303710938 448.004882812 327.997070312 c 0
 448.002929688 398.688476562 390.696289062 455.995117188 320.00390625 455.994140625 c 0
EndSplineSet
Validated: 33
MultipleSubs2: "CCMP cartouches" t.jan cart.body
Ligature2: "LIGA basics" j a n
EndChar

StartChar: t.jelo
Encoding: 86 989458 20
GlifName: t.jelo
Width: 640
GlyphClass: 1
Flags: W
HStem: -0.00390625 63.9805<218.524 421.493> 287.969 64<96.0127 199.916 440.101 544.032> 383.973 160.016<288.148 351.863>
VStem: 96.0127 160.004<288.112 351.833> 288.001 64<440.071 543.988> 384.001 160.031<288.112 351.833>
LayerCount: 2
Fore
SplineSet
288.000976562 543.98828125 m 1
 352.000976562 543.98828125 l 1
 352.000976562 443.943359375 l 1
 396.986328125 432.3671875 432.397460938 396.955078125 443.973632812 351.96875 c 1
 544.032226562 351.96875 l 1
 544.032226562 287.96875 l 1
 443.971679688 287.96875 l 1
 434.237304688 250.159179688 407.658203125 219.112304688 372.706054688 203.302734375 c 1
 576.012695312 -0.00390625 l 1
 64.0048828125 -0.00390625 l 1
 267.293945312 203.306640625 l 1
 232.353515625 219.1171875 205.778320312 250.162109375 196.045898438 287.96875 c 1
 96.0126953125 287.96875 l 1
 96.0126953125 351.96875 l 1
 196.043945312 351.96875 l 1
 207.619140625 396.954101562 243.028320312 432.366210938 288.000976562 443.943359375 c 1
 288.000976562 543.98828125 l 1
319.997070312 383.97265625 m 0
 284.657226562 383.97265625 256.016601562 355.331054688 256.016601562 319.966796875 c 0
 256.016601562 284.626953125 284.657226562 255.962890625 319.997070312 255.962890625 c 0
 355.361328125 255.962890625 384.000976562 284.626953125 384.000976562 319.966796875 c 0
 384.000976562 355.331054688 355.361328125 383.97265625 319.997070312 383.97265625 c 0
319.997070312 165.47265625 m 1
 218.524414062 63.9765625 l 1
 421.493164062 63.9765625 l 1
 319.997070312 165.47265625 l 1
EndSplineSet
Validated: 1
MultipleSubs2: "CCMP cartouches" t.jelo cart.body
Ligature2: "LIGA basics" j e l o
EndChar

StartChar: t.jo
Encoding: 87 989459 21
GlifName: t.jo
Width: 640
GlyphClass: 1
Flags: W
HStem: -8.01367 64.0039<262.315 376.867> 143.99 64.0039<320.004 441.602> 263.991 64.0049<280.321 358.779> 456.003 64.0049<281.229 358.779>
VStem: 127.99 64.0059<126.309 241.447> 191.996 64.0039<352.503 430.775> 384.008 64.0039<353.224 430.775>
LayerCount: 2
Fore
SplineSet
320.00390625 520.0078125 m 0xf6
 390.649414062 520.0078125 448.01171875 462.64453125 448.01171875 392 c 0
 448.01171875 321.354492188 390.649414062 263.991210938 320.00390625 263.991210938 c 0
 292.221679688 263.991210938 266.3671875 272.930664062 245.375 287.991210938 c 1
 211.9921875 263.998046875 191.99609375 225.307617188 191.99609375 183.998046875 c 0
 191.99609375 113.29296875 249.299804688 55.990234375 320.00390625 55.990234375 c 0
 375.276367188 55.990234375 424.185546875 91.4755859375 441.6015625 143.990234375 c 1
 320.00390625 143.990234375 l 1
 320.00390625 207.994140625 l 1
 511.9921875 207.994140625 l 1
 511.9921875 175.9921875 l 1
 511.822265625 175.9921875 l 1
 507.541015625 73.1640625 422.928710938 -8.013671875 320.00390625 -8.013671875 c 0
 213.959960938 -8.013671875 127.990234375 77.953125 127.990234375 183.998046875 c 0xfa
 127.990234375 245.142578125 157.000976562 301.514648438 204.30078125 337.229492188 c 1
 196.455078125 353.805664062 191.99609375 372.45703125 191.99609375 392 c 0
 191.99609375 462.64453125 249.359375 520.0078125 320.00390625 520.0078125 c 0xf6
320.00390625 456.002929688 m 0
 284.681640625 456.002929688 256 427.322265625 256 392 c 0xf6
 256 356.676757812 284.681640625 327.99609375 320.00390625 327.99609375 c 0
 355.327148438 327.99609375 384.0078125 356.676757812 384.0078125 392 c 0
 384.0078125 427.322265625 355.327148438 456.002929688 320.00390625 456.002929688 c 0
EndSplineSet
Validated: 1
MultipleSubs2: "CCMP cartouches" t.jo cart.body
Ligature2: "LIGA basics" j o
EndChar

StartChar: t.kala
Encoding: 88 989460 22
GlifName: t.kala
Width: 640
GlyphClass: 1
Flags: W
HStem: 79.9932 64.0039<321.738 460.84> 368.011 63.9805<321.739 460.84>
VStem: 56.0029 64.0039<79.9932 167.058 344.926 431.991> 519.996 64.0049<203.68 308.304>
LayerCount: 2
Fore
SplineSet
56.0029296875 431.991210938 m 1
 56.0029296875 431.991210938 120.153320312 431.7578125 120.006835938 431.991210938 c 1
 120.010742188 390.123046875 129.11328125 350.096679688 145.211914062 314.190429688 c 1
 209.701171875 386.549804688 303.545898438 431.991210938 408.001953125 431.991210938 c 0
 505.137695312 431.990234375 584 353.127929688 584.000976562 255.9921875 c 0
 584 158.85546875 505.137695312 79.9931640625 408.001953125 79.9931640625 c 0
 303.540039062 79.9970703125 209.698242188 125.447265625 145.211914062 197.817382812 c 1
 129.110351562 161.904296875 120.0078125 121.870117188 120.006835938 79.9931640625 c 1
 120.006835938 79.9931640625 56.2275390625 80.392578125 56.0029296875 79.9931640625 c 1
 56.2119140625 143.967773438 73.7470703125 204.345703125 103.825195312 255.9921875 c 1
 73.7470703125 307.637695312 56.2119140625 368.016601562 56.0029296875 431.991210938 c 1
408.001953125 368.010742188 m 0
 315.204101562 368.00390625 232.724609375 324.23828125 180.043945312 255.9921875 c 1
 232.729492188 187.754882812 315.20703125 143.998046875 408.001953125 143.997070312 c 0
 469.811523438 144 519.994140625 194.181640625 519.99609375 255.9921875 c 2
 519.99609375 256.010742188 l 2
 519.99609375 317.82421875 469.813476562 368.008789062 408.001953125 368.010742188 c 0
EndSplineSet
Validated: 33
MultipleSubs2: "CCMP cartouches" t.kala cart.body
Ligature2: "LIGA basics" k a l a
EndChar

StartChar: t.kalama
Encoding: 89 989461 23
GlifName: t.kalama
Width: 640
GlyphClass: 1
Flags: W
HStem: 15.9785 64.0039<262.326 377.646> 207.99 64.0039<191.976 447.993>
VStem: 127.997 63.9785<150.923 207.99> 288.007 64<368.004 512.004> 447.993 64.0039<150.921 207.99>
LayerCount: 2
Fore
SplineSet
288.006835938 512.00390625 m 1
 352.006835938 512.00390625 l 1
 352.006835938 368.00390625 l 1
 288.006835938 368.00390625 l 1
 288.006835938 512.00390625 l 1
455.325195312 486.5078125 m 1
 511.985351562 456.748046875 l 1
 445.030273438 329.26171875 l 1
 388.370117188 359.01953125 l 1
 455.325195312 486.5078125 l 1
184.659179688 485.76171875 m 1
 251.614257812 358.275390625 l 1
 194.954101562 328.517578125 l 1
 127.999023438 456.00390625 l 1
 184.659179688 485.76171875 l 1
127.997070312 271.994140625 m 1
 511.997070312 271.994140625 l 1
 511.997070312 271.994140625 511.985351562 207.978515625 511.997070312 207.990234375 c 1
 511.997070312 102.022460938 425.952148438 15.978515625 319.985351562 15.978515625 c 0
 214.022460938 15.9853515625 127.997070312 102.026367188 127.997070312 207.990234375 c 2
 127.997070312 271.994140625 l 1
191.975585938 207.990234375 m 1
 191.975585938 137.345703125 249.33984375 79.982421875 319.985351562 79.982421875 c 0
 390.629882812 79.982421875 447.993164062 137.345703125 447.993164062 207.990234375 c 1
 191.975585938 207.990234375 l 1
EndSplineSet
Validated: 33
MultipleSubs2: "CCMP cartouches" t.kalama cart.body
Ligature2: "LIGA basics" k a l a m a
EndChar

StartChar: t.kama
Encoding: 90 989462 24
GlifName: t.kama
Width: 640
GlyphClass: 1
Flags: W
HStem: -0.0126953 64.0039<80.0049 208.012>
VStem: 208.012 63.958<63.9912 405.298>
LayerCount: 2
Fore
SplineSet
272.004882812 511.99609375 m 1
 559.40625 128.745117188 l 1
 383.962890625 -0.0126953125 l 1
 346.325195312 51.7509765625 l 1
 469.786132812 141.540039062 l 1
 271.969726562 405.297851562 l 1
 271.969726562 -0.0126953125 l 1
 80.0048828125 -0.0126953125 l 1
 80.0048828125 63.9912109375 l 1
 208.01171875 63.9912109375 l 1
 208.01171875 511.99609375 l 1
 272.004882812 511.99609375 l 1
EndSplineSet
Validated: 1
MultipleSubs2: "CCMP cartouches" t.kama cart.body
Ligature2: "LIGA basics" k a m a
EndChar

StartChar: t.kasi
Encoding: 91 989463 25
GlifName: t.kasi
Width: 640
GlyphClass: 1
Flags: W
HStem: 224.017 64.0059<226.685 284.759 355.239 413.322> 415.966 64.0371<131.226 190.876 449.123 508.772>
VStem: 288.004 64.001<31.9932 224.017>
LayerCount: 2
Fore
SplineSet
64.013671875 448.006835938 m 2
 63.8701171875 480.342773438 l 1
 128.018554688 480.002929688 l 2
 206.64453125 479.99609375 279.510742188 438.764648438 320.004882812 371.368164062 c 1
 360.504882812 438.7734375 433.3828125 480.004882812 512.018554688 480.002929688 c 2
 575.985351562 480.002929688 l 1
 575.985351562 448.006835938 l 2
 575.979492188 324.306640625 475.705078125 224.016601562 352.004882812 224.016601562 c 1
 352.004882812 31.9931640625 l 1
 288.00390625 31.9931640625 l 1
 288.00390625 224.016601562 l 1
 164.30078125 224.021484375 64.013671875 324.302734375 64.013671875 448.006835938 c 2
131.225585938 415.965820312 m 1
 146.200195312 342.670898438 209.963867188 289.534179688 284.758789062 288.022460938 c 1
 269.784179688 361.318359375 206.020507812 414.454101562 131.225585938 415.965820312 c 1
508.772460938 415.965820312 m 1
 433.978515625 414.454101562 370.21484375 361.318359375 355.239257812 288.022460938 c 1
 430.034179688 289.534179688 493.797851562 342.670898438 508.772460938 415.965820312 c 1
EndSplineSet
Validated: 33
MultipleSubs2: "CCMP cartouches" t.kasi cart.body
Ligature2: "LIGA basics" k a s i
EndChar

StartChar: t.ken
Encoding: 92 989464 26
GlifName: t.ken
Width: 640
GlyphClass: 1
Flags: W
HStem: -0.000976562 21G<127.999 191.999 448.014 512.014> 223.975 64.0059<191.999 326.37>
VStem: 127.999 63.9951<-0.000976562 223.975 287.98 512> 448.014 64<-0.000976562 101.546 410.436 479.992 479.999 512>
LayerCount: 2
Fore
SplineSet
127.999023438 512 m 1
 191.994140625 512.005859375 l 1
 191.994140625 287.98046875 l 1
 255.99609375 287.98046875 l 2
 361.963867188 287.98046875 448.0078125 374.024414062 448.0078125 479.9921875 c 1
 448.0078125 479.9921875 512.282226562 480.13671875 512.01171875 479.9921875 c 0
 512.01171875 383.540039062 458.826171875 299.620117188 379.951171875 255.978515625 c 1
 458.821289062 212.338867188 512.00390625 128.442382812 512.01171875 32 c 1
 512.013671875 32 l 1
 512.013671875 -0.0009765625 l 1
 448.013671875 -0.0009765625 l 1
 448.013671875 31.98828125 l 2
 448.006835938 137.643554688 362.45703125 223.478515625 256.915039062 223.974609375 c 2
 191.999023438 223.974609375 l 1
 191.999023438 -0.0009765625 l 1
 127.999023438 -0.0009765625 l 1
 127.999023438 512 l 1
448.018554688 512 m 1
 512.01953125 512 l 1
 512.01953125 479.999023438 l 1
 448.018554688 479.999023438 l 1
 448.018554688 512 l 1
EndSplineSet
Validated: 37
MultipleSubs2: "CCMP cartouches" t.ken cart.body
Ligature2: "LIGA basics" k e n
EndChar

StartChar: t.kepeken
Encoding: 93 989465 27
GlifName: t.kepeken
Width: 640
GlyphClass: 1
Flags: W
HStem: 0.00195312 21G<160.993 240.001 431.988 495.992> 304.009 63.9805<199.992 295.998 360.002 455.984> 463.995 64.0039<199.992 295.998 360.002 455.984>
VStem: 135.988 64.0039<367.989 463.995> 295.998 64.0039<252.221 304.009 367.989 463.995> 431.988 64.0039<0.00195312 142.826> 455.984 64.0039<367.989 463.995>
LayerCount: 2
Fore
SplineSet
135.98828125 527.999023438 m 1xfc
 519.98828125 527.999023438 l 1
 519.98828125 304.008789062 l 1xfa
 360.001953125 304.008789062 l 1
 360.001953125 254.204101562 l 1
 436.971679688 242.641601562 495.9921875 176.194335938 495.9921875 96.0078125 c 2
 495.9921875 0.001953125 l 1
 431.98828125 0.001953125 l 1
 431.98828125 96.0078125 l 2
 431.98828125 149.005859375 389.004882812 191.990234375 336.006835938 191.990234375 c 0
 282.984375 191.990234375 240.000976562 149.005859375 240.000976562 96.0078125 c 2
 240.000976562 0.001953125 l 1
 175.99609375 0.001953125 l 1
 79.990234375 127.986328125 l 1
 131.198242188 166.3984375 l 1
 176.287109375 105.68359375 l 1
 180.471679688 175.928710938 230.010742188 234.030273438 295.998046875 250.962890625 c 1
 295.998046875 304.008789062 l 1
 135.98828125 304.008789062 l 1
 135.98828125 527.999023438 l 1xfc
199.9921875 463.995117188 m 1
 199.9921875 367.989257812 l 1
 295.998046875 367.989257812 l 1
 295.998046875 463.995117188 l 1
 199.9921875 463.995117188 l 1
360.001953125 463.995117188 m 1
 360.001953125 367.989257812 l 1
 455.984375 367.989257812 l 1
 455.984375 463.995117188 l 1
 360.001953125 463.995117188 l 1
EndSplineSet
Validated: 1
MultipleSubs2: "CCMP cartouches" t.kepeken cart.body
Ligature2: "LIGA basics" k e p e k e n
EndChar

StartChar: t.kili
Encoding: 94 989466 28
GlifName: t.kili
Width: 640
GlyphClass: 1
Flags: W
HStem: 15.9951 64.0039<249.794 390.214> 352.005 64.0039<164.252 252.867 387.29 474.821>
VStem: 64.0098 64.0039<201.801 315.767> 288 64.0039<272.012 316.722 391.747 495.926> 512.014 64.0039<201.799 315.767>
LayerCount: 2
Fore
SplineSet
288 496.001953125 m 1
 352.00390625 496.001953125 l 1
 352.00390625 496.001953125 352.1484375 391.833007812 352.00390625 391.747070312 c 1
 374.861328125 407.016601562 402.46875 416.008789062 431.995117188 416.008789062 c 2
 432.021484375 416.008789062 l 2
 511.494140625 416.006835938 576.016601562 351.485351562 576.017578125 272.01171875 c 0
 576.017578125 130.721679688 461.291992188 15.9951171875 320.001953125 15.9951171875 c 0
 178.715820312 16 64.009765625 130.723632812 64.009765625 272.01171875 c 0
 64.01171875 351.485351562 128.533203125 416.006835938 208.006835938 416.008789062 c 0
 237.533203125 416.008789062 265.142578125 407.016601562 288 391.747070312 c 1
 288 496.001953125 l 1
208.006835938 352.004882812 m 0
 163.859375 352.000976562 128.017578125 316.159179688 128.013671875 272.01171875 c 0
 128.013671875 166.047851562 214.040039062 80.005859375 320.001953125 79.9990234375 c 0
 425.969726562 79.9990234375 512.013671875 166.043945312 512.013671875 272.01171875 c 0
 512.009765625 316.159179688 476.168945312 352.000976562 432.021484375 352.004882812 c 2
 432.00390625 352.00390625 l 2
 387.853515625 352.00390625 352.0078125 316.161132812 352.00390625 272.01171875 c 1
 288 272.01171875 l 1
 287.99609375 316.159179688 252.154296875 352.000976562 208.006835938 352.004882812 c 0
EndSplineSet
Validated: 33
MultipleSubs2: "CCMP cartouches" t.kili cart.body
Ligature2: "LIGA basics" k i l i
EndChar

StartChar: t.kiwen
Encoding: 95 989467 29
GlifName: t.kiwen
Width: 640
GlyphClass: 1
Flags: W
HStem: 416.009 64.0039<226.244 413.732>
LayerCount: 2
Fore
SplineSet
191.9921875 480.012695312 m 1
 447.984375 480.012695312 l 1
 575.9921875 288.000976562 l 1
 320.000976562 24.001953125 l 1
 63.984375 288.000976562 l 1
 191.9921875 480.012695312 l 1
226.244140625 416.008789062 m 1
 145.887695312 295.474609375 l 1
 320.000976562 115.944335938 l 1
 494.088867188 295.474609375 l 1
 413.732421875 416.008789062 l 1
 226.244140625 416.008789062 l 1
EndSplineSet
Validated: 1
MultipleSubs2: "CCMP cartouches" t.kiwen cart.body
Ligature2: "LIGA basics" k i w e n
EndChar

StartChar: t.ko
Encoding: 96 989468 30
GlifName: t.ko
Width: 640
VWidth: 832
GlyphClass: 1
Flags: W
HStem: -0.00585938 63.9951<176.425 240.004 240.014 247.369 392.64 473.309> 159.989 64.0068<401.847 473.309> 231.996 64.0039<142.698 190.169> 263.996 63.9961<404.134 443.881> 455.992 64.0039<298.804 393.962>
VStem: 64.0059 64<112.421 217.306> 192.006 64<297.833 413.197> 336.008 63.9961<225.829 239.994 239.996 259.866> 448.006 63.999<332.123 401.954> 488.012 63.9912<78.6885 145.299>
LayerCount: 2
Fore
SplineSet
240.0078125 -0.005859375 m 1xdf40
 240.00390625 -0.001953125 l 1
 224.00390625 -0.001953125 l 2
 135.638671875 0 64.005859375 71.6357421875 64.005859375 160 c 2
 64.005859375 184 l 1
 64.00390625 184 l 1
 64.00390625 245.856445312 114.147460938 296 176.00390625 296 c 2
 176.0078125 296 l 2
 184.842773438 296 192.004882812 303.163085938 192.005859375 311.998046875 c 1
 192.005859375 367.99609375 l 1
 192.005859375 367.998046875 l 2
 192.005859375 451.943359375 260.057617188 519.995117188 344.00390625 519.99609375 c 0
 436.788085938 519.997070312 512.004882812 444.780273438 512.004882812 351.99609375 c 0xef80
 512.004882812 303.395507812 472.607421875 263.997070312 424.0078125 263.99609375 c 2
 424.005859375 263.99609375 l 2
 410.750976562 263.99609375 400.005859375 253.250976562 400.005859375 239.99609375 c 2
 400.00390625 239.994140625 l 2
 400.00390625 231.159179688 407.166992188 223.997070312 416.001953125 223.99609375 c 2
 440.00390625 223.994140625 l 2
 501.859375 223.994140625 552.002929688 173.849609375 552.002929688 111.994140625 c 0
 552.00390625 50.1376953125 501.859375 -0.0068359375 440.00390625 -0.005859375 c 2
 400.00390625 -0.005859375 l 1
 400.000976562 -0.005859375 l 2
 360.23828125 -0.0048828125 328.00390625 32.228515625 328.00390625 71.9921875 c 0
 328.002929688 76.4091796875 324.422851562 79.9892578125 320.004882812 79.990234375 c 0
 315.5859375 79.9892578125 312.005859375 76.4091796875 312.004882812 71.9921875 c 0
 312.004882812 32.228515625 279.770507812 -0.0048828125 240.0078125 -0.005859375 c 1xdf40
240.00390625 63.994140625 m 1
 240.013671875 63.9892578125 l 2
 244.430664062 63.990234375 248.01171875 67.5703125 248.01171875 71.9873046875 c 0
 248.012695312 111.750976562 280.247070312 143.985351562 320.010742188 143.985351562 c 0
 359.775390625 143.985351562 392.008789062 111.750976562 392.009765625 71.9873046875 c 0
 392.009765625 67.5703125 395.590820312 63.990234375 400.0078125 63.9892578125 c 2
 400.009765625 63.9892578125 l 1
 440.01171875 63.9892578125 l 2
 466.521484375 63.9892578125 488.01171875 85.4794921875 488.01171875 111.989257812 c 0
 488.01171875 138.499023438 466.521484375 159.989257812 440.01171875 159.989257812 c 2
 416.0078125 159.989257812 l 2
 371.825195312 159.990234375 336.0078125 195.807617188 336.0078125 239.990234375 c 2
 336.0078125 239.9921875 l 2
 336.0078125 288.592773438 375.407226562 327.9921875 424.0078125 327.9921875 c 0xdf40
 437.26171875 327.9921875 448.006835938 338.735351562 448.0078125 351.989257812 c 5
 448.005859375 351.989257812 l 5
 448.005859375 409.428710938 401.442382812 455.9921875 344.00390625 455.9921875 c 0
 295.404296875 455.991210938 256.005859375 416.592773438 256.005859375 367.994140625 c 2
 256.005859375 367.9921875 l 1
 256.005859375 311.994140625 l 1
 256.0078125 311.994140625 l 1
 256.006835938 267.8125 220.189453125 231.99609375 176.0078125 231.99609375 c 2
 176.00390625 231.99609375 l 2
 149.493164062 231.997070312 128.001953125 210.506835938 128.001953125 183.99609375 c 1
 128.005859375 183.99609375 l 1
 128.005859375 159.99609375 l 1
 128.005859375 159.994140625 l 2
 128.006835938 106.975585938 170.986328125 63.99609375 224.00390625 63.99609375 c 1
 224.00390625 63.994140625 l 1
 240.00390625 63.994140625 l 1
EndSplineSet
Validated: 33
MultipleSubs2: "CCMP cartouches" t.ko cart.body
Ligature2: "LIGA basics" k o
EndChar

StartChar: t.kon
Encoding: 97 989469 31
GlifName: t.kon
Width: 640
GlyphClass: 1
Flags: W
HStem: -0.00488281 64.0049<222.91 268.142 446.908 492.131> 448 63.9795<148.14 193.336 372.13 417.335>
VStem: 115.848 64.0039<105.667 199.243> 236.14 64.0039<312.726 406.311> 339.837 64.0049<105.667 199.243> 460.129 64.0039<312.726 406.311>
LayerCount: 2
Fore
SplineSet
148.139648438 511.979492188 m 1
 232.075195312 511.979492188 300.143554688 443.935546875 300.143554688 360 c 0
 300.143554688 305.598632812 271.092773438 255.3828125 223.948242188 228.243164062 c 0
 196.663085938 212.51953125 179.8515625 183.46875 179.8515625 151.974609375 c 0
 179.8515625 103.37890625 219.545898438 64 268.141601562 64 c 1
 268.141601562 -0.0048828125 l 1
 184.181640625 -0.0048828125 115.84765625 68.0390625 115.84765625 151.974609375 c 0
 115.84765625 206.3515625 144.8984375 256.591796875 192.04296875 283.732421875 c 0
 219.328125 299.455078125 236.139648438 328.505859375 236.139648438 360 c 0
 236.139648438 408.595703125 196.735351562 448 148.139648438 448 c 1
 148.139648438 511.979492188 l 1
372.129882812 511.979492188 m 1
 456.08984375 511.979492188 524.1328125 443.935546875 524.1328125 360 c 0
 524.1328125 305.598632812 495.08203125 255.3828125 447.961914062 228.243164062 c 0
 420.676757812 212.51953125 403.841796875 183.46875 403.841796875 151.974609375 c 0
 403.841796875 103.37890625 443.53515625 64 492.130859375 64 c 1
 492.130859375 -0.0048828125 l 1
 408.1953125 -0.0048828125 339.836914062 68.0390625 339.836914062 151.974609375 c 0
 339.836914062 206.3515625 368.888671875 256.591796875 416.032226562 283.732421875 c 0
 443.317382812 299.455078125 460.12890625 328.505859375 460.12890625 360 c 0
 460.12890625 408.595703125 420.725585938 448 372.129882812 448 c 1
 372.129882812 511.979492188 l 1
EndSplineSet
Validated: 1
MultipleSubs2: "CCMP cartouches" t.kon cart.body
Ligature2: "LIGA basics" k o n
EndChar

StartChar: t.kule
Encoding: 98 989470 32
GlifName: t.kule
Width: 640
GlyphClass: 1
Flags: W
HStem: -0.0146484 64.0039<167.557 472.459> 159.981 64<64 144.006 247.559 392.469 496.018 576>
LayerCount: 2
Fore
SplineSet
320.01953125 511.993164062 m 1
 464.01953125 223.981445312 l 1
 576 223.981445312 l 1
 576 159.981445312 l 1
 496.017578125 159.981445312 l 1
 576.01171875 -0.0146484375 l 1
 64.00390625 -0.0146484375 l 1
 144.005859375 159.981445312 l 1
 64 159.981445312 l 1
 64 223.981445312 l 1
 176.0078125 223.981445312 l 1
 320.01953125 511.993164062 l 1
320.01953125 368.891601562 m 1
 247.55859375 223.981445312 l 1
 392.46875 223.981445312 l 1
 320.01953125 368.891601562 l 1
215.556640625 159.981445312 m 1
 167.556640625 63.9892578125 l 1
 472.458984375 63.9892578125 l 1
 424.466796875 159.981445312 l 1
 215.556640625 159.981445312 l 1
EndSplineSet
Validated: 1
MultipleSubs2: "CCMP cartouches" t.kule cart.body
Ligature2: "LIGA basics" k u l e
EndChar

StartChar: t.kulupu
Encoding: 99 989471 33
GlifName: t.kulupu
Width: 640
GlyphClass: 1
Flags: W
HStem: -8.00781 64.0039<129.217 206.765 433.209 510.751> 184.005 64.0039<129.217 206.765 433.209 510.751> 263.998 64.0039<281.22 358.762> 456.01 64.0039<281.22 358.762>
VStem: 39.9844 64.0039<81.2248 158.776> 191.987 64.0049<353.231 430.781> 231.996 63.9805<81.2263 158.774> 343.991 64.0039<81.2295 158.771> 383.976 64.0039<353.235 430.777> 535.979 64.0039<81.2248 158.776>
LayerCount: 2
Fore
SplineSet
319.99609375 520.013671875 m 0xfcc0
 390.633789062 520.004882812 447.979492188 462.645507812 447.979492188 392.005859375 c 0
 447.979492188 321.366210938 390.633789062 264.006835938 319.99609375 263.998046875 c 0
 249.350585938 263.998046875 191.987304688 321.360351562 191.987304688 392.005859375 c 0
 191.987304688 462.651367188 249.350585938 520.013671875 319.99609375 520.013671875 c 0xfcc0
319.99609375 456.009765625 m 0
 284.672851562 456.009765625 255.9921875 427.328125 255.9921875 392.005859375 c 0
 255.9921875 356.68359375 284.672851562 328.001953125 319.99609375 328.001953125 c 0
 355.30859375 328.012695312 383.975585938 356.690429688 383.975585938 392.005859375 c 0
 383.975585938 427.321289062 355.30859375 455.999023438 319.99609375 456.009765625 c 0
167.9921875 248.008789062 m 0
 238.629882812 248 295.9765625 190.639648438 295.9765625 120 c 0xfa40
 295.9765625 49.361328125 238.629882812 -7.9990234375 167.9921875 -8.0078125 c 0
 97.3466796875 -8.0078125 39.984375 49.35546875 39.984375 120 c 0
 39.984375 190.645507812 97.3466796875 248.008789062 167.9921875 248.008789062 c 0
167.9921875 184.004882812 m 0
 132.669921875 184.004882812 103.98828125 155.323242188 103.98828125 120 c 0
 103.98828125 84.677734375 132.669921875 55.99609375 167.9921875 55.99609375 c 0
 203.314453125 55.99609375 231.99609375 84.677734375 231.99609375 120 c 0
 231.99609375 155.323242188 203.314453125 184.004882812 167.9921875 184.004882812 c 0
471.975585938 248.008789062 m 0
 542.620117188 248.008789062 599.983398438 190.645507812 599.983398438 120 c 0
 599.983398438 49.35546875 542.620117188 -8.0078125 471.975585938 -8.0078125 c 0
 401.337890625 -7.9990234375 343.991210938 49.361328125 343.991210938 120 c 0xf940
 343.991210938 190.639648438 401.337890625 248 471.975585938 248.008789062 c 0
471.975585938 184.004882812 m 0
 436.662109375 183.994140625 407.995117188 155.31640625 407.995117188 120 c 0
 407.995117188 84.6845703125 436.662109375 56.0078125 471.975585938 55.99609375 c 0
 507.297851562 55.99609375 535.979492188 84.677734375 535.979492188 120 c 0
 535.979492188 155.323242188 507.297851562 184.004882812 471.975585938 184.004882812 c 0
EndSplineSet
Validated: 1
MultipleSubs2: "CCMP cartouches" t.kulupu cart.body
Ligature2: "LIGA basics" k u l u p u
EndChar

StartChar: t.kute
Encoding: 100 989472 34
GlifName: t.kute
Width: 640
GlyphClass: 1
Flags: W
HStem: -0.0078125 64.0039<223.968 294.048> 336 7.99805<127.998 191.998> 456.02 63.9785<251.136 356.863>
VStem: 127.998 64<336 343.998 344 396.336> 271.998 64.0039<191.999 335.998> 415.956 64.0039<185.904 396.336>
LayerCount: 2
Fore
SplineSet
303.998046875 519.998046875 m 0
 401.200195312 519.998046875 480.036132812 441.201171875 479.998046875 344 c 2
 479.959960938 255.984375 l 2
 479.956054688 114.60546875 365.346679688 -0.0078125 223.967773438 -0.0078125 c 1
 223.967773438 63.99609375 l 1
 329.997070312 64.001953125 415.956054688 149.955078125 415.956054688 255.984375 c 2
 415.994140625 344 l 2
 416.004882812 405.861328125 365.859375 456.016601562 303.998046875 456.01953125 c 0
 242.13671875 456.016601562 192.00390625 405.861328125 192.00390625 344 c 1
 128 344 l 1
 128 441.201171875 206.796875 519.997070312 303.998046875 519.998046875 c 0
127.998046875 343.998046875 m 1
 191.998046875 343.998046875 l 1
 191.998046875 336 l 1
 127.998046875 336 l 1
 127.998046875 343.998046875 l 1
271.998046875 335.998046875 m 1
 336.001953125 335.998046875 l 1
 336.001953125 191.999023438 l 1
 271.998046875 191.999023438 l 1
 271.998046875 335.998046875 l 1
EndSplineSet
Validated: 33
MultipleSubs2: "CCMP cartouches" t.kute cart.body
Ligature2: "LIGA basics" k u t e
EndChar

StartChar: t.la
Encoding: 101 989473 35
GlifName: t.la
Width: 640
GlyphClass: 1
Flags: W
HStem: -0.00390625 64.0039<192.005 262.051> 448 64.0039<192.005 262.052>
VStem: 383.992 64.0049<185.782 326.199>
LayerCount: 2
Fore
SplineSet
192.004882812 512.00390625 m 1
 333.291015625 512 447.997070312 397.275390625 447.997070312 255.98828125 c 0
 447.9921875 114.704101562 333.288085938 0 192.004882812 -0.00390625 c 1
 192.004882812 64 l 1
 297.962890625 64.0068359375 383.986328125 150.030273438 383.9921875 255.98828125 c 0
 383.9921875 361.951171875 297.966796875 447.993164062 192.004882812 448 c 1
 192.004882812 512.00390625 l 1
EndSplineSet
Validated: 1
MultipleSubs2: "CCMP cartouches" t.la cart.body
Ligature2: "LIGA basics" l a
EndChar

StartChar: t.lape
Encoding: 102 989474 36
GlifName: t.lape
Width: 640
GlyphClass: 1
Flags: W
HStem: 128.02 63.9795<408.201 486.757> 224.005 64.001<63.999 327.985> 320.008 64.0029<408.2 486.757>
VStem: 511.966 64.0039<217.219 294.798>
LayerCount: 2
Fore
SplineSet
447.961914062 384.010742188 m 0
 518.666015625 384.010742188 575.969726562 326.708007812 575.969726562 256.002929688 c 0
 575.969726562 185.323242188 518.666015625 128.01953125 447.961914062 128.01953125 c 0
 388.330078125 128.01953125 338.219726562 168.807617188 324.010742188 224.004882812 c 1
 63.9990234375 224.004882812 l 1
 63.9990234375 288.005859375 l 1
 324.010742188 288.005859375 l 1
 338.217773438 343.219726562 388.328125 384.010742188 447.961914062 384.010742188 c 0
447.961914062 320.0078125 m 0
 412.62109375 320.0078125 383.983398438 291.3671875 383.983398438 256.002929688 c 0
 383.983398438 220.663085938 412.62109375 191.999023438 447.961914062 191.999023438 c 0
 483.326171875 191.999023438 511.965820312 220.663085938 511.965820312 256.002929688 c 0
 511.965820312 291.3671875 483.326171875 320.0078125 447.961914062 320.0078125 c 0
EndSplineSet
Validated: 1
MultipleSubs2: "CCMP cartouches" t.lape cart.body
Ligature2: "LIGA basics" l a p e
EndChar

StartChar: t.laso
Encoding: 103 989475 37
GlifName: t.laso
Width: 640
GlyphClass: 1
Flags: W
HStem: 0.000976562 63.9785<218.496 421.488> 255.987 64.0371<226.667 284.744 355.211 413.31> 447.964 64.0371<131.211 190.354 449.61 508.744>
VStem: 287.989 64.0049<224.015 255.985>
LayerCount: 2
Fore
SplineSet
127.993164062 512.002929688 m 2
 209.46484375 511.999023438 280.778320312 468.5 319.974609375 403.461914062 c 1
 359.176757812 468.50390625 430.497070312 512.000976562 511.9765625 512.000976562 c 2
 575.994140625 512.000976562 l 1
 575.956054688 479.999023438 l 2
 575.963867188 356.294921875 475.694335938 255.985351562 351.994140625 255.985351562 c 1
 351.994140625 224.014648438 l 1
 575.984375 0.0009765625 l 1
 64 0.0009765625 l 1
 287.989257812 224.014648438 l 1
 287.989257812 255.987304688 l 1
 164.276367188 255.9921875 64 356.288085938 64 480.000976562 c 2
 64 512.000976562 l 1
 63.9990234375 511.072265625 127.993164062 512.002929688 127.993164062 512.002929688 c 2
131.2109375 447.963867188 m 1
 146.186523438 374.668945312 209.950195312 321.536132812 284.744140625 320.024414062 c 1
 269.767578125 393.319335938 206.004882812 446.452148438 131.2109375 447.963867188 c 1
508.744140625 447.963867188 m 1
 433.950195312 446.452148438 370.186523438 393.317382812 355.2109375 320.022460938 c 1
 430.00390625 321.534179688 493.767578125 374.668945312 508.744140625 447.963867188 c 1
319.991210938 165.477539062 m 1
 218.49609375 63.9794921875 l 1
 421.48828125 63.9794921875 l 1
 319.991210938 165.477539062 l 1
EndSplineSet
Validated: 33
MultipleSubs2: "CCMP cartouches" t.laso cart.body
Ligature2: "LIGA basics" l a s o
EndChar

StartChar: t.lawa
Encoding: 104 989476 38
GlifName: t.lawa
Width: 640
GlyphClass: 1
Flags: W
HStem: 39.5684 64.0039<203.168 324.801> 287.994 64.002<146.475 381.498> 407.58 64.0039<203.293 325.592>
VStem: 47.9775 64.0039<194.759 285.287> 415.988 63.9805<194.76 287.747>
LayerCount: 2
Fore
SplineSet
263.985351562 471.583984375 m 0
 348.635742188 471.577148438 421.850585938 422.979492188 457.256835938 351.99609375 c 1
 592 351.99609375 l 1
 592 287.994140625 l 1
 592 287.994140625 477.516601562 288.200195312 477.5234375 287.994140625 c 0
 479.137695312 277.353515625 479.96875 266.665039062 479.96875 255.576171875 c 0
 479.96875 136.369140625 383.19140625 39.578125 263.985351562 39.568359375 c 0
 144.772460938 39.568359375 47.9775390625 136.36328125 47.9775390625 255.576171875 c 0
 47.9775390625 374.790039062 144.772460938 471.583984375 263.985351562 471.583984375 c 0
263.985351562 407.580078125 m 0
 216.63671875 407.580078125 174.360351562 385.982421875 146.474609375 351.99609375 c 1
 146.474609375 351.99609375 381.54296875 351.897460938 381.498046875 351.99609375 c 0
 353.612304688 385.982421875 311.334960938 407.580078125 263.985351562 407.580078125 c 0
115.477539062 287.994140625 m 1
 113.19140625 277.517578125 111.981445312 266.734375 111.981445312 255.576171875 c 0
 111.981445312 171.685546875 180.094726562 103.572265625 263.985351562 103.572265625 c 0
 347.876953125 103.572265625 415.98828125 171.685546875 415.98828125 255.576171875 c 0
 415.98828125 266.734375 414.778320312 277.517578125 412.4921875 287.994140625 c 1
 115.477539062 287.994140625 l 1
EndSplineSet
Validated: 33
MultipleSubs2: "CCMP cartouches" t.lawa cart.body
Ligature2: "LIGA basics" l a w a
EndChar

StartChar: t.len
Encoding: 105 989477 39
GlifName: t.len
Width: 640
GlyphClass: 1
Flags: W
HStem: 159.984 64.0049<192.004 287.985 351.989 447.995> 416.001 64.0039<192.004 447.995>
VStem: 127.999 64.0049<32.001 159.984 223.989 416.001> 287.985 64.0039<32.001 159.984> 447.995 64.0039<32.001 159.984 223.989 416.001>
LayerCount: 2
Fore
SplineSet
127.999023438 480.004882812 m 1
 192.00390625 480.004882812 l 1
 447.995117188 480.004882812 l 1
 511.999023438 480.004882812 l 1
 511.999023438 32.0009765625 l 1
 447.995117188 32.0009765625 l 1
 447.995117188 159.984375 l 1
 351.989257812 159.984375 l 1
 351.989257812 32.0009765625 l 1
 287.985351562 32.0009765625 l 1
 287.985351562 159.984375 l 1
 192.00390625 159.984375 l 1
 192.00390625 32.0009765625 l 1
 127.999023438 32.0009765625 l 1
 127.999023438 480.004882812 l 1
192.00390625 416.000976562 m 1
 192.00390625 223.989257812 l 1
 447.995117188 223.989257812 l 1
 447.995117188 416.000976562 l 1
 192.00390625 416.000976562 l 1
EndSplineSet
Validated: 1
MultipleSubs2: "CCMP cartouches" t.len cart.body
Ligature2: "LIGA basics" l e n
EndChar

StartChar: t.lete
Encoding: 106 989478 40
GlifName: t.lete
Width: 640
GlyphClass: 1
Flags: W
HStem: 223.999 64<95.999 543.999>
LayerCount: 2
Fore
SplineSet
95.9990234375 223.999023438 m 1
 95.9990234375 287.999023438 l 1
 543.999023438 287.999023438 l 1
 543.999023438 223.999023438 l 1
 95.9990234375 223.999023438 l 1
235.711914062 46.0087890625 m 1
 180.287109375 78.0087890625 l 1
 404.287109375 465.98828125 l 1
 459.711914062 433.98828125 l 1
 235.711914062 46.0087890625 l 1
404.260742188 46.0224609375 m 1
 180.259765625 434.001953125 l 1
 235.685546875 466.001953125 l 1
 459.685546875 78.0224609375 l 1
 404.260742188 46.0224609375 l 1
EndSplineSet
Validated: 5
MultipleSubs2: "CCMP cartouches" t.lete cart.body
Ligature2: "LIGA basics" l e t e
EndChar

StartChar: t.li
Encoding: 107 989479 41
GlifName: t.li
Width: 640
GlyphClass: 1
Flags: W
LayerCount: 2
Fore
SplineSet
214.09765625 499.80859375 m 1
 518.858398438 256.000976562 l 1
 518.860351562 255.999023438 l 1
 214.096679688 12.19140625 l 1
 176.01953125 59.7880859375 l 1
 421.287109375 256.000976562 l 1
 176.01953125 452.213867188 l 1
 214.09765625 499.80859375 l 1
EndSplineSet
Validated: 1
MultipleSubs2: "CCMP cartouches" t.li cart.body
Ligature2: "LIGA basics" l i
EndChar

StartChar: t.lili
Encoding: 108 989480 42
GlifName: t.lili
Width: 640
GlyphClass: 1
Flags: W
LayerCount: 2
Fore
SplineSet
227.331054688 358.208007812 m 1
 319.999023438 223.983398438 l 1
 412.642578125 358.208007812 l 1
 463.99609375 319.989257812 l 1
 319.999023438 128.000976562 l 1
 175.977539062 319.989257812 l 1
 227.331054688 358.208007812 l 1
EndSplineSet
Validated: 1
MultipleSubs2: "CCMP cartouches" t.lili cart.body
Ligature2: "LIGA basics" l i l i
EndChar

StartChar: t.linja
Encoding: 109 989481 43
GlifName: t.linja
Width: 640
GlyphClass: 1
Flags: W
HStem: 163.852 64.0039<169.702 263.289> 284.143 63.9805<376.761 470.341>
VStem: 64.0205 64.0049<270.649 315.854> 512.025 63.9795<195.854 241.074>
LayerCount: 2
Fore
SplineSet
64.0205078125 315.854492188 m 1
 128.025390625 315.854492188 l 1
 128.025390625 267.234375 167.404296875 227.85546875 216.024414062 227.85546875 c 0
 247.494140625 227.85546875 276.569335938 244.666015625 292.291992188 271.952148438 c 0
 319.408203125 319.072265625 369.6484375 348.123046875 424.025390625 348.123046875 c 0
 507.985351562 348.123046875 576.004882812 279.7890625 576.004882812 195.853515625 c 1
 512.025390625 195.853515625 l 1
 512.025390625 244.44921875 472.62109375 284.142578125 424.025390625 284.142578125 c 0
 392.555664062 284.142578125 363.48046875 267.307617188 347.7578125 240.022460938 c 0
 320.641601562 192.90234375 270.401367188 163.8515625 216.024414062 163.8515625 c 0
 132.064453125 163.8515625 64.0205078125 231.89453125 64.0205078125 315.854492188 c 1
EndSplineSet
Validated: 1
MultipleSubs2: "CCMP cartouches" t.linja cart.body
Ligature2: "LIGA basics" l i n j a
EndChar

StartChar: t.lipu
Encoding: 110 989482 44
GlifName: t.lipu
Width: 640
GlyphClass: 1
Flags: W
HStem: 0 64.0039<192.004 448.021> 448.004 64.0039<192.004 448.021>
VStem: 128 64.0039<64.0039 448.004> 448.021 63.9795<64.0039 448.004>
LayerCount: 2
Fore
SplineSet
128 512.0078125 m 1
 512 512.0078125 l 1
 512 0 l 1
 128 0 l 1
 128 512.0078125 l 1
192.00390625 448.00390625 m 1
 192.00390625 64.00390625 l 1
 448.020507812 64.00390625 l 1
 448.020507812 448.00390625 l 1
 192.00390625 448.00390625 l 1
EndSplineSet
Validated: 1
MultipleSubs2: "CCMP cartouches" t.lipu cart.body
Ligature2: "LIGA basics" l i p u
EndChar

StartChar: t.loje
Encoding: 111 989483 45
GlifName: t.loje
Width: 640
GlyphClass: 1
Flags: W
HStem: 0 64.0039<241.035 398.965> 448.021 63.9795<184.004 440.02>
VStem: 120 64.0039<390.952 448.021> 440.02 63.9805<390.954 448.021>
LayerCount: 2
Fore
SplineSet
120 512.000976562 m 1
 504 512.000976562 l 1
 504 512.000976562 503.999023438 448.008789062 504 448.021484375 c 1
 504 342.057617188 417.973632812 256.015625 312.01171875 256.008789062 c 0
 206.043945312 256.008789062 120 342.053710938 120 448.021484375 c 2
 120 512.000976562 l 1
184.00390625 448.021484375 m 1
 184.00390625 377.375976562 241.366210938 320.012695312 312.01171875 320.012695312 c 0
 382.657226562 320.012695312 440.01953125 377.375976562 440.01953125 448.021484375 c 1
 184.00390625 448.021484375 l 1
320.01171875 319.99609375 m 1
 512 0 l 1
 128 0 l 1
 320.01171875 319.99609375 l 1
320.01171875 195.591796875 m 1
 241.03515625 64.00390625 l 1
 398.96484375 64.00390625 l 1
 320.01171875 195.591796875 l 1
EndSplineSet
Validated: 37
MultipleSubs2: "CCMP cartouches" t.loje cart.body
Ligature2: "LIGA basics" l o j e
EndChar

StartChar: t.lon
Encoding: 112 989484 46
GlifName: t.lon
Width: 640
GlyphClass: 1
Flags: W
HStem: 128 64<96 544> 272.001 96<286.059 353.941>
VStem: 272 96<286.06 353.942>
LayerCount: 2
Fore
SplineSet
96 128 m 1
 96 192 l 1
 544 192 l 1
 544 128 l 1
 96 128 l 1
272 320.000976562 m 0
 272 346.510742188 293.490234375 368.000976562 320 368.000976562 c 0
 346.509765625 368.000976562 368 346.510742188 368 320.000976562 c 0
 368 293.491210938 346.509765625 272.000976562 320 272.000976562 c 0
 293.490234375 272.000976562 272 293.491210938 272 320.000976562 c 0
EndSplineSet
Validated: 1
MultipleSubs2: "CCMP cartouches" t.lon cart.body
Ligature2: "LIGA basics" l o n
EndChar

StartChar: t.luka
Encoding: 113 989485 47
GlifName: t.luka
Width: 640
GlyphClass: 1
Flags: W
HStem: 0 21G<194 272.007 463.992 527.998> 456.005 63.9795<319.354 416.71>
VStem: 208 64.0049<111.584 407.575> 463.992 64.0039<0 407.575>
LayerCount: 2
Fore
SplineSet
368.024414062 519.984375 m 0
 456.41015625 519.984375 528.034179688 448.360351562 528.034179688 359.998046875 c 2
 527.99609375 0 l 1
 463.9921875 0 l 1
 464.030273438 359.998046875 l 2
 464.033203125 413.020507812 421.045898438 456.004882812 368.024414062 456.004882812 c 0
 315.026367188 456.004882812 272.045898438 413.020507812 272.041992188 359.998046875 c 2
 272.004882812 0 l 1
 208 0 l 1
 96.005859375 159.986328125 l 1
 148.422851562 196.705078125 l 1
 208 111.583984375 l 1
 208.038085938 359.998046875 l 2
 208.046875 448.360351562 279.662109375 519.984375 368.024414062 519.984375 c 0
EndSplineSet
Validated: 33
MultipleSubs2: "CCMP cartouches" t.luka cart.body
Ligature2: "LIGA basics" l u k a
EndChar

StartChar: t.lukin
Encoding: 114 989486 48
GlifName: t.lukin
Width: 640
GlyphClass: 1
Flags: W
HStem: 108.205 64.0039<242.094 397.933> 208 96<286.059 353.941> 339.814 64.0039<243.9 396.127>
VStem: 272 96<222.059 289.941>
LayerCount: 2
Fore
SplineSet
272 256 m 0
 272 282.509765625 293.490234375 304 320 304 c 0
 346.509765625 304 368 282.509765625 368 256 c 0
 368 229.490234375 346.509765625 208 320 208 c 0
 293.490234375 208 272 229.490234375 272 256 c 0
320.013671875 403.818359375 m 0
 403.711914062 403.815429688 479.342773438 369.022460938 533.142578125 313.037109375 c 0
 549.6953125 295.809570312 563.984375 276.826171875 576.005859375 256 c 1
 563.983398438 235.181640625 549.694335938 216.20703125 533.142578125 198.986328125 c 0
 479.342773438 143.000976562 403.711914062 108.208007812 320.013671875 108.205078125 c 0
 236.314453125 108.208007812 160.684570312 143.000976562 106.884765625 198.986328125 c 0
 90.32421875 216.206054688 76.02734375 235.180664062 63.9970703125 256 c 1
 76.025390625 276.828125 90.322265625 295.810546875 106.884765625 313.037109375 c 0
 160.684570312 369.022460938 236.314453125 403.815429688 320.013671875 403.818359375 c 0
320.013671875 339.814453125 m 0
 248.462890625 339.66796875 184.543945312 307.161132812 142.127929688 256 c 1
 184.547851562 204.84765625 248.465820312 172.349609375 320.013671875 172.208984375 c 0
 391.561523438 172.349609375 455.479492188 204.84765625 497.899414062 256 c 1
 455.483398438 307.161132812 391.564453125 339.66796875 320.013671875 339.814453125 c 0
EndSplineSet
Validated: 1
MultipleSubs2: "CCMP cartouches" t.lukin cart.body
Ligature2: "LIGA basics" l u k i n
EndChar

StartChar: t.lupa
Encoding: 115 989487 49
GlifName: t.lupa
Width: 640
GlyphClass: 1
Flags: W
HStem: -7.99902 64.0039<262.913 377.107>
VStem: 128.001 64.0039<126.913 512.001> 447.997 64.0039<126.917 512.001>
LayerCount: 2
Fore
SplineSet
320.012695312 -7.9990234375 m 0
 213.96484375 -8.0068359375 127.994140625 77.96484375 128.000976562 184.012695312 c 2
 128.000976562 512.000976562 l 1
 192.004882812 512.000976562 l 1
 192.004882812 184.012695312 l 2
 192.004882812 113.314453125 249.314453125 56.0009765625 320.012695312 56.0048828125 c 0
 390.702148438 56.0126953125 448.000976562 113.32421875 447.997070312 184.012695312 c 2
 447.997070312 512.000976562 l 1
 512.000976562 512.000976562 l 1
 512.000976562 184.012695312 l 2
 512.000976562 77.974609375 426.051757812 -7.9921875 320.012695312 -7.9990234375 c 0
EndSplineSet
Validated: 33
MultipleSubs2: "CCMP cartouches" t.lupa cart.body
Ligature2: "LIGA basics" l u p a
EndChar

StartChar: t.ma
Encoding: 116 989488 50
GlifName: t.ma
Width: 640
GlyphClass: 1
Flags: W
HStem: -8.00195 66.5928<242.48 287.995 351.999 397.514> 224.019 63.9805<122.567 287.995 352.119 517.428> 453.427 66.5928<242.48 287.995 351.999 397.514>
VStem: 55.999 66.5684<178.503 224.019 287.999 333.514> 287.995 64.0039<58.5908 223.899 287.999 453.427> 517.428 66.5684<178.503 224.019 287.999 333.514>
CounterMasks: 1 e0
LayerCount: 2
Fore
SplineSet
319.997070312 520.01953125 m 0
 465.702148438 520.018554688 583.99609375 401.702148438 583.99609375 255.997070312 c 0
 583.995117188 110.291992188 465.702148438 -8.0009765625 319.997070312 -8.001953125 c 0
 174.29296875 -8.0009765625 56 110.291992188 55.9990234375 255.997070312 c 0
 55.9990234375 401.702148438 174.29296875 520.018554688 319.997070312 520.01953125 c 0
287.995117188 453.426757812 m 1
 203.372070312 439.712890625 136.28125 372.622070312 122.567382812 287.999023438 c 1
 287.995117188 287.999023438 l 1
 287.995117188 453.426757812 l 1
351.999023438 453.426757812 m 1
 351.999023438 287.999023438 l 1
 351.999023438 287.999023438 517.231445312 288.1953125 517.427734375 287.999023438 c 1
 503.712890625 372.622070312 436.623046875 439.712890625 351.999023438 453.426757812 c 1
122.567382812 224.018554688 m 1
 136.28125 139.395507812 203.372070312 72.3046875 287.995117188 58.5908203125 c 1
 287.995117188 224.018554688 l 1
 122.567382812 224.018554688 l 1
351.999023438 224.018554688 m 1
 351.999023438 224.018554688 352.1953125 58.7861328125 351.999023438 58.5908203125 c 1
 436.623046875 72.3046875 503.712890625 139.395507812 517.427734375 224.018554688 c 1
 351.999023438 224.018554688 l 1
EndSplineSet
Validated: 33
MultipleSubs2: "CCMP cartouches" t.ma cart.body
Ligature2: "LIGA basics" m a
EndChar

StartChar: t.mama
Encoding: 117 989489 51
GlifName: t.mama
Width: 640
GlyphClass: 1
Flags: W
HStem: -16.0742 64.0762<285.29 354.72> 152.014 55.998<285.051 354.955> 464.004 64.0039<262.94 377.075>
VStem: 127.998 64.0039<277.812 393.658> 203.998 64.0059<65.2525 135.219> 371.992 64.0039<65.2566 135.21> 447.992 64.0059<277.805 393.641>
LayerCount: 2
Fore
SplineSet
320.009765625 528.0078125 m 1
 320.009765625 528.0078125 320.009765625 527.970703125 320.009765625 527.984375 c 1
 425.971679688 527.977539062 511.998046875 441.934570312 511.998046875 335.970703125 c 0
 511.995117188 263.924804688 472.428710938 201.215820312 413.6640625 168.375 c 1
 427.66796875 149.205078125 435.99609375 125.470703125 435.99609375 99.935546875 c 0
 435.99609375 35.91796875 384.025390625 -16.06640625 320.009765625 -16.07421875 c 0
 255.987304688 -16.07421875 203.998046875 35.9130859375 203.998046875 99.935546875 c 0
 204.001953125 125.484375 212.342773438 149.217773438 226.36328125 168.390625 c 1
 167.583007812 201.225585938 128.00390625 263.94140625 127.998046875 335.99609375 c 0
 127.998046875 441.963867188 214.041992188 528.0078125 320.009765625 528.0078125 c 1
320.009765625 464.00390625 m 0
 249.364257812 464.00390625 192.001953125 406.641601562 192.001953125 335.99609375 c 0
 192.010742188 265.358398438 249.370117188 208.01171875 320.009765625 208.01171875 c 0
 390.641601562 208.021484375 447.983398438 265.364257812 447.9921875 335.99609375 c 0
 447.9921875 406.634765625 390.646484375 463.994140625 320.009765625 464.00390625 c 0
320.009765625 152.013671875 m 0
 291.310546875 152.013671875 268.00390625 128.70703125 268.00390625 100.0078125 c 0
 268.00390625 71.30859375 291.310546875 48.001953125 320.009765625 48.001953125 c 0
 348.701171875 48.01171875 371.9921875 71.314453125 371.9921875 100.0078125 c 0
 371.9921875 128.701171875 348.701171875 152.00390625 320.009765625 152.013671875 c 0
EndSplineSet
Validated: 5
MultipleSubs2: "CCMP cartouches" t.mama cart.body
Ligature2: "LIGA basics" m a m a
EndChar

StartChar: t.mani
Encoding: 118 989490 52
GlifName: t.mani
Width: 640
GlyphClass: 1
Flags: W
HStem: 15.999 64.0039<262.34 377.656> 336.019 63.9805<262.341 377.655>
VStem: 95.9717 64.0283<382.958 448.001> 127.989 64.0039<150.349 270.129> 447.985 64.0039<150.352 270.126> 479.972 64.0283<382.958 448.001>
LayerCount: 2
Fore
SplineSet
320.000976562 399.999023438 m 0xd8
 425.958984375 399.9921875 511.982421875 313.96875 511.989257812 208.010742188 c 0
 511.989257812 102.046875 425.963867188 16.0048828125 320.000976562 15.9990234375 c 0
 214.034179688 15.9990234375 127.989257812 102.04296875 127.989257812 208.010742188 c 0
 127.99609375 313.97265625 214.038085938 399.999023438 320.000976562 399.999023438 c 0xd8
320.000976562 336.018554688 m 0
 249.356445312 336.018554688 191.993164062 278.65625 191.993164062 208.010742188 c 0
 191.993164062 137.365234375 249.356445312 80.0029296875 320.000976562 80.0029296875 c 0
 390.638671875 80.01171875 447.985351562 137.37109375 447.985351562 208.010742188 c 0
 447.985351562 278.650390625 390.638671875 336.009765625 320.000976562 336.018554688 c 0
95.9716796875 448.000976562 m 1xe0
 95.9716796875 448.000976562 159.985351562 447.969726562 160 448.000976562 c 1
 160.001953125 404.428710938 177.4453125 364.87109375 205.741210938 336.005859375 c 1
 183.970703125 336.005859375 l 1
 183.970703125 336.005859375 184.151367188 269.91796875 183.970703125 270.018554688 c 0
 130.38671875 310.961914062 95.9736328125 375.422851562 95.9716796875 448.000976562 c 1xe0
479.971679688 448.000976562 m 1xc4
 479.971679688 448.000976562 544.1796875 448.1015625 544 448.000976562 c 0
 543.998046875 375.422851562 509.583984375 310.961914062 456 270.018554688 c 1
 456 336.005859375 l 1
 456 336.005859375 434.215820312 336.037109375 434.23046875 336.005859375 c 1
 462.525390625 364.87109375 479.96875 404.428710938 479.971679688 448.000976562 c 1xc4
EndSplineSet
Validated: 37
MultipleSubs2: "CCMP cartouches" t.mani cart.body
Ligature2: "LIGA basics" m a n i
EndChar

StartChar: t.meli
Encoding: 119 989491 53
GlifName: t.meli
Width: 640
GlyphClass: 1
Flags: W
HStem: 56.001 64.0039<191.989 287.996 352 447.981> 194.942 61.0527<268.874 287.996 352 371.117> 480.01 63.9795<267.127 372.855>
VStem: 143.999 63.9795<314.559 420.861> 287.996 64.0039<-31.998 56.001 120.005 197.483> 431.992 64.0049<314.563 420.861>
LayerCount: 2
Fore
SplineSet
319.998046875 543.989257812 m 0
 417.188476562 543.989257812 495.997070312 465.206054688 495.997070312 367.990234375 c 0
 495.997070312 283.134765625 435.427734375 210.423828125 352 194.942382812 c 1
 352 120.004882812 l 1
 447.981445312 120.004882812 l 1
 447.981445312 56.0009765625 l 1
 352 56.0009765625 l 1
 352 -31.998046875 l 1
 287.99609375 -31.998046875 l 1
 287.99609375 56.0009765625 l 1
 191.989257812 56.0009765625 l 1
 191.989257812 120.004882812 l 1
 287.99609375 120.004882812 l 1
 287.99609375 194.942382812 l 1
 204.543945312 210.350585938 143.999023438 283.134765625 143.999023438 367.990234375 c 0
 143.999023438 465.206054688 222.782226562 543.989257812 319.998046875 543.989257812 c 0
319.998046875 480.009765625 m 0
 258.122070312 480.009765625 207.978515625 429.865234375 207.978515625 367.990234375 c 0
 207.978515625 306.138671875 258.122070312 255.995117188 319.998046875 255.995117188 c 0
 381.848632812 255.995117188 431.9921875 306.138671875 431.9921875 367.990234375 c 0
 431.9921875 429.865234375 381.848632812 480.009765625 319.998046875 480.009765625 c 0
EndSplineSet
Validated: 1
MultipleSubs2: "CCMP cartouches" t.meli cart.body
Ligature2: "LIGA basics" m e l i
EndChar

StartChar: t.mi
Encoding: 120 989492 54
GlifName: t.mi
Width: 640
GlyphClass: 1
Flags: W
HStem: 224 64<275.38 363.759> 448.002 63.998<276.241 363.759>
VStem: 176 64<328.037 410.801> 400 64<324.241 411.759>
LayerCount: 2
Fore
SplineSet
464 368 m 0
 464 288.524414062 399.475585938 224 320 224 c 0
 298.436523438 224 277.848632812 228.826171875 259.4765625 237.3359375 c 1
 282.421875 162.095703125 325.017578125 93.4423828125 383.927734375 38.99609375 c 1
 340.48828125 -8.00390625 l 1
 235.627929688 88.9111328125 176.000976562 225.2109375 176 367.998046875 c 2
 176 368 l 2
 176 447.475585938 240.524414062 512 320 512 c 0
 399.475585938 512 464 447.475585938 464 368 c 0
400 368 m 0
 400 412.153320312 364.153320312 448.001953125 320 448.001953125 c 0
 275.846679688 448.001953125 240 412.153320312 240 368 c 0
 240 323.846679688 275.846679688 288 320 288 c 0
 364.153320312 288 400 323.846679688 400 368 c 0
EndSplineSet
Validated: 1
MultipleSubs2: "CCMP cartouches" t.mi cart.body
Ligature2: "LIGA basics" m i
EndChar

StartChar: t.mije
Encoding: 121 989493 55
GlifName: t.mije
Width: 640
GlyphClass: 1
Flags: W
HStem: 0.0166016 64.0039<187.144 292.873> 288.01 64.0049<187.144 293.601> 448.021 63.9795<352.01 472.011>
VStem: 64.0156 63.9795<123.153 228.873> 352.01 64.0039<123.153 229.603> 511.995 64.0039<288.01 408.012>
LayerCount: 2
Fore
SplineSet
352.009765625 512 m 1
 575.999023438 512 l 1
 575.999023438 288.009765625 l 1
 511.995117188 288.009765625 l 1
 511.995117188 408.01171875 l 1
 385.002929688 275.770507812 l 1
 405.12890625 246.405273438 416.013671875 211.62109375 416.013671875 176.015625 c 0
 416.013671875 78.7998046875 337.206054688 0.0166015625 240.014648438 0.0166015625 c 0
 142.798828125 0.0166015625 64.015625 78.7998046875 64.015625 176.015625 c 0
 64.015625 273.206054688 142.798828125 352.014648438 240.014648438 352.014648438 c 0
 275.62109375 352.014648438 310.404296875 341.081054688 339.74609375 321.00390625 c 1
 472.010742188 448.020507812 l 1
 352.009765625 448.020507812 l 1
 352.009765625 512 l 1
240.014648438 288.009765625 m 0
 178.138671875 288.009765625 127.995117188 237.866210938 127.995117188 176.015625 c 0
 127.995117188 114.1640625 178.138671875 64.0205078125 240.014648438 64.0205078125 c 0
 301.866210938 64.0205078125 352.009765625 114.1640625 352.009765625 176.015625 c 0
 352.009765625 237.866210938 301.866210938 288.009765625 240.014648438 288.009765625 c 0
EndSplineSet
Validated: 1
MultipleSubs2: "CCMP cartouches" t.mije cart.body
Ligature2: "LIGA basics" m i j e
EndChar

StartChar: t.moku
Encoding: 122 989494 56
GlifName: t.moku
Width: 640
GlyphClass: 1
Flags: W
HStem: 0 21G<177 256.004 447.992 511.996> 224.015 95.9746<298.988 405.009> 255.985 31.9609<263.624 440.373> 447.997 64.0039<224.004 479.996>
VStem: 160 64.0039<390.929 447.997> 192 64.0039<106.674 175.537> 447.992 64.0039<0 175.58> 479.996 64.0039<390.927 447.997>
LayerCount: 2
Fore
SplineSet
351.986328125 287.946289062 m 0xb6
 440.373046875 287.946289062 511.99609375 216.37109375 511.99609375 128.0078125 c 2
 511.99609375 0 l 1
 447.9921875 0 l 1
 447.9921875 128.0078125 l 2
 447.9921875 181.030273438 405.008789062 224.014648438 351.986328125 224.014648438 c 0xd6
 298.98828125 224.014648438 256.00390625 181.030273438 256.00390625 128.0078125 c 2
 256.00390625 0 l 1
 192 0 l 1
 95.994140625 128.0078125 l 1
 147.202148438 166.396484375 l 1
 192 106.673828125 l 1
 192 127.959960938 l 2
 192 216.322265625 263.624023438 287.946289062 351.986328125 287.946289062 c 0xb6
160 512.000976562 m 1xb9
 544 512.000976562 l 1
 544 512.000976562 543.98828125 447.985351562 544 447.997070312 c 1
 544 342.029296875 457.956054688 255.985351562 351.98828125 255.985351562 c 0
 246.026367188 255.991210938 160 342.033203125 160 447.997070312 c 2
 160 512.000976562 l 1xb9
224.00390625 447.997070312 m 1
 224.00390625 377.357421875 281.350585938 319.998046875 351.98828125 319.989257812 c 0xd9
 422.633789062 319.989257812 479.99609375 377.3515625 479.99609375 447.997070312 c 1
 224.00390625 447.997070312 l 1
EndSplineSet
Validated: 37
MultipleSubs2: "CCMP cartouches" t.moku cart.body
Ligature2: "LIGA basics" m o k u
EndChar

StartChar: t.moli
Encoding: 123 989495 57
GlifName: t.moli
Width: 640
GlyphClass: 1
Flags: W
HStem: 76.0898 61.1738<188.194 225.958 413.945 452.949> 95.9248 64.0762<210.175 319.903 320 429.727>
LayerCount: 2
Fore
SplineSet
62.84375 419.883789062 m 1x00
 108.1015625 465.1171875 l 1
 175.975585938 397.243164062 l 1
 243.849609375 465.1171875 l 1
 289.107421875 419.883789062 l 1
 221.233398438 351.985351562 l 1
 289.107421875 284.110351562 l 1
 243.849609375 238.853515625 l 1
 175.975585938 306.727539062 l 1
 108.1015625 238.853515625 l 1
 62.84375 284.110351562 l 1
 130.717773438 351.985351562 l 1
 62.84375 419.883789062 l 1x00
350.837890625 419.883789062 m 1
 396.095703125 465.1171875 l 1
 463.969726562 397.243164062 l 1
 531.868164062 465.1171875 l 1
 577.1015625 419.883789062 l 1
 509.227539062 351.985351562 l 1
 577.1015625 284.110351562 l 1
 531.868164062 238.853515625 l 1
 463.969726562 306.727539062 l 1
 396.095703125 238.853515625 l 1
 350.837890625 284.110351562 l 1
 418.711914062 351.985351562 l 1
 350.837890625 419.883789062 l 1
319.903320312 160.000976562 m 2x40
 319.903320312 160.000976562 320 159.897460938 320 160.000976562 c 1x40
 372.397460938 159.969726562 422.963867188 151.946289062 470.576171875 137.263671875 c 1
 470.576171875 137.263671875 451.713867188 76.1796875 451.708984375 76.08984375 c 1x80
 410.043945312 88.91796875 365.799804688 95.9169921875 319.951171875 95.9248046875 c 0x40
 274.102539062 95.9169921875 229.859375 88.91796875 188.194335938 76.08984375 c 1
 188.194335938 76.08984375 169.327148438 137.366210938 169.326171875 137.263671875 c 1x80
 216.938476562 151.946289062 267.505859375 159.969726562 319.903320312 160.000976562 c 2x40
EndSplineSet
Validated: 37
MultipleSubs2: "CCMP cartouches" t.moli cart.body
Ligature2: "LIGA basics" m o l i
EndChar

StartChar: t.monsi
Encoding: 124 989496 58
GlifName: t.monsi
Width: 640
GlyphClass: 1
Flags: W
HStem: 0 64.0039<352.004 480.013> 207.999 96<158.059 225.941> 448.004 64.0039<352.004 480.013>
VStem: 144 96<222.058 289.94> 288 192.013<0 64.0039 448.004 512.008> 288 64.0039<64.0039 448.004>
LayerCount: 2
Fore
SplineSet
480.012695312 512.0078125 m 1xf8
 480.012695312 448.00390625 l 1xf8
 352.00390625 448.00390625 l 1
 352.00390625 64.00390625 l 1xf4
 480.012695312 64.00390625 l 1
 480.012695312 0 l 1
 288 0 l 1
 288 512.0078125 l 1
 480.012695312 512.0078125 l 1xf8
144 255.999023438 m 0
 144 282.508789062 165.490234375 303.999023438 192 303.999023438 c 0
 218.509765625 303.999023438 240 282.508789062 240 255.999023438 c 0
 240 229.489257812 218.509765625 207.999023438 192 207.999023438 c 0
 165.490234375 207.999023438 144 229.489257812 144 255.999023438 c 0
EndSplineSet
Validated: 1
MultipleSubs2: "CCMP cartouches" t.monsi cart.body
Ligature2: "LIGA basics" m o n s i
EndChar

StartChar: t.mu
Encoding: 125 989497 59
GlifName: t.mu
Width: 640
GlyphClass: 1
Flags: W
HStem: -16.0039 64.0039<259.19 380.826> 95.998 96<286.055 353.937> 272.111 63.9316<466.932 506.312> 352.008 64.0039<303.937 342.611> 464.026 63.9805<137.942 213.149 431.45 509.101>
VStem: 48.0029 64.0039<360.494 438.794> 104 64.0049<139.186 260.822> 240.015 63.0605<384.01 438.043> 271.996 96<110.057 177.939> 344.003 62.9648<383.066 438.067> 472.012 64.0039<139.186 260.822> 534.976 64.0518<361.286 438.86>
LayerCount: 2
Fore
SplineSet
320.0078125 416.01171875 m 0xfa20
 439.221679688 416.01171875 536.015625 319.217773438 536.015625 200.00390625 c 0
 536.015625 80.7900390625 439.221679688 -16.00390625 320.0078125 -16.00390625 c 0
 200.793945312 -16.00390625 104 80.7900390625 104 200.00390625 c 0
 104 319.217773438 200.793945312 416.01171875 320.0078125 416.01171875 c 0xfa20
320.0078125 352.0078125 m 0
 236.1171875 352.0078125 168.004882812 283.895507812 168.004882812 200.00390625 c 0
 168.004882812 116.11328125 236.1171875 48 320.0078125 48 c 0
 403.899414062 48 472.01171875 116.11328125 472.01171875 200.00390625 c 0
 472.01171875 283.895507812 403.899414062 352.0078125 320.0078125 352.0078125 c 0
176.010742188 528.006835938 m 1
 175.091796875 527.982421875 l 1
 245.772460938 527.982421875 303.075195312 470.678710938 303.075195312 399.974609375 c 2
 303.075195312 384.009765625 l 1
 184.065429688 328.01171875 l 1
 167.6171875 272.280273438 l 1
 100.83203125 276.610351562 48.0029296875 332.124023438 48.0029296875 399.998046875 c 0xfd
 48.0029296875 470.703125 105.306640625 528.006835938 176.010742188 528.006835938 c 1
472.01171875 528.006835938 m 1xf860
 471.043945312 528.103515625 l 1
 541.723632812 528.103515625 599.02734375 470.799804688 599.02734375 400.119140625 c 0
 599.02734375 329.415039062 541.723632812 272.111328125 471.043945312 272.111328125 c 0
 469.592773438 272.111328125 469.350585938 272.18359375 466.931640625 272.18359375 c 2
 432.317382812 349.104492188 l 1
 443.057617188 340.880859375 456.458007812 336.04296875 470.971679688 336.04296875 c 0
 506.311523438 336.04296875 534.975585938 364.682617188 534.975585938 400.022460938 c 0xf810
 534.975585938 435.38671875 506.311523438 464.026367188 470.971679688 464.026367188 c 0
 435.607421875 464.026367188 406.967773438 435.38671875 406.967773438 400.022460938 c 0
 406.967773438 381.638671875 414.708007812 365.021484375 427.043945312 353.41015625 c 1
 344.002929688 383.06640625 l 1
 344.002929688 399.998046875 l 2
 344.002929688 470.703125 401.306640625 528.006835938 472.01171875 528.006835938 c 1xf860
176.010742188 464.002929688 m 0
 140.646484375 464.002929688 112.006835938 435.362304688 112.006835938 399.998046875 c 0
 112.006835938 364.658203125 140.646484375 336.018554688 176.010742188 336.018554688 c 0
 211.350585938 336.018554688 240.014648438 364.658203125 240.014648438 399.998046875 c 0xfd
 240.014648438 435.362304688 211.350585938 464.002929688 176.010742188 464.002929688 c 0
271.99609375 143.998046875 m 0xf880
 271.99609375 170.5078125 293.486328125 191.998046875 319.99609375 191.998046875 c 0
 346.505859375 191.998046875 367.99609375 170.5078125 367.99609375 143.998046875 c 0
 367.99609375 117.48828125 346.505859375 95.998046875 319.99609375 95.998046875 c 0
 293.486328125 95.998046875 271.99609375 117.48828125 271.99609375 143.998046875 c 0xf880
EndSplineSet
Validated: 5
MultipleSubs2: "CCMP cartouches" t.mu cart.body
Ligature2: "LIGA basics" m u
EndChar

StartChar: t.mun
Encoding: 126 989498 60
GlifName: t.mun
Width: 640
GlyphClass: 1
Flags: W
HStem: -16.001 64<238.56 384.957> 463.999 64<238.559 384.957>
VStem: 280 64<198.262 313.737> 520 64<183.042 328.956>
LayerCount: 2
Fore
SplineSet
312 527.999023438 m 0
 462.12109375 527.999023438 584 406.120117188 584 255.999023438 c 0
 584 105.877929688 462.12109375 -16.0009765625 312 -16.0009765625 c 0
 235.044921875 -16.0009765625 165.500976562 15.9609375 116.001953125 67.4013671875 c 0
 86.8310546875 97.724609375 64.6845703125 134.86328125 52.017578125 176.090820312 c 1
 74.6904296875 147.71875 109.190429688 129.276367188 148.005859375 128.061523438 c 0
 149.353515625 128.01953125 150.641601562 127.999023438 152 127.999023438 c 0
 222.645507812 127.999023438 280 185.354492188 280 255.999023438 c 0
 280 326.64453125 222.645507812 383.999023438 152 383.999023438 c 0
 150.641601562 383.999023438 149.348632812 383.979492188 148 383.936523438 c 0
 109.182617188 382.721679688 74.6806640625 364.27734375 52.0078125 335.901367188 c 1
 64.6767578125 377.130859375 86.8251953125 414.26953125 116 444.592773438 c 0
 165.499023438 496.036132812 235.043945312 527.999023438 312 527.999023438 c 0
312 463.999023438 m 0
 275.853515625 463.999023438 241.62890625 454.62890625 212 438.383789062 c 1
 288.635742188 413.172851562 344 341.02734375 344 255.999023438 c 0
 343.999023438 170.973632812 288.635742188 98.830078125 212.001953125 73.6181640625 c 1
 241.629882812 57.3720703125 275.853515625 48.0009765625 312 47.9990234375 c 0
 426.797851562 48 520 141.201171875 520 255.999023438 c 0
 520 370.797851562 426.797851562 463.999023438 312 463.999023438 c 0
EndSplineSet
Validated: 1
MultipleSubs2: "CCMP cartouches" t.mun cart.body
Ligature2: "LIGA basics" m u n
EndChar

StartChar: t.musi
Encoding: 127 989499 61
GlifName: t.musi
Width: 640
GlyphClass: 1
Flags: W
HStem: -32 64.0039<252.984 387.135> 288.044 63.9561<158.3 197.744 442.529 481.601> 480.008 64.0039<121.884 198.3 441.207 518.783>
VStem: 31.9443 64.0049<376.554 454.794> 79.9844 64.1484<142.331 276.46> 223.957 64.2695<377.526 454.794> 352.037 63.9072<377.497 454.794> 496.131 63.8594<142.331 276.423> 543.953 64.1006<376.552 454.794>
LayerCount: 2
Fore
SplineSet
159.953125 544.01171875 m 2xf6
 160.243164062 544.01171875 l 2
 230.922851562 544.01171875 288.2265625 486.708007812 288.2265625 416.00390625 c 0
 288.2265625 346.412109375 232.689453125 290.462890625 163.484375 288.043945312 c 1
 151.208984375 264.077148438 144.1640625 236.752929688 144.1328125 208.002929688 c 0
 144.133789062 110.8671875 222.99609375 32.0048828125 320.131835938 32.00390625 c 0
 417.268554688 32.0048828125 496.130859375 110.8671875 496.130859375 208.002929688 c 0xef
 496.099609375 236.752929688 489.055664062 264.077148438 476.780273438 288.043945312 c 1
 407.599609375 289.786132812 352.037109375 346.412109375 352.037109375 416.00390625 c 0
 352.037109375 486.708007812 409.340820312 544.01171875 480.045898438 544.01171875 c 0
 550.725585938 544.01171875 608.053710938 486.708007812 608.053710938 416.00390625 c 0xe680
 608.053710938 367.142578125 580.647460938 324.642578125 540.397460938 303.114257812 c 1
 552.931640625 274.02734375 559.990234375 241.80078125 559.990234375 208.138671875 c 2
 559.990234375 208.002929688 l 2
 559.990234375 75.54296875 452.446289062 -32 319.987304688 -32 c 0
 187.52734375 -32 79.984375 75.54296875 79.984375 208.002929688 c 0xef
 79.984375 208.047851562 80.09765625 208.267578125 80.09765625 208.3125 c 0
 80.09765625 241.974609375 87.04296875 274.02734375 99.5771484375 303.114257812 c 1
 59.326171875 324.666992188 31.9443359375 367.142578125 31.9443359375 416.00390625 c 0
 31.9443359375 486.708007812 89.248046875 544.01171875 159.953125 544.01171875 c 2xf6
159.953125 480.0078125 m 0
 124.588867188 480.0078125 95.94921875 451.34375 95.94921875 416.00390625 c 0xf6
 95.94921875 380.6640625 124.588867188 352 159.953125 352 c 0
 195.29296875 352 223.95703125 380.6640625 223.95703125 416.00390625 c 0
 223.95703125 451.34375 195.29296875 480.0078125 159.953125 480.0078125 c 0
479.94921875 480.0078125 m 0
 444.608398438 480.0078125 415.944335938 451.34375 415.944335938 416.00390625 c 0
 415.944335938 380.6640625 444.608398438 352 479.94921875 352 c 0
 515.2890625 352 543.953125 380.6640625 543.953125 416.00390625 c 0xe680
 543.953125 451.34375 515.2890625 480.0078125 479.94921875 480.0078125 c 0
EndSplineSet
Validated: 1
MultipleSubs2: "CCMP cartouches" t.musi cart.body
Ligature2: "LIGA basics" m u s i
EndChar

StartChar: t.mute
Encoding: 128 989500 62
GlifName: t.mute
Width: 640
GlyphClass: 1
Flags: W
HStem: -0.000976562 21G<144.001 208.001 288.001 352.001 432.001 496.001>
VStem: 144.001 64<-0.000976562 511.999> 288.001 64<-0.000976562 511.999> 432.001 64<0 512>
CounterMasks: 1 70
LayerCount: 2
Fore
SplineSet
288.000976562 -0.0009765625 m 1
 288.000976562 511.999023438 l 1
 352.000976562 511.999023438 l 1
 352.000976562 -0.0009765625 l 1
 288.000976562 -0.0009765625 l 1
144.000976562 -0.0009765625 m 1
 144.000976562 511.999023438 l 1
 208.000976562 511.999023438 l 1
 208.000976562 -0.0009765625 l 1
 144.000976562 -0.0009765625 l 1
432.000976562 0 m 1
 432.000976562 512 l 1
 496.000976562 512 l 1
 496.000976562 0 l 1
 432.000976562 0 l 1
EndSplineSet
Validated: 1
MultipleSubs2: "CCMP cartouches" t.mute cart.body
Ligature2: "LIGA basics" m u t e
EndChar

StartChar: t.nanpa
Encoding: 129 989501 63
GlifName: t.nanpa
Width: 640
GlyphClass: 1
Flags: W
HStem: 0 21G<192 256 384 448> 128.001 64<64 576> 320.001 64<64 576>
VStem: 192 64<0 512> 384 64<0.000976562 512.001>
LayerCount: 2
Fore
SplineSet
192 0 m 1
 192 512 l 1
 256 512 l 1
 256 0 l 1
 192 0 l 1
384 0.0009765625 m 1
 384 512.000976562 l 1
 448 512.000976562 l 1
 448 0.0009765625 l 1
 384 0.0009765625 l 1
64 384.000976562 m 1
 576 384.000976562 l 1
 576 320.000976562 l 1
 64 320.000976562 l 1
 64 384.000976562 l 1
64 192.000976562 m 1
 576 192.000976562 l 1
 576 128.000976562 l 1
 64 128.000976562 l 1
 64 192.000976562 l 1
EndSplineSet
Validated: 5
MultipleSubs2: "CCMP cartouches" t.nanpa cart.body
Ligature2: "LIGA basics" n a n p a
EndChar

StartChar: t.nasa
Encoding: 130 989502 64
GlifName: t.nasa
Width: 640
GlyphClass: 1
Flags: W
HStem: -0.00292969 21G<151.834 207.141> 64.001 64<326.905 441.095> 320.001 64<281.212 358.788> 448.001 64<249.758 390.242>
VStem: 64 64<175.466 326.084> 192 64<198.906 294.064> 384 64<216.667 294.789> 512.002 63.998<198.905 326.084>
LayerCount: 2
Fore
SplineSet
576 256.000976562 m 0
 575.999023438 149.9609375 490.0390625 64 384 64.0009765625 c 0
 277.9609375 64.0009765625 192 149.961914062 192 256.000976562 c 0
 192 326.693359375 249.307617188 384.000976562 320 384.000976562 c 0
 390.692382812 384 448 326.693359375 448 256.000976562 c 0
 448 222.052734375 434.513671875 189.495117188 410.509765625 165.491210938 c 1
 365.255859375 210.745117188 l 1
 377.2578125 222.747070312 384 239.026367188 384 256.000976562 c 0
 384 291.346679688 355.345703125 320.000976562 320 320.000976562 c 0
 284.653320312 320.000976562 255.999023438 291.346679688 256 256.000976562 c 0
 256 185.30859375 313.306640625 128.000976562 384 128.000976562 c 0
 454.692382812 128.000976562 512 185.30859375 512 256.000976562 c 1
 512.001953125 256.000976562 l 1
 512.000976562 362.040039062 426.0390625 448.000976562 320 448.000976562 c 0
 213.9609375 448 128 362.0390625 128 256.000976562 c 0
 128 175.387695312 165.970703125 99.4833984375 230.48046875 51.1416015625 c 1
 192.15234375 -0.0029296875 l 1
 111.515625 60.3994140625 64.037109375 155.25 64 256.000976562 c 0
 63.9990234375 397.385742188 178.615234375 512.000976562 320 512.000976562 c 0
 461.384765625 512.000976562 576 397.385742188 576 256.000976562 c 0
EndSplineSet
Validated: 33
MultipleSubs2: "CCMP cartouches" t.nasa cart.body
Ligature2: "LIGA basics" n a s a
EndChar

StartChar: t.nasin
Encoding: 131 989503 65
GlifName: t.nasin
Width: 640
GlyphClass: 1
Flags: W
HStem: 0 21G<288.02 352>
VStem: 288.02 63.9805<0 296.001 384 512.008>
LayerCount: 2
Fore
SplineSet
288.01953125 512.0078125 m 1
 352 512.0078125 l 1
 352 384 l 1
 528.022460938 208.000976562 l 1
 480.0078125 160.009765625 l 1
 352 296.000976562 l 1
 352 0 l 1
 288.01953125 0 l 1
 288.01953125 296.000976562 l 1
 160.01171875 160.009765625 l 1
 112.020507812 208.000976562 l 1
 288.01953125 384 l 1
 288.01953125 512.0078125 l 1
EndSplineSet
Validated: 1
MultipleSubs2: "CCMP cartouches" t.nasin cart.body
Ligature2: "LIGA basics" n a s i n
EndChar

StartChar: t.nena
Encoding: 132 989504 66
GlifName: t.nena
Width: 640
GlyphClass: 1
Flags: W
HStem: -0.000976562 21G<128 192.004 447.996 512> 448.003 64.0039<262.333 377.649>
VStem: 128 64.0039<319.995 377.063> 447.996 64.0039<0.23096 377.065>
LayerCount: 2
Fore
SplineSet
319.987304688 512.006835938 m 0
 425.955078125 512.006835938 512 425.962890625 512 319.995117188 c 2
 512 -0.0009765625 l 1
 447.99609375 -0.0009765625 l 1
 447.99609375 -0.0009765625 447.987304688 320.002929688 447.99609375 319.995117188 c 1
 447.99609375 390.640625 390.6328125 448.002929688 319.987304688 448.002929688 c 0
 249.350585938 447.994140625 192.00390625 390.634765625 192.00390625 319.995117188 c 2
 192.00390625 -0.0009765625 l 1
 128 -0.0009765625 l 1
 128 -0.0009765625 128 320.006835938 128 319.995117188 c 1
 128 425.958984375 214.025390625 512.000976562 319.987304688 512.006835938 c 0
EndSplineSet
Validated: 37
MultipleSubs2: "CCMP cartouches" t.nena cart.body
Ligature2: "LIGA basics" n e n a
EndChar

StartChar: t.ni
Encoding: 133 989505 67
GlifName: t.ni
Width: 640
GlyphClass: 1
Flags: W
VStem: 287.998 64.0039<112.007 512.02>
LayerCount: 2
Fore
SplineSet
287.998046875 512.01953125 m 1
 352.001953125 512.01953125 l 1
 352.001953125 112.006835938 l 1
 480.009765625 248.021484375 l 1
 528.000976562 200.005859375 l 1
 320 -7.9951171875 l 1
 111.999023438 200.005859375 l 1
 159.989257812 248.021484375 l 1
 287.998046875 112.006835938 l 1
 287.998046875 512.01953125 l 1
EndSplineSet
Validated: 1
MultipleSubs2: "CCMP cartouches" t.ni cart.body
Ligature2: "LIGA basics" n i
EndChar

StartChar: t.nimi
Encoding: 134 989506 68
GlifName: t.nimi
Width: 640
GlyphClass: 1
Flags: W
HStem: 128.008 63.9805<133.908 160.002 160.234 479.766 479.998 506.092> 319.996 64.0039<133.908 160.002 160.234 506.092>
VStem: 63.9961 64.0039<197.896 223.99 224.037 287.948 287.994 314.088> 512 64.0039<197.896 223.99 224.037 287.948 287.994 314.088>
LayerCount: 2
Fore
SplineSet
160.001953125 384 m 2
 160.001953125 384 480.00390625 383.994140625 479.998046875 384 c 1
 532.981445312 384 576.00390625 340.977539062 576.00390625 287.994140625 c 2
 576.00390625 287.994140625 575.998046875 223.989257812 576.00390625 223.990234375 c 1
 575.994140625 171.014648438 532.975585938 128.0078125 479.998046875 128.0078125 c 2
 479.998046875 128.0078125 159.99609375 128.008789062 160.001953125 128.0078125 c 1
 107.024414062 128.0078125 64.005859375 171.014648438 63.99609375 223.990234375 c 2
 63.99609375 223.990234375 64.001953125 288 63.99609375 287.994140625 c 1
 63.99609375 340.977539062 107.018554688 384 160.001953125 384 c 2
160.001953125 319.99609375 m 2
 142.340820312 319.99609375 128 305.655273438 128 287.994140625 c 2
 128 287.994140625 128.001953125 223.98828125 128 223.990234375 c 1
 128 206.328125 142.340820312 191.98828125 160.001953125 191.98828125 c 2
 160.001953125 191.98828125 480 191.990234375 479.998046875 191.98828125 c 1
 497.659179688 191.98828125 512 206.328125 512 223.990234375 c 2
 512 223.990234375 511.998046875 287.99609375 512 287.994140625 c 1
 512 305.655273438 497.659179688 319.99609375 479.998046875 319.99609375 c 2
 160.001953125 319.99609375 l 2
EndSplineSet
Validated: 33
MultipleSubs2: "CCMP cartouches" t.nimi cart.body
Ligature2: "LIGA basics" n i m i
EndChar

StartChar: t.noka
Encoding: 135 989507 69
GlifName: t.noka
Width: 640
GlyphClass: 1
Flags: W
HStem: -0.0078125 64.0039<192.003 442.827> 223.982 64.0039<351.989 442.827>
VStem: 127.999 64.0039<63.9961 512> 288.01 63.9795<287.986 512> 479.997 64.0039<100.218 187.766>
LayerCount: 2
Fore
SplineSet
127.999023438 512 m 1
 192.002929688 512 l 1
 192.002929688 63.99609375 l 1
 400.00390625 63.99609375 l 2
 444.173828125 63.99609375 479.997070312 99.8203125 479.997070312 143.989257812 c 0
 479.997070312 188.182617188 444.173828125 223.982421875 400.00390625 223.982421875 c 2
 288.009765625 223.982421875 l 1
 288.009765625 512 l 1
 351.989257812 512 l 1
 351.989257812 287.986328125 l 1
 400.00390625 287.986328125 l 2
 479.538085938 287.986328125 544.000976562 223.522460938 544.000976562 143.989257812 c 0
 544.000976562 64.4560546875 479.538085938 -0.0078125 400.00390625 -0.0078125 c 2
 127.999023438 -0.0078125 l 1
 127.999023438 512 l 1
EndSplineSet
Validated: 1
MultipleSubs2: "CCMP cartouches" t.noka cart.body
Ligature2: "LIGA basics" n o k a
EndChar

StartChar: t.o
Encoding: 136 989508 70
GlifName: t.o
Width: 640
GlyphClass: 1
Flags: W
HStem: -7.99805 64.0039<281.209 358.784> 184.014 64.0039<281.209 358.784>
VStem: 191.991 64.0039<81.2243 158.8> 287.999 64<304.002 512.002> 384.004 63.9795<81.2243 158.8>
LayerCount: 2
Fore
SplineSet
287.999023438 304.001953125 m 1
 287.999023438 512.001953125 l 1
 351.999023438 512.001953125 l 1
 351.999023438 304.001953125 l 1
 287.999023438 304.001953125 l 1
320 248.017578125 m 0
 390.6796875 248.017578125 447.983398438 190.713867188 447.983398438 120.009765625 c 0
 447.983398438 49.330078125 390.6796875 -7.998046875 320 -7.998046875 c 0
 249.294921875 -7.998046875 191.991210938 49.330078125 191.991210938 120.009765625 c 0
 191.991210938 190.713867188 249.294921875 248.017578125 320 248.017578125 c 0
320 184.013671875 m 0
 284.659179688 184.013671875 255.995117188 155.349609375 255.995117188 120.009765625 c 0
 255.995117188 84.669921875 284.659179688 56.005859375 320 56.005859375 c 0
 355.33984375 56.005859375 384.00390625 84.669921875 384.00390625 120.009765625 c 0
 384.00390625 155.349609375 355.33984375 184.013671875 320 184.013671875 c 0
EndSplineSet
Validated: 1
MultipleSubs2: "CCMP cartouches" t.o cart.body
Ligature2: "LIGA basics" o
EndChar

StartChar: t.olin
Encoding: 137 989509 71
GlifName: t.olin
Width: 640
GlyphClass: 1
Flags: W
HStem: 288.006 63.9941<200.293 260.33 379.711 439.928> 488 64<185.228 260.226 379.056 454.876>
VStem: 96 64.2334<184.251 263.491 383.932 462.772> 480.01 63.9902<184.259 263.51 384.297 462.773>
LayerCount: 2
Fore
SplineSet
224 552 m 2
 262 552 297 523 320 496 c 1
 344 523 378 552 416 552 c 0
 487 552 544 495 544 424 c 0
 544 387 529 354 503 330 c 2
 496 324 l 1
 525 300 544 264 544 224 c 0
 544 187 528 154 503 130 c 2
 320 -40 l 1
 137 130 l 2
 112 154 96 187 96 224 c 0
 96 264 115 300 144 324 c 1
 137 330 l 2
 112 354 96 387 96 424 c 0
 96 495 153 552 224 552 c 2
224 488 m 0
 189 488 160 459 160 424 c 0
 160 405 168 389 180 377 c 2
 208 351 l 2
 214 352 219 352 224 352 c 0
 262 352 297 323 320 296 c 1
 343 323 378 352 416 352 c 0
 421 352 426.575195312 351.682617188 431.727539062 351.052734375 c 2
 432 351 l 1
 459.790039062 377.1484375 l 2
 472.368164062 388.831054688 480 406 480 424 c 0
 480 459 451.444335938 488.005859375 416.104492188 488.005859375 c 0
 380.763671875 488.005859375 336.0625 440.015625 320.09765625 408.013671875 c 1
 304.109375 440.015625 259 488 224 488 c 0
224.114257812 288.005859375 m 0
 188.805664062 287.939453125 160.233398438 259.30078125 160.233398438 224.001953125 c 0
 160.233398438 205.497070312 167.973632812 188.733398438 180.551757812 177.123046875 c 2
 320.12109375 47.373046875 l 1
 459.69140625 177.123046875 l 2
 472.270507812 188.805664062 480.009765625 205.375976562 480.009765625 224.001953125 c 0
 480.009765625 259.341796875 451.346679688 288.005859375 416.006835938 288.005859375 c 0
 380.666015625 288.005859375 335.96484375 240.013671875 320.000976562 208.01171875 c 1
 304.026367188 239.984375 259.438476562 287.919921875 224.114257812 288.005859375 c 0
EndSplineSet
Validated: 5
MultipleSubs2: "CCMP cartouches" t.olin cart.body
LCarets2: 3 0 0 0
Ligature2: "LIGA basics" o l i n
EndChar

StartChar: t.ona
Encoding: 138 989510 72
GlifName: t.ona
Width: 640
GlyphClass: 1
Flags: W
HStem: 112 64<400.036 482.8> 336 64<396.24 483.758>
VStem: 295.999 64<211.38 299.759> 520.001 63.998<212.241 299.759>
LayerCount: 2
Fore
SplineSet
439.999023438 400 m 0
 519.474609375 400 583.999023438 335.475585938 583.999023438 256 c 0
 583.999023438 176.524414062 519.474609375 112 439.999023438 112 c 2
 439.997070312 112 l 2
 297.208984375 112.000976562 160.909179688 171.627929688 63.9951171875 276.48828125 c 1
 110.995117188 319.927734375 l 1
 165.44140625 261.017578125 234.09375 218.421875 309.334960938 195.4765625 c 1
 300.825195312 213.848632812 295.999023438 234.436523438 295.999023438 256 c 0
 295.999023438 335.475585938 360.5234375 400 439.999023438 400 c 0
439.999023438 336 m 0
 395.845703125 336 359.999023438 300.153320312 359.999023438 256 c 0
 359.999023438 211.846679688 395.845703125 176 439.999023438 176 c 0
 484.15234375 176 520.000976562 211.846679688 520.000976562 256 c 0
 520.000976562 300.153320312 484.15234375 336 439.999023438 336 c 0
EndSplineSet
Validated: 1
MultipleSubs2: "CCMP cartouches" t.ona cart.body
Ligature2: "LIGA basics" o n a
EndChar

StartChar: t.open
Encoding: 139 989511 73
GlifName: t.open
Width: 640
GlyphClass: 1
Flags: W
HStem: 0.000976562 64.0039<192.003 447.995> 160.017 64<143.959 495.959>
VStem: 127.999 64.0039<64.0049 160.017 224.017 511.984> 143.959 48.0439<160.017 224.017> 447.995 64.0039<64.0049 160.017 224.017 511.984> 447.995 47.9639<160.017 224.017>
LayerCount: 2
Fore
SplineSet
143.958984375 160.016601562 m 1xd4
 143.958984375 224.016601562 l 1
 495.958984375 224.016601562 l 1
 495.958984375 160.016601562 l 1
 143.958984375 160.016601562 l 1xd4
127.999023438 511.984375 m 1xe8
 192.002929688 511.984375 l 1
 192.002929688 64.0048828125 l 1
 447.995117188 64.0048828125 l 1
 447.995117188 511.984375 l 1
 511.999023438 511.984375 l 1
 511.999023438 0.0009765625 l 1
 127.999023438 0.0009765625 l 1
 127.999023438 511.984375 l 1xe8
EndSplineSet
Validated: 5
MultipleSubs2: "CCMP cartouches" t.open cart.body
Ligature2: "LIGA basics" o p e n
EndChar

StartChar: t.pakala
Encoding: 140 989512 74
GlifName: t.pakala
Width: 640
GlyphClass: 1
Flags: W
HStem: -0.0078125 64.0039<160.004 246.286 320.015 480> 224.006 63.9805<302.284 337.721> 447.996 64.0039<160.004 320.015 393.718 480>
VStem: 96 64.0039<63.9961 447.996> 480 64.0039<63.9961 447.996>
CounterMasks: 1 e0
LayerCount: 2
Fore
SplineSet
96 512 m 1
 544.00390625 512 l 1
 544.00390625 -0.0078125 l 1
 96 -0.0078125 l 1
 96 512 l 1
160.00390625 447.99609375 m 1
 160.00390625 63.99609375 l 1
 246.286132812 63.99609375 l 1
 337.720703125 224.005859375 l 1
 192.005859375 224.005859375 l 1
 320.014648438 447.99609375 l 1
 160.00390625 447.99609375 l 1
393.717773438 447.99609375 m 1
 302.284179688 287.986328125 l 1
 448.022460938 287.986328125 l 1
 320.014648438 63.99609375 l 1
 480 63.99609375 l 1
 480 447.99609375 l 1
 393.717773438 447.99609375 l 1
EndSplineSet
Validated: 1
MultipleSubs2: "CCMP cartouches" t.pakala cart.body
Ligature2: "LIGA basics" p a k a l a
EndChar

StartChar: t.pali
Encoding: 141 989513 75
GlifName: t.pali
Width: 640
GlyphClass: 1
Flags: W
HStem: 0.000976562 21G<177.004 256.012 447.999 512.003> 223.99 80.0322<307.844 396.159> 240.019 47.9521<272.519 431.465> 464.009 64.0039<309.191 394.791>
VStem: 192.007 64.0049<106.674 175.548> 207.995 64.0039<340.261 427.771> 432.009 63.9795<340.26 427.772> 447.999 64.0039<0.000976562 175.57>
LayerCount: 2
Fore
SplineSet
351.993164062 287.970703125 m 0xb9
 440.35546875 287.970703125 512.002929688 216.37109375 512.002929688 127.984375 c 2
 512.002929688 0.0009765625 l 1
 447.999023438 0.0009765625 l 1
 447.999023438 127.984375 l 2
 447.999023438 181.006835938 405.015625 223.990234375 351.993164062 223.990234375 c 0xd9
 298.970703125 223.990234375 256.01171875 181.006835938 256.01171875 127.984375 c 2
 256.01171875 0.0009765625 l 1
 192.006835938 0.0009765625 l 1
 96.0009765625 127.984375 l 1
 147.208984375 166.396484375 l 1
 192.006835938 106.673828125 l 1
 192.006835938 127.959960938 l 2
 192.006835938 216.346679688 263.630859375 287.970703125 351.993164062 287.970703125 c 0xb9
351.991210938 528.012695312 m 0
 431.46484375 528.010742188 495.987304688 463.489257812 495.98828125 384.015625 c 0
 495.987304688 304.541992188 431.46484375 240.020507812 351.991210938 240.018554688 c 0
 272.518554688 240.020507812 207.99609375 304.541992188 207.995117188 384.015625 c 0xb6
 207.99609375 463.489257812 272.518554688 528.010742188 351.991210938 528.012695312 c 0
351.991210938 464.008789062 m 2
 307.84375 464.004882812 272.002929688 428.163085938 271.999023438 384.015625 c 0
 272.002929688 339.868164062 307.84375 304.026367188 351.991210938 304.022460938 c 2
 352.008789062 304.022460938 l 2xd6
 396.159179688 304.022460938 432.004882812 339.866210938 432.008789062 384.015625 c 0
 432.004882812 428.166015625 396.16015625 464.008789062 352.008789062 464.008789062 c 2
 351.991210938 464.008789062 l 2
EndSplineSet
Validated: 5
MultipleSubs2: "CCMP cartouches" t.pali cart.body
Ligature2: "LIGA basics" p a l i
EndChar

StartChar: t.palisa
Encoding: 142 989514 76
GlifName: t.palisa
Width: 640
GlyphClass: 1
Flags: W
HStem: -7.99902 64.0039<293.903 346.099> 455.997 64.0039<293.902 346.098>
VStem: 223.995 64.0039<61.9088 450.093> 352.003 64.0039<61.9088 450.093>
LayerCount: 2
Fore
SplineSet
320 520.000976562 m 0
 373.024414062 520.004882812 416.009765625 477.01953125 416.006835938 423.995117188 c 2
 416.006835938 88.0078125 l 2
 416.009765625 34.9833984375 373.024414062 -8.001953125 320.000976562 -7.9990234375 c 0
 266.9765625 -8.001953125 223.991210938 34.9833984375 223.995117188 88.0078125 c 2
 223.994140625 423.995117188 l 2
 223.991210938 477.01953125 266.9765625 520.004882812 320 520.000976562 c 0
320 455.997070312 m 0
 302.325195312 455.998046875 287.997070312 441.669921875 287.998046875 423.995117188 c 2
 287.999023438 88.0078125 l 2
 287.998046875 70.3330078125 302.326171875 56.00390625 320.000976562 56.0048828125 c 0
 337.67578125 56.00390625 352.00390625 70.3330078125 352.002929688 88.0078125 c 2
 352.001953125 423.995117188 l 2
 352.002929688 441.669921875 337.674804688 455.998046875 320 455.997070312 c 0
EndSplineSet
Validated: 33
MultipleSubs2: "CCMP cartouches" t.palisa cart.body
Ligature2: "LIGA basics" p a l i s a
EndChar

StartChar: t.pan
Encoding: 143 989515 77
GlifName: t.pan
Width: 640
GlyphClass: 1
Flags: W
LayerCount: 2
Fore
SplineSet
227.35546875 206.206054688 m 1
 319.999023438 71.9814453125 l 1
 412.666992188 206.206054688 l 1
 463.99609375 167.98828125 l 1
 319.999023438 -24 l 1
 176.001953125 167.98828125 l 1
 227.35546875 206.206054688 l 1
227.35546875 366.206054688 m 1
 319.999023438 232.005859375 l 1
 412.666992188 366.206054688 l 1
 463.99609375 328.01171875 l 1
 319.999023438 136 l 1
 176.001953125 328.01171875 l 1
 227.35546875 366.206054688 l 1
227.35546875 526.20703125 m 1
 319.999023438 392.005859375 l 1
 412.666992188 526.20703125 l 1
 463.99609375 487.98828125 l 1
 319.999023438 296 l 1
 176.002929688 487.98828125 l 1
 227.35546875 526.20703125 l 1
EndSplineSet
Validated: 1
MultipleSubs2: "CCMP cartouches" t.pan cart.body
Ligature2: "LIGA basics" p a n
EndChar

StartChar: t.pana
Encoding: 144 989516 78
GlifName: t.pana
Width: 640
GlyphClass: 1
Flags: W
HStem: 0 21G<177 256.004 448.017 511.996> 255.992 64.0039<303.33 400.69>
VStem: 192 64.0039<106.674 207.586> 320 64.0049<384.001 527.998> 448.017 63.9795<0 207.586>
LayerCount: 2
Fore
SplineSet
320 527.998046875 m 1
 384.004882812 527.998046875 l 1
 384.004882812 384.000976562 l 1
 320 384.000976562 l 1
 320 527.998046875 l 1
487.322265625 502.517578125 m 1
 543.97265625 472.764648438 l 1
 477.017578125 345.2890625 l 1
 420.3671875 375.041992188 l 1
 487.322265625 502.517578125 l 1
216.647460938 502.517578125 m 1
 283.602539062 375.041992188 l 1
 226.927734375 345.2890625 l 1
 159.97265625 472.764648438 l 1
 216.647460938 502.517578125 l 1
352.010742188 319.99609375 m 0
 440.373046875 319.99609375 511.99609375 248.372070312 511.99609375 160.009765625 c 2
 511.99609375 0 l 1
 448.016601562 0 l 1
 448.016601562 160.009765625 l 2
 448.016601562 213.0078125 405.032226562 255.9921875 352.010742188 255.9921875 c 0
 298.98828125 255.9921875 256.00390625 213.0078125 256.00390625 160.009765625 c 2
 256.00390625 0 l 1
 192 0 l 1
 95.994140625 128.0078125 l 1
 147.202148438 166.396484375 l 1
 192 106.673828125 l 1
 192 160.009765625 l 2
 192 248.372070312 263.6484375 319.99609375 352.010742188 319.99609375 c 0
EndSplineSet
Validated: 1
MultipleSubs2: "CCMP cartouches" t.pana cart.body
Ligature2: "LIGA basics" p a n a
EndChar

StartChar: t.pi
Encoding: 145 989517 79
GlifName: t.pi
Width: 640
GlyphClass: 1
Flags: W
HStem: 32.0029 64<176 528>
VStem: 112 64<96.0029 480.003>
LayerCount: 2
Fore
SplineSet
112 480.002929688 m 1
 176 480.002929688 l 1
 176 96.0029296875 l 1
 528 96.0029296875 l 1
 528 32.0029296875 l 1
 112 32.0029296875 l 1
 112 480.002929688 l 1
EndSplineSet
Validated: 1
MultipleSubs2: "CCMP cartouches" t.pi cart.body
Ligature2: "LIGA basics" p i
EndChar

StartChar: t.pilin
Encoding: 146 989518 80
GlifName: t.pilin
Width: 640
GlyphClass: 1
Flags: W
HStem: -0.000976562 21G<303.855 336.145> 448.003 63.9805<164.232 242.37 397.628 475.776>
VStem: 64.0078 64.0283<323.224 411.767> 512.012 63.9805<323.575 411.767>
LayerCount: 2
Fore
SplineSet
208.004882812 511.983398438 m 0
 253.23828125 511.983398438 293.609375 472.627929688 320 439.997070312 c 1
 346.389648438 472.627929688 386.76171875 511.983398438 431.995117188 511.983398438 c 0
 511.528320312 511.983398438 575.9921875 447.51953125 575.9921875 367.986328125 c 0
 575.9921875 335.766601562 565.130859375 304.465820312 545.295898438 279.091796875 c 2
 320 -0.0009765625 l 1
 94.7041015625 279.091796875 l 2
 74.892578125 304.465820312 64.0078125 335.766601562 64.0078125 367.986328125 c 0
 64.0078125 447.51953125 128.471679688 511.983398438 208.004882812 511.983398438 c 0
208.004882812 448.002929688 m 0
 163.811523438 448.002929688 128.036132812 412.1796875 128.036132812 367.986328125 c 0
 128.036132812 350.0859375 133.841796875 332.646484375 144.96875 318.616210938 c 2
 319.903320312 95.6669921875 l 1
 494.837890625 318.616210938 l 2
 505.96484375 332.694335938 512.01171875 350.0859375 512.01171875 367.986328125 c 0
 512.01171875 412.1796875 476.188476562 448.002929688 431.995117188 448.002929688 c 0
 387.826171875 448.002929688 335.96484375 367.986328125 320 335.984375 c 1
 304.010742188 367.986328125 252.173828125 448.002929688 208.004882812 448.002929688 c 0
EndSplineSet
Validated: 1
MultipleSubs2: "CCMP cartouches" t.pilin cart.body
Ligature2: "LIGA basics" p i l i n
EndChar

StartChar: t.pimeja
Encoding: 147 989519 81
GlifName: t.pimeja
Width: 640
GlyphClass: 1
Flags: W
HStem: -0.000976562 64.0029<167.557 178.752 269.25 370.75 461.268 472.469>
LayerCount: 2
Fore
SplineSet
320 511.999023438 m 1
 576 -0.0009765625 l 1
 64 -0.0009765625 l 1
 320 511.999023438 l 1
320 368.900390625 m 1
 265.455078125 259.806640625 l 1
 320 205.264648438 l 1
 374.55078125 259.8125 l 1
 320 368.900390625 l 1
404.724609375 199.471679688 m 1
 365.259765625 160.006835938 l 1
 461.267578125 64.00390625 l 1
 472.46875 64.00390625 l 1
 404.724609375 199.471679688 l 1
235.28515625 199.4609375 m 1
 167.556640625 64.001953125 l 1
 178.751953125 64.001953125 l 1
 274.7421875 160.005859375 l 1
 235.28515625 199.4609375 l 1
320 114.75 m 1
 269.25 64.001953125 l 1
 370.75 64.001953125 l 1
 320 114.75 l 1
EndSplineSet
Validated: 1
MultipleSubs2: "CCMP cartouches" t.pimeja cart.body
Ligature2: "LIGA basics" p i m e j a
EndChar

StartChar: t.pini
Encoding: 148 989520 82
GlifName: t.pini
Width: 640
GlyphClass: 1
Flags: W
HStem: 0 64<159.999 287.972 351.973 480> 448 64<159.999 480>
VStem: 287.972 64.001<64 447.977>
LayerCount: 2
Fore
SplineSet
159.999023438 512 m 1
 480 512 l 1
 480 448 l 1
 159.999023438 448 l 1
 159.999023438 512 l 1
287.971679688 447.9765625 m 1
 351.97265625 447.9765625 l 1
 351.97265625 64 l 1
 480 64 l 1
 480 0 l 1
 159.999023438 0 l 1
 159.999023438 64 l 1
 287.971679688 64 l 1
 287.971679688 447.9765625 l 1
EndSplineSet
Validated: 1
MultipleSubs2: "CCMP cartouches" t.pini cart.body
Ligature2: "LIGA basics" p i n i
EndChar

StartChar: t.pipi
Encoding: 149 989521 83
GlifName: t.pipi
Width: 640
GlyphClass: 1
Flags: W
HStem: -0.0136719 21G<287.973 351.973> 63.9961 64<160 480> 191.998 64<160 480> 320 64<160 480> 439.994 80<185.738 246.23 393.731 454.222>
VStem: 175.984 80<449.748 510.24> 287.973 64<-0.0136719 447.986> 383.977 80<449.748 510.24>
LayerCount: 2
Fore
SplineSet
175.984375 479.994140625 m 0
 175.984375 502.0859375 193.892578125 519.994140625 215.984375 519.994140625 c 0
 238.075195312 519.994140625 255.984375 502.0859375 255.984375 479.994140625 c 0
 255.984375 457.90234375 238.075195312 439.994140625 215.984375 439.994140625 c 0
 193.892578125 439.994140625 175.984375 457.90234375 175.984375 479.994140625 c 0
383.9765625 479.994140625 m 0
 383.9765625 502.0859375 401.884765625 519.994140625 423.9765625 519.994140625 c 0
 446.067382812 519.994140625 463.9765625 502.0859375 463.9765625 479.994140625 c 0
 463.9765625 457.90234375 446.067382812 439.994140625 423.9765625 439.994140625 c 0
 401.884765625 439.994140625 383.9765625 457.90234375 383.9765625 479.994140625 c 0
287.97265625 -0.013671875 m 1
 287.97265625 447.986328125 l 1
 351.97265625 447.986328125 l 1
 351.97265625 -0.013671875 l 1
 287.97265625 -0.013671875 l 1
160 320 m 1
 160 384 l 1
 480 384 l 1
 480 320 l 1
 160 320 l 1
160 191.998046875 m 1
 160 255.998046875 l 1
 480 255.998046875 l 1
 480 191.998046875 l 1
 160 191.998046875 l 1
160 63.99609375 m 1
 160 127.99609375 l 1
 480 127.99609375 l 1
 480 63.99609375 l 1
 160 63.99609375 l 1
EndSplineSet
Validated: 5
MultipleSubs2: "CCMP cartouches" t.pipi cart.body
Ligature2: "LIGA basics" p i p i
EndChar

StartChar: t.poka
Encoding: 150 989522 84
GlifName: t.poka
Width: 640
GlyphClass: 1
Flags: W
HStem: 128.001 64.0039<128.005 383.997> 208.001 96<510.059 577.941>
VStem: 64.001 64.0039<192.005 384.017> 383.997 64.0039<192.005 384.017> 496 96<222.06 289.942>
LayerCount: 2
Fore
SplineSet
64.0009765625 384.016601562 m 1
 128.004882812 384.016601562 l 1
 128.004882812 192.004882812 l 1
 383.997070312 192.004882812 l 1
 383.997070312 384.016601562 l 1
 448.000976562 384.016601562 l 1
 448.000976562 128.000976562 l 1
 64.0009765625 128.000976562 l 1
 64.0009765625 384.016601562 l 1
496 256.000976562 m 0
 496 282.510742188 517.490234375 304.000976562 544 304.000976562 c 0
 570.509765625 304.000976562 592 282.510742188 592 256.000976562 c 0
 592 229.491210938 570.509765625 208.000976562 544 208.000976562 c 0
 517.490234375 208.000976562 496 229.491210938 496 256.000976562 c 0
EndSplineSet
Validated: 1
MultipleSubs2: "CCMP cartouches" t.poka cart.body
Ligature2: "LIGA basics" p o k a
EndChar

StartChar: t.poki
Encoding: 151 989523 85
GlifName: t.poki
Width: 640
GlyphClass: 1
Flags: W
HStem: 0.000976562 64.0039<192.003 447.995>
VStem: 127.999 64.0039<64.0049 511.984> 447.995 64.0039<64.0049 511.984>
LayerCount: 2
Fore
SplineSet
127.999023438 511.984375 m 1
 192.002929688 511.984375 l 1
 192.002929688 64.0048828125 l 1
 447.995117188 64.0048828125 l 1
 447.995117188 511.984375 l 1
 511.999023438 511.984375 l 1
 511.999023438 0.0009765625 l 1
 127.999023438 0.0009765625 l 1
 127.999023438 511.984375 l 1
EndSplineSet
Validated: 1
MultipleSubs2: "CCMP cartouches" t.poki cart.body
Ligature2: "LIGA basics" p o k i
EndChar

StartChar: t.pona
Encoding: 152 989524 86
GlifName: t.pona
Width: 640
GlyphClass: 1
Flags: W
HStem: 127.986 64.0039<258.241 381.784>
VStem: 96.0215 64.0039<290.708 352.001> 480.021 63.9795<290.708 352.001>
LayerCount: 2
Fore
SplineSet
320.010742188 127.986328125 m 0
 196.38671875 127.9921875 96.021484375 228.375 96.021484375 352.000976562 c 1
 96.021484375 351.986328125 160.025390625 352.000976562 160.025390625 352.000976562 c 1
 160.025390625 263.69921875 231.7109375 191.998046875 320.010742188 191.990234375 c 0
 408.317382812 191.990234375 480.021484375 263.694335938 480.021484375 352.000976562 c 1
 480.010742188 351.990234375 544.000976562 352.000976562 544.000976562 352.000976562 c 1
 544.000976562 228.375 443.635742188 127.9921875 320.010742188 127.986328125 c 0
EndSplineSet
Validated: 37
MultipleSubs2: "CCMP cartouches" t.pona cart.body
Ligature2: "LIGA basics" p o n a
EndChar

StartChar: t.pu
Encoding: 153 989525 87
GlifName: t.pu
Width: 640
GlyphClass: 1
Flags: W
HStem: 0.000976562 64.0029<192.004 447.995> 111.988 48.0146<287.005 352.994> 255.984 48.0156<286.533 353.46> 344 80<295.999 343.999> 447.997 64.0029<192.004 447.995>
VStem: 128 64.0039<64.0039 447.997> 223.993 47.9912<174.532 241.455> 295.999 48<344 424> 367.99 48.0156<174.534 241.454> 447.995 64.0049<64.0039 447.997>
LayerCount: 2
Fore
SplineSet
128 512 m 1
 512 512 l 1
 512 0.0009765625 l 1
 128 0.0009765625 l 1
 128 512 l 1
192.00390625 447.997070312 m 1
 192.00390625 64.00390625 l 1
 447.995117188 64.00390625 l 1
 447.995117188 447.997070312 l 1
 192.00390625 447.997070312 l 1
320 304 m 0
 372.983398438 304 416.005859375 260.977539062 416.005859375 207.994140625 c 0
 416.005859375 155.009765625 372.983398438 111.98828125 320 111.98828125 c 0
 267.015625 111.98828125 223.993164062 155.009765625 223.993164062 207.994140625 c 0
 223.993164062 260.977539062 267.015625 304 320 304 c 0
320 255.984375 m 0
 293.51171875 255.984375 271.989257812 234.481445312 271.984375 207.994140625 c 0
 271.989257812 181.505859375 293.495117188 160.002929688 319.984375 160.002929688 c 2
 320 160.002929688 l 2
 346.484375 160.0078125 367.985351562 181.509765625 367.990234375 207.994140625 c 0
 367.985351562 234.478515625 346.484375 255.979492188 320 255.984375 c 0
295.999023438 344 m 1
 295.999023438 424 l 1
 343.999023438 424 l 1
 343.999023438 344 l 1
 295.999023438 344 l 1
374.15234375 331.975585938 m 1
 429.188476562 390.037109375 l 1
 464.024414062 357.015625 l 1
 408.989257812 298.954101562 l 1
 374.15234375 331.975585938 l 1
265.876953125 331.9765625 m 1
 231.040039062 298.955078125 l 1
 176.00390625 357.015625 l 1
 210.840820312 390.037109375 l 1
 265.876953125 331.9765625 l 1
EndSplineSet
Validated: 5
MultipleSubs2: "CCMP cartouches" t.pu cart.body
Ligature2: "LIGA basics" p u
EndChar

StartChar: t.sama
Encoding: 154 989526 88
GlifName: t.sama
Width: 640
GlyphClass: 1
Flags: W
HStem: 127.983 64<128 512> 320.001 64<128 512>
LayerCount: 2
Fore
SplineSet
128 384.000976562 m 1
 512 384.000976562 l 1
 512 320.000976562 l 1
 128 320.000976562 l 1
 128 384.000976562 l 1
128 191.983398438 m 1
 512 191.983398438 l 1
 512 127.983398438 l 1
 128 127.983398438 l 1
 128 191.983398438 l 1
EndSplineSet
Validated: 1
MultipleSubs2: "CCMP cartouches" t.sama cart.body
Ligature2: "LIGA basics" s a m a
EndChar

StartChar: t.seli
Encoding: 155 989527 89
GlifName: t.seli
Width: 640
GlyphClass: 1
Flags: W
HStem: 48.002 96<286.067 353.949>
VStem: 272.008 96<62.0608 129.943> 288 64<208 448>
LayerCount: 2
Fore
SplineSet
272.0078125 96.001953125 m 0xc0
 272.0078125 122.51171875 293.498046875 144.001953125 320.0078125 144.001953125 c 0
 346.517578125 144.001953125 368.0078125 122.51171875 368.0078125 96.001953125 c 0
 368.0078125 69.4921875 346.517578125 48.001953125 320.0078125 48.001953125 c 0
 293.498046875 48.001953125 272.0078125 69.4921875 272.0078125 96.001953125 c 0xc0
288 208 m 1xa0
 288 448 l 1
 352 448 l 1
 352 208 l 1
 288 208 l 1xa0
381.83203125 201.168945312 m 1
 486.401367188 417.190429688 l 1
 544.006835938 389.3046875 l 1
 439.4375 173.284179688 l 1
 381.83203125 201.168945312 l 1
258.208007812 201.18359375 m 1
 200.6015625 173.298828125 l 1
 96.0322265625 389.3203125 l 1
 153.637695312 417.205078125 l 1
 258.208007812 201.18359375 l 1
EndSplineSet
Validated: 1
MultipleSubs2: "CCMP cartouches" t.seli cart.body
Ligature2: "LIGA basics" s e l i
EndChar

StartChar: t.selo
Encoding: 156 989528 90
GlifName: t.selo
Width: 640
GlyphClass: 1
Flags: W
HStem: 160 191.988<63.9922 127.996 175.987 239.991 400.002 463.981 511.996 576.001> 287.984 64.0039<127.996 175.987 239.991 400.002 463.981 511.996>
VStem: 63.9922 64.0039<160 287.984> 175.987 64.0039<160 287.984> 400.002 63.9795<160 287.984> 511.996 64.0049<160 287.984>
LayerCount: 2
Fore
SplineSet
63.9921875 351.98828125 m 1xbc
 576.000976562 351.98828125 l 1
 576.000976562 160 l 1
 511.99609375 160 l 1xbc
 511.99609375 287.984375 l 1
 463.981445312 287.984375 l 1x7c
 463.981445312 160 l 1
 400.001953125 160 l 1xbc
 400.001953125 287.984375 l 1
 239.991210938 287.984375 l 1x7c
 239.991210938 160 l 1
 175.987304688 160 l 1xbc
 175.987304688 287.984375 l 1
 127.99609375 287.984375 l 1x7c
 127.99609375 160 l 1
 63.9921875 160 l 1
 63.9921875 351.98828125 l 1xbc
EndSplineSet
Validated: 1
MultipleSubs2: "CCMP cartouches" t.selo cart.body
Ligature2: "LIGA basics" s e l o
EndChar

StartChar: t.seme
Encoding: 157 989529 91
GlifName: t.seme
Width: 640
GlyphClass: 1
Flags: W
HStem: -7.96094 96.0059<286.075 353.947> 207.974 64.0039<352.652 405.158> 448.001 64.0283<233.982 280.014 360.007 405.162>
VStem: 128.687 63.4727<374.442 405.852> 272.007 96.0059<6.10449 73.9766> 448.006 63.9805<314.78 405.133>
LayerCount: 2
Fore
SplineSet
280.013671875 512.029296875 m 2
 280.013671875 512.029296875 359.986328125 511.953125 359.982421875 511.95703125 c 1
 443.873046875 511.95703125 511.986328125 443.844726562 511.986328125 359.953125 c 0
 511.974609375 276.072265625 443.866210938 207.973632812 359.982421875 207.973632812 c 0
 355.581054688 207.963867188 352.009765625 204.392578125 352 199.991210938 c 2
 352 152.000976562 l 1
 288.01953125 152.000976562 l 1
 288.01953125 152.000976562 288.01953125 199.9921875 288.01953125 199.991210938 c 1
 288.02734375 239.71875 320.279296875 271.970703125 360.006835938 271.977539062 c 0
 408.57421875 271.978515625 448.005859375 311.409179688 448.005859375 359.977539062 c 2
 448.005859375 360.000976562 l 2
 448.005859375 408.569335938 408.575195312 448.000976562 360.006835938 448.000976562 c 2
 360.006835938 448.000976562 280.01171875 447.931640625 280.013671875 448.000976562 c 1
 233.150390625 447.999023438 194.79296875 411.217773438 192.159179688 365.008789062 c 1
 192.159179688 365.008789062 128.703125 374.594726562 128.686523438 374.442382812 c 1
 136.028320312 451.51171875 201.03515625 512.029296875 280.013671875 512.029296875 c 2
320.022460938 88.044921875 m 2
 346.509765625 88.0400390625 368.012695312 66.5341796875 368.012695312 40.044921875 c 2
 368.012695312 40.0302734375 l 2
 368.0078125 13.544921875 346.506835938 -7.9560546875 320.022460938 -7.9609375 c 2
 320.006835938 -7.9609375 l 2
 293.517578125 -7.9609375 272.01171875 13.5419921875 272.006835938 40.0302734375 c 2
 272.005859375 40.044921875 l 2
 272.005859375 66.537109375 293.514648438 88.044921875 320.005859375 88.044921875 c 2
 320.022460938 88.044921875 l 2
EndSplineSet
Validated: 37
MultipleSubs2: "CCMP cartouches" t.seme cart.body
Ligature2: "LIGA basics" s e m e
EndChar

StartChar: t.sewi
Encoding: 158 989530 92
GlifName: t.sewi
Width: 640
GlyphClass: 1
Flags: W
HStem: -8.00098 64.0039<101.805 153.788 230.194 281.796 358.183 410.161> 0.00585938 21G<543.989 607.993>
VStem: 31.9805 64.0039<61.9108 127.985> 159.989 64.0039<61.9108 287.855> 287.997 63.9805<61.9108 383.791> 415.981 64.0039<61.9108 447.749> 543.989 64.0039<0.00585938 512.014>
LayerCount: 2
Fore
SplineSet
543.989257812 512.013671875 m 1x7e
 607.993164062 512.013671875 l 1
 607.993164062 0.005859375 l 1
 543.989257812 0.005859375 l 1
 543.989257812 512.013671875 l 1x7e
415.981445312 448.009765625 m 1
 479.985351562 448.009765625 l 1
 479.985351562 448.009765625 479.978515625 87.9990234375 479.985351562 88.005859375 c 1
 479.985351562 35.021484375 436.962890625 -8.0009765625 383.979492188 -8.0009765625 c 0
 359.428710938 -7.9931640625 336.977539062 1.263671875 319.999023438 16.4541015625 c 1
 303.014648438 1.2587890625 280.5546875 -7.9990234375 255.995117188 -8.0009765625 c 0
 231.434570312 -7.9990234375 208.974609375 1.2587890625 191.991210938 16.4541015625 c 1
 175.006835938 1.2587890625 152.546875 -7.9990234375 127.987304688 -8.0009765625 c 0
 75.0029296875 -8.0009765625 31.98046875 35.021484375 31.98046875 88.005859375 c 2
 31.98046875 128.013671875 l 1
 95.984375 128.013671875 l 1
 95.984375 128.013671875 95.986328125 88.00390625 95.984375 88.005859375 c 1
 95.984375 70.34375 110.325195312 56.0029296875 127.987304688 56.0029296875 c 0
 145.6484375 56.0029296875 159.989257812 70.34375 159.989257812 88.005859375 c 2
 159.989257812 288 l 1
 223.993164062 288 l 1
 223.993164062 288 223.995117188 88.00390625 223.993164062 88.005859375 c 1
 223.993164062 70.34375 238.333007812 56.0029296875 255.995117188 56.0029296875 c 0
 273.65625 56.0029296875 287.997070312 70.34375 287.997070312 88.005859375 c 2
 287.997070312 384.005859375 l 1
 351.977539062 384.005859375 l 1
 351.977539062 384.005859375 351.978515625 88.00390625 351.977539062 88.005859375 c 1
 351.977539062 70.34375 366.317382812 56.0029296875 383.979492188 56.0029296875 c 0xbe
 401.640625 56.0029296875 415.981445312 70.34375 415.981445312 88.005859375 c 2
 415.981445312 448.009765625 l 1
EndSplineSet
Validated: 33
MultipleSubs2: "CCMP cartouches" t.sewi cart.body
Ligature2: "LIGA basics" s e w i
EndChar

StartChar: t.sijelo
Encoding: 159 989531 93
GlifName: t.sijelo
Width: 640
GlyphClass: 1
Flags: W
HStem: 383.996 64.0039<159.999 288.008 351.987 479.996>
VStem: 95.9951 64.0039<64 383.996> 288.008 63.9795<64 383.996> 479.996 64.0039<64 383.996>
CounterMasks: 1 70
LayerCount: 2
Fore
SplineSet
95.9951171875 448 m 1
 544 448 l 1
 544 64 l 1
 479.99609375 64 l 1
 479.99609375 383.99609375 l 1
 351.987304688 383.99609375 l 1
 351.987304688 64 l 1
 288.0078125 64 l 1
 288.0078125 383.99609375 l 1
 159.999023438 383.99609375 l 1
 159.999023438 64 l 1
 95.9951171875 64 l 1
 95.9951171875 448 l 1
EndSplineSet
Validated: 1
MultipleSubs2: "CCMP cartouches" t.sijelo cart.body
Ligature2: "LIGA basics" s i j e l o
EndChar

StartChar: t.sike
Encoding: 160 989532 94
GlifName: t.sike
Width: 640
GlyphClass: 1
Flags: W
HStem: -15.9863 63.9805<247.035 392.944> 128.008 63.9805<281.235 358.774> 319.996 64.0039<281.234 358.775> 463.996 64.0039<247.033 392.945>
VStem: 48.0068 63.9805<183.042 328.951> 192.017 64.0039<217.224 294.763> 384.004 64.0039<217.219 294.767> 527.989 64.0039<183.04 328.952>
LayerCount: 2
Fore
SplineSet
319.98828125 528 m 0
 470.108398438 528 591.993164062 406.116210938 591.993164062 255.995117188 c 0
 591.982421875 105.8828125 470.102539062 -15.986328125 319.98828125 -15.986328125 c 0
 169.8828125 -15.9755859375 48.017578125 105.889648438 48.0068359375 255.995117188 c 0
 48.0068359375 406.109375 169.875976562 527.989257812 319.98828125 528 c 0
319.98828125 463.99609375 m 0
 205.189453125 463.99609375 111.987304688 370.79296875 111.987304688 255.995117188 c 0
 111.987304688 141.196289062 205.189453125 47.994140625 319.98828125 47.994140625 c 0
 434.786132812 47.994140625 527.989257812 141.196289062 527.989257812 255.995117188 c 0
 527.989257812 370.79296875 434.786132812 463.99609375 319.98828125 463.99609375 c 0
320 384 m 0
 390.645507812 384 448.0078125 326.63671875 448.0078125 255.9921875 c 0
 447.999023438 185.354492188 390.639648438 128.0078125 320 128.0078125 c 0
 249.368164062 128.016601562 192.025390625 185.360351562 192.016601562 255.9921875 c 0
 192.016601562 326.631835938 249.362304688 383.991210938 320 384 c 0
320 319.99609375 m 0
 284.686523438 319.985351562 256.020507812 291.307617188 256.020507812 255.9921875 c 0
 256.020507812 220.67578125 284.686523438 191.999023438 320 191.98828125 c 0
 355.322265625 191.98828125 384.00390625 220.668945312 384.00390625 255.9921875 c 0
 384.00390625 291.314453125 355.322265625 319.99609375 320 319.99609375 c 0
EndSplineSet
Validated: 1
MultipleSubs2: "CCMP cartouches" t.sike cart.body
Ligature2: "LIGA basics" s i k e
EndChar

StartChar: t.sin
Encoding: 161 989533 95
GlifName: t.sin
Width: 640
GlyphClass: 1
Flags: W
HStem: 160 64<95.999 255.999 384.011 544.011>
VStem: 288.046 64<256.018 416.018>
LayerCount: 2
Fore
SplineSet
288.045898438 256.017578125 m 1
 288.045898438 416.017578125 l 1
 352.045898438 416.017578125 l 1
 352.045898438 256.017578125 l 1
 288.045898438 256.017578125 l 1
95.9990234375 160 m 1
 95.9990234375 224 l 1
 255.999023438 224 l 1
 255.999023438 160 l 1
 95.9990234375 160 l 1
384.010742188 160 m 1
 384.010742188 224 l 1
 544.010742188 224 l 1
 544.010742188 160 l 1
 384.010742188 160 l 1
EndSplineSet
Validated: 1
MultipleSubs2: "CCMP cartouches" t.sin cart.body
Ligature2: "LIGA basics" s i n
EndChar

StartChar: t.sina
Encoding: 162 989534 96
GlifName: t.sina
Width: 640
GlyphClass: 1
Flags: W
HStem: 0 63.998<276.241 363.759> 224 64<275.381 363.759>
VStem: 176 64<101.199 183.963> 400.001 63.999<100.241 187.759>
LayerCount: 2
Fore
SplineSet
464 144 m 0
 464 64.5244140625 399.4765625 0 320 0 c 0
 240.524414062 0 176 64.5244140625 176 144 c 2
 176 144.001953125 l 2
 176.000976562 286.7890625 235.627929688 423.08984375 340.489257812 520.00390625 c 1
 383.927734375 473.00390625 l 1
 325.017578125 418.557617188 282.421875 349.905273438 259.4765625 274.6640625 c 1
 277.848632812 283.173828125 298.4375 288 320 288 c 0
 399.4765625 288 464 223.475585938 464 144 c 0
400.000976562 144 m 0
 400 188.153320312 364.153320312 224 320 224 c 0
 275.84765625 224 240 188.153320312 240 144 c 0
 240 99.8466796875 275.846679688 63.998046875 320 63.998046875 c 0
 364.153320312 63.998046875 400.000976562 99.8466796875 400.000976562 144 c 0
EndSplineSet
Validated: 1
MultipleSubs2: "CCMP cartouches" t.sina cart.body
Ligature2: "LIGA basics" s i n a
EndChar

StartChar: t.sinpin
Encoding: 163 989535 97
GlifName: t.sinpin
Width: 640
GlyphClass: 1
Flags: W
HStem: 0 64.0039<159.987 287.995> 207.999 96<414.059 481.941> 448.004 64.0039<159.987 287.995>
VStem: 159.987 192.012<0 64.0039 448.004 512.008> 287.995 64.0039<64.0039 448.004> 400 96<222.058 289.94>
LayerCount: 2
Fore
SplineSet
159.987304688 512.0078125 m 1xf4
 351.999023438 512.0078125 l 1
 351.999023438 0 l 1
 159.987304688 0 l 1
 159.987304688 64.00390625 l 1xf4
 287.995117188 64.00390625 l 1
 287.995117188 448.00390625 l 1xec
 159.987304688 448.00390625 l 1
 159.987304688 512.0078125 l 1xf4
496 255.999023438 m 0
 496 229.489257812 474.509765625 207.999023438 448 207.999023438 c 0
 421.490234375 207.999023438 400 229.489257812 400 255.999023438 c 0
 400 282.508789062 421.490234375 303.999023438 448 303.999023438 c 0
 474.509765625 303.999023438 496 282.508789062 496 255.999023438 c 0
EndSplineSet
Validated: 1
MultipleSubs2: "CCMP cartouches" t.sinpin cart.body
Ligature2: "LIGA basics" s i n p i n
EndChar

StartChar: t.sitelen
Encoding: 164 989536 98
GlifName: t.sitelen
Width: 640
GlyphClass: 1
Flags: W
HStem: -0.0078125 64.0039<160.005 480.001> 216.001 80<193.754 254.246 289.754 350.246 385.754 446.246> 448 64.001<160.001 480.001>
VStem: 96.001 64.0039<63.9961 448> 184 80<225.755 286.247> 280 80<225.754 286.246> 376 80<225.755 286.247> 480.001 64<64 448.001>
LayerCount: 2
Fore
SplineSet
96.0009765625 512.000976562 m 1
 544.000976562 512.0078125 l 1
 544.000976562 0 l 1
 96.0009765625 -0.0078125 l 1
 96.0009765625 512.000976562 l 1
160.000976562 448 m 1
 160.004882812 63.99609375 l 1
 480.000976562 64 l 1
 480.000976562 448.000976562 l 1
 160.000976562 448 l 1
184 256.000976562 m 0
 184 278.091796875 201.908203125 296.000976562 224 296.000976562 c 0
 246.091796875 296.000976562 264 278.091796875 264 256.000976562 c 0
 264 233.909179688 246.091796875 216.000976562 224 216.000976562 c 0
 201.908203125 216.000976562 184 233.909179688 184 256.000976562 c 0
280 256 m 0
 280 278.091796875 297.908203125 296 320 296 c 0
 342.091796875 296 360 278.091796875 360 256 c 0
 360 233.909179688 342.091796875 216 320 216 c 0
 297.908203125 216 280 233.909179688 280 256 c 0
376 256.000976562 m 0
 376 278.091796875 393.909179688 296.000976562 416 296.000976562 c 0
 438.091796875 296.000976562 456 278.091796875 456 256.000976562 c 0
 456 233.909179688 438.091796875 216.000976562 416 216.000976562 c 0
 393.909179688 216.000976562 376 233.909179688 376 256.000976562 c 0
EndSplineSet
Validated: 1
MultipleSubs2: "CCMP cartouches" t.sitelen cart.body
Ligature2: "LIGA basics" s i t e l e n
EndChar

StartChar: t.sona
Encoding: 165 989537 99
GlifName: t.sona
Width: 640
GlyphClass: 1
Flags: W
HStem: -0.00683594 64.0127<224.001 416.001> 256 64<224.001 416.001>
VStem: 160 64.001<64.0059 256> 288.001 64<399.999 543.999> 416.001 64<63.998 255.992>
LayerCount: 2
Fore
SplineSet
288.000976562 399.999023438 m 1
 288.000976562 543.999023438 l 1
 352.000976562 543.999023438 l 1
 352.000976562 399.999023438 l 1
 288.000976562 399.999023438 l 1
388.423828125 391.030273438 m 1
 455.379882812 518.517578125 l 1
 512.041015625 488.759765625 l 1
 445.084960938 361.272460938 l 1
 388.423828125 391.030273438 l 1
251.666992188 390.250976562 m 1
 195.006835938 360.493164062 l 1
 128.05078125 487.98046875 l 1
 184.711914062 517.73828125 l 1
 251.666992188 390.250976562 l 1
160 320 m 1
 480.000976562 320 l 1
 480.000976562 -0.0068359375 l 1
 160 -0.0068359375 l 1
 160 320 l 1
224.000976562 256 m 1
 224.000976562 64.005859375 l 1
 416.000976562 63.998046875 l 1
 416.000976562 255.9921875 l 1
 224.000976562 256 l 1
EndSplineSet
Validated: 1
MultipleSubs2: "CCMP cartouches" t.sona cart.body
Ligature2: "LIGA basics" s o n a
EndChar

StartChar: t.soweli
Encoding: 166 989538 100
GlifName: t.soweli
Width: 640
GlyphClass: 1
Flags: W
HStem: 0 191.988<47.9961 112 160.016 223.995 272.01 336.015 384.041 446.91> 264.011 80<289.775 350.267> 295.988 80<401.743 462.235> 448.004 64.0049<48.2512 457.088>
VStem: 47.9961 64.0039<0 191.988> 160.016 63.9795<0 191.988> 272.01 64.0049<0 191.988> 280.021 80<273.765 334.256> 384.029 64.0039<0 137.459> 391.989 80<305.743 366.234> 528.002 64.0283<262.774 377.658>
LayerCount: 2
Fore
SplineSet
47.99609375 512.008789062 m 1x9ca0
 47.99609375 512.008789062 400.030273438 511.99609375 400.018554688 512.008789062 c 1
 505.986328125 512.008789062 592.030273438 425.963867188 592.030273438 319.99609375 c 0
 592.025390625 230.6328125 530.763671875 155.466796875 448.033203125 134.104492188 c 1
 448.033203125 0 l 1
 384.029296875 0 l 1
 384.029296875 191.98828125 l 1
 384.029296875 191.98828125 400.001953125 191.99609375 399.994140625 191.98828125 c 1
 470.639648438 191.98828125 528.001953125 249.3515625 528.001953125 319.99609375 c 0
 528.001953125 390.641601562 470.639648438 448.00390625 399.994140625 448.00390625 c 2
 47.99609375 448.00390625 l 1
 47.99609375 512.008789062 l 1x9ca0
47.99609375 191.98828125 m 1
 112 191.98828125 l 1
 112 0 l 1
 47.99609375 0 l 1
 47.99609375 191.98828125 l 1
160.015625 191.98828125 m 1
 223.995117188 191.98828125 l 1
 223.995117188 0 l 1
 160.015625 0 l 1
 160.015625 191.98828125 l 1
272.009765625 191.98828125 m 1x9e20
 336.014648438 191.98828125 l 1
 336.014648438 0 l 1
 272.009765625 0 l 1
 272.009765625 191.98828125 l 1x9e20
391.989257812 335.98828125 m 0xbc60
 391.989257812 358.080078125 409.897460938 375.98828125 431.989257812 375.98828125 c 0
 454.081054688 375.98828125 471.989257812 358.080078125 471.989257812 335.98828125 c 0
 471.989257812 313.897460938 454.081054688 295.98828125 431.989257812 295.98828125 c 0
 409.897460938 295.98828125 391.989257812 313.897460938 391.989257812 335.98828125 c 0xbc60
280.020507812 304.010742188 m 0xdd20
 280.020507812 326.1015625 297.9296875 344.010742188 320.020507812 344.010742188 c 0
 342.112304688 344.010742188 360.020507812 326.1015625 360.020507812 304.010742188 c 0
 360.020507812 281.918945312 342.112304688 264.010742188 320.020507812 264.010742188 c 0
 297.9296875 264.010742188 280.020507812 281.918945312 280.020507812 304.010742188 c 0xdd20
EndSplineSet
Validated: 33
MultipleSubs2: "CCMP cartouches" t.soweli cart.body
Ligature2: "LIGA basics" s o w e l i
EndChar

StartChar: t.suli
Encoding: 167 989539 101
GlifName: t.suli
Width: 640
GlyphClass: 1
Flags: W
HStem: -0.000976562 21G<279.246 360.749>
LayerCount: 2
Fore
SplineSet
64 512 m 1
 133.857421875 512 l 1
 319.9921875 86.5400390625 l 1
 506.125976562 512 l 1
 575.983398438 512 l 1
 352 -0.0009765625 l 1
 287.99609375 -0.0009765625 l 1
 64 512 l 1
EndSplineSet
Validated: 1
MultipleSubs2: "CCMP cartouches" t.suli cart.body
Ligature2: "LIGA basics" s u l i
EndChar

StartChar: t.suno
Encoding: 168 989540 102
GlifName: t.suno
Width: 640
GlyphClass: 1
Flags: W
HStem: -0.0078125 160.01<289.227 350.774> 223.981 64.0049<64.0811 166.472 473.927 575.92> 351.99 160.01<289.224 350.778>
VStem: 64.0088 159.985<225.213 286.761> 287.999 64.0039<0.0644844 102.457 409.933 511.928> 416.007 159.985<225.213 286.761>
LayerCount: 2
Fore
SplineSet
287.999023438 512 m 1
 352.002929688 512 l 1
 352.002929688 512 352.120117188 412.634765625 352.002929688 412.752929688 c 1
 414.549804688 399.974609375 463.978515625 350.537109375 476.745117188 287.986328125 c 1
 575.9921875 287.986328125 l 1
 575.9921875 223.981445312 l 1
 575.9921875 223.981445312 476.243164062 223.8671875 476.358398438 223.981445312 c 1
 463.502929688 161.698242188 414.286132812 112.481445312 352.002929688 99.6259765625 c 1
 352.002929688 -0.0078125 l 1
 287.999023438 -0.0078125 l 1
 287.999023438 -0.0078125 287.883789062 99.7412109375 287.999023438 99.6259765625 c 1
 225.71484375 112.481445312 176.498046875 161.698242188 163.642578125 223.981445312 c 1
 64.0087890625 223.981445312 l 1
 64.0087890625 287.986328125 l 1
 64.0087890625 287.986328125 163.7578125 288.100585938 163.642578125 287.986328125 c 1
 176.489257812 350.279296875 225.708984375 399.506835938 287.999023438 412.365234375 c 1
 287.999023438 512 l 1
320.000976562 351.990234375 m 0
 267.016601562 351.990234375 223.994140625 308.967773438 223.994140625 255.983398438 c 0
 224.004882812 203.008789062 267.022460938 160.001953125 320.000976562 160.001953125 c 0
 372.978515625 160.001953125 415.997070312 203.008789062 416.006835938 255.983398438 c 0
 416.006835938 308.967773438 372.984375 351.990234375 320.000976562 351.990234375 c 0
EndSplineSet
Validated: 37
MultipleSubs2: "CCMP cartouches" t.suno cart.body
Ligature2: "LIGA basics" s u n o
EndChar

StartChar: t.supa
Encoding: 169 989541 103
GlifName: t.supa
Width: 640
GlyphClass: 1
Flags: W
HStem: 287.996 64.0039<63.9961 160.002 224.006 415.994 479.998 576.004>
VStem: 160 64.0039<128 287.996> 415.992 64.0039<128 287.996>
LayerCount: 2
Fore
SplineSet
63.99609375 352 m 1
 576.00390625 352 l 1
 576.00390625 287.99609375 l 1
 479.998046875 287.99609375 l 1
 479.99609375 128 l 1
 415.9921875 128 l 1
 415.994140625 287.99609375 l 1
 224.005859375 287.99609375 l 1
 224.00390625 128 l 1
 160 128 l 1
 160.001953125 287.99609375 l 1
 63.99609375 287.99609375 l 1
 63.99609375 352 l 1
EndSplineSet
Validated: 1
MultipleSubs2: "CCMP cartouches" t.supa cart.body
Ligature2: "LIGA basics" s u p a
EndChar

StartChar: t.suwi
Encoding: 170 989542 104
GlifName: t.suwi
Width: 640
GlyphClass: 1
Flags: W
HStem: 55.9961 96<286.055 353.937>
VStem: 271.996 96<70.0549 137.937>
LayerCount: 2
Fore
SplineSet
271.99609375 103.99609375 m 0
 271.99609375 130.505859375 293.486328125 151.99609375 319.99609375 151.99609375 c 0
 346.505859375 151.99609375 367.99609375 130.505859375 367.99609375 103.99609375 c 0
 367.99609375 77.486328125 346.505859375 55.99609375 319.99609375 55.99609375 c 0
 293.486328125 55.99609375 271.99609375 77.486328125 271.99609375 103.99609375 c 0
144.001953125 416.001953125 m 1
 207.981445312 416.001953125 l 1
 287.999023438 223.990234375 l 1
 218.649414062 223.990234375 l 1
 175.979492188 326.40625 l 1
 133.334960938 223.990234375 l 1
 63.984375 223.990234375 l 1
 144.001953125 416.001953125 l 1
431.99609375 416.001953125 m 1
 496 416.001953125 l 1
 575.993164062 223.990234375 l 1
 506.642578125 223.990234375 l 1
 463.998046875 326.40625 l 1
 421.328125 223.990234375 l 1
 351.978515625 223.990234375 l 1
 431.99609375 416.001953125 l 1
EndSplineSet
Validated: 1
MultipleSubs2: "CCMP cartouches" t.suwi cart.body
Ligature2: "LIGA basics" s u w i
EndChar

StartChar: t.tan
Encoding: 171 989543 105
GlifName: t.tan
Width: 640
GlyphClass: 1
Flags: W
HStem: 159.986 64.0039<136.2 256.008> 319.996 64.0039<242.349 394.471>
VStem: 32.0186 64.0039<277.012 383.922> 544.002 64.0039<96.0059 167.944>
LayerCount: 2
Fore
SplineSet
32.0185546875 384 m 1
 96.0224609375 384 l 1
 96.0224609375 384 95.919921875 276.814453125 96.0224609375 277.01171875 c 0
 148.833007812 342.3671875 229.525390625 383.995117188 320.01171875 384 c 0
 478.958984375 383.997070312 608.002929688 254.953125 608.005859375 96.005859375 c 1
 608.005859375 96.005859375 544.001953125 96.0068359375 544.001953125 96.005859375 c 1
 543.99609375 219.626953125 443.6328125 319.990234375 320.01171875 319.99609375 c 0
 243.870117188 319.990234375 176.677734375 282.125976562 136.200195312 223.990234375 c 1
 256.0078125 223.990234375 l 1
 256.0078125 159.986328125 l 1
 32.0185546875 159.986328125 l 1
 32.0185546875 384 l 1
EndSplineSet
Validated: 33
MultipleSubs2: "CCMP cartouches" t.tan cart.body
Ligature2: "LIGA basics" t a n
EndChar

StartChar: t.taso
Encoding: 172 989544 106
GlifName: t.taso
Width: 640
GlyphClass: 1
Flags: W
HStem: 0 21G<352.008 416.012> 223.99 64.0039<191.998 352.008>
VStem: 352.008 64.0039<0 223.99 287.994 511.984>
LayerCount: 2
Fore
SplineSet
352.0078125 511.984375 m 1
 416.01171875 511.984375 l 1
 416.01171875 0 l 1
 352.0078125 0 l 1
 352.0078125 223.990234375 l 1
 191.998046875 223.990234375 l 1
 191.998046875 287.994140625 l 1
 352.0078125 287.994140625 l 1
 352.0078125 511.984375 l 1
EndSplineSet
Validated: 1
MultipleSubs2: "CCMP cartouches" t.taso cart.body
Ligature2: "LIGA basics" t a s o
EndChar

StartChar: t.tawa
Encoding: 173 989545 107
GlifName: t.tawa
Width: 640
GlyphClass: 1
Flags: W
HStem: -0.000976562 64.0039<431.954 559.962>
VStem: 367.998 63.9561<64.0029 405.302>
LayerCount: 2
Fore
SplineSet
367.826171875 513.256835938 m 1
 431.999023438 511.999023438 l 1
 431.954101562 64.0029296875 l 1
 559.961914062 64.0029296875 l 1
 559.961914062 -0.0009765625 l 1
 367.998046875 -0.0009765625 l 1
 368.043945312 405.301757812 l 1
 170.2265625 141.544921875 l 1
 293.686523438 51.7548828125 l 1
 256.048828125 -0.0087890625 l 1
 80.6064453125 128.749023438 l 1
 367.826171875 513.256835938 l 1
EndSplineSet
Validated: 1
MultipleSubs2: "CCMP cartouches" t.tawa cart.body
Ligature2: "LIGA basics" t a w a
EndChar

StartChar: t.telo
Encoding: 174 989546 108
GlifName: t.telo
Width: 640
GlyphClass: 1
Flags: W
HStem: 51.8643 63.9805<169.687 263.268> 172.132 64.0039<376.756 470.332> 275.853 64.0039<169.687 263.268> 396.145 64.0039<376.756 470.332>
VStem: 63.9961 64.0039<158.65 203.844 382.651 427.856> 512 64.0039<83.8662 129.087 307.854 353.077>
LayerCount: 2
Fore
SplineSet
63.99609375 427.856445312 m 1
 128 427.856445312 l 1
 128 379.260742188 167.403320312 339.856445312 215.999023438 339.856445312 c 0
 247.493164062 339.856445312 276.543945312 356.66796875 292.266601562 383.953125 c 0
 319.407226562 431.09765625 369.647460938 460.1484375 424.024414062 460.1484375 c 0
 507.959960938 460.1484375 576.00390625 391.790039062 576.00390625 307.854492188 c 1
 512 307.854492188 l 1
 512 356.450195312 472.620117188 396.14453125 424.024414062 396.14453125 c 0
 392.530273438 396.14453125 363.479492188 379.333007812 347.756835938 352.047851562 c 0
 320.616210938 304.903320312 270.375976562 275.852539062 215.999023438 275.852539062 c 0
 132.063476562 275.852539062 63.99609375 343.896484375 63.99609375 427.856445312 c 1
63.99609375 203.84375 m 1
 128 203.84375 l 1
 128 155.248046875 167.403320312 115.844726562 215.999023438 115.844726562 c 0
 247.493164062 115.844726562 276.543945312 132.6796875 292.266601562 159.96484375 c 0
 319.407226562 207.084960938 369.647460938 236.135742188 424.024414062 236.135742188 c 0
 507.959960938 236.135742188 576.00390625 167.802734375 576.00390625 83.8662109375 c 1
 512 83.8662109375 l 1
 512 132.461914062 472.620117188 172.131835938 424.024414062 172.131835938 c 0
 392.530273438 172.131835938 363.479492188 155.321289062 347.756835938 128.036132812 c 0
 320.616210938 80.9150390625 270.375976562 51.8642578125 215.999023438 51.8642578125 c 0
 132.063476562 51.8642578125 63.99609375 119.908203125 63.99609375 203.84375 c 1
EndSplineSet
Validated: 1
MultipleSubs2: "CCMP cartouches" t.telo cart.body
Ligature2: "LIGA basics" t e l o
EndChar

StartChar: t.tenpo
Encoding: 175 989547 109
GlifName: t.tenpo
Width: 640
GlyphClass: 1
Flags: W
HStem: -7.99609 64.0039<247.231 392.771> 224.004 64<351.996 431.973> 232.004 56<287.996 351.996> 455.997 64.0039<247.231 392.771>
VStem: 56.002 64.0049<183.232 328.772> 287.996 64<288.004 408.004> 519.995 64.0039<183.232 328.772>
LayerCount: 2
Fore
SplineSet
287.99609375 232.00390625 m 1xbe
 287.99609375 408.00390625 l 1
 351.99609375 408.00390625 l 1
 351.99609375 232.00390625 l 1
 287.99609375 232.00390625 l 1xbe
287.97265625 288.00390625 m 1
 431.97265625 288.00390625 l 1
 431.97265625 224.00390625 l 1
 287.97265625 224.00390625 l 1xde
 287.97265625 288.00390625 l 1
320.000976562 520.000976562 m 0
 465.705078125 520 583.998046875 401.706054688 583.999023438 256.001953125 c 0
 583.998046875 110.297851562 465.705078125 -7.9951171875 320.000976562 -7.99609375 c 0
 174.296875 -7.9951171875 56.0029296875 110.297851562 56.001953125 256.001953125 c 0
 56.0029296875 401.706054688 174.296875 520 320.000976562 520.000976562 c 0
320.000976562 455.997070312 m 0
 209.622070312 455.993164062 120.009765625 366.380859375 120.006835938 256.001953125 c 0
 120.009765625 145.624023438 209.622070312 56.0107421875 320.000976562 56.0078125 c 0
 430.37890625 56.0107421875 519.9921875 145.624023438 519.995117188 256.001953125 c 0
 519.9921875 366.380859375 430.37890625 455.993164062 320.000976562 455.997070312 c 0
EndSplineSet
Validated: 5
MultipleSubs2: "CCMP cartouches" t.tenpo cart.body
Ligature2: "LIGA basics" t e n p o
EndChar

StartChar: t.toki
Encoding: 176 989548 110
GlifName: t.toki
Width: 640
GlyphClass: 1
Flags: W
HStem: -8.00098 64.0039<267.712 372.337> 280.018 63.9795<267.182 372.863>
VStem: 144.025 63.9805<115.686 220.311> 288.001 64<399.998 543.998> 432.02 64.0039<115.686 220.311>
LayerCount: 2
Fore
SplineSet
288.000976562 399.998046875 m 1
 288.000976562 543.998046875 l 1
 352.000976562 543.998046875 l 1
 352.000976562 399.998046875 l 1
 288.000976562 399.998046875 l 1
388.427734375 391.020507812 m 1
 455.383789062 518.5078125 l 1
 512.043945312 488.749023438 l 1
 445.088867188 361.262695312 l 1
 388.427734375 391.020507812 l 1
251.64453125 390.245117188 m 1
 194.983398438 360.486328125 l 1
 128.02734375 487.973632812 l 1
 184.688476562 517.731445312 l 1
 251.64453125 390.245117188 l 1
320.024414062 343.997070312 m 0
 417.161132812 343.997070312 496.0234375 265.134765625 496.0234375 167.998046875 c 0
 496.0234375 70.8623046875 417.161132812 -8 320.024414062 -8.0009765625 c 0
 222.888671875 -8 144.026367188 70.8623046875 144.025390625 167.998046875 c 0
 144.026367188 265.134765625 222.888671875 343.997070312 320.024414062 343.997070312 c 0
320.024414062 280.017578125 m 0
 258.209960938 280.017578125 208.005859375 229.83203125 208.005859375 168.017578125 c 2
 208.005859375 167.998046875 l 2
 208.0078125 106.186523438 258.192382812 56.0029296875 320.004882812 56.0029296875 c 2
 320.024414062 56.0029296875 l 2
 381.834960938 56.005859375 432.016601562 106.1875 432.01953125 167.998046875 c 2
 432.01953125 168.017578125 l 2
 432.01953125 229.830078125 381.836914062 280.014648438 320.024414062 280.017578125 c 0
EndSplineSet
Validated: 1
MultipleSubs2: "CCMP cartouches" t.toki cart.body
Ligature2: "LIGA basics" t o k i
EndChar

StartChar: t.tomo
Encoding: 177 989549 111
GlifName: t.tomo
Width: 640
GlyphClass: 1
Flags: W
HStem: 0.000976562 64.0039<160.032 480.028>
VStem: 96.0283 64.0039<64.0049 231.948> 480.028 64.0039<64.0049 231.948>
LayerCount: 2
Fore
SplineSet
320.018554688 511.984375 m 1
 544.032226562 255.9921875 l 1
 544.032226562 0.0009765625 l 1
 96.0283203125 0.0009765625 l 1
 96.0283203125 255.9921875 l 1
 320.018554688 511.984375 l 1
320.018554688 414.79296875 m 1
 160.032226562 231.948242188 l 1
 160.032226562 64.0048828125 l 1
 480.028320312 64.0048828125 l 1
 480.028320312 231.948242188 l 1
 320.018554688 414.79296875 l 1
EndSplineSet
Validated: 1
MultipleSubs2: "CCMP cartouches" t.tomo cart.body
Ligature2: "LIGA basics" t o m o
EndChar

StartChar: t.tu
Encoding: 178 989550 112
GlifName: t.tu
Width: 640
GlyphClass: 1
Flags: W
HStem: 0.000976562 21G<207.977 271.977 368.016 432.016>
VStem: 207.977 64<0.000976562 512.001> 368.016 64<0.000976562 512.001>
LayerCount: 2
Fore
SplineSet
207.9765625 0.0009765625 m 1
 207.9765625 512.000976562 l 1
 271.9765625 512.000976562 l 1
 271.9765625 0.0009765625 l 1
 207.9765625 0.0009765625 l 1
368.015625 0.0009765625 m 1
 368.015625 512.000976562 l 1
 432.015625 512.000976562 l 1
 432.015625 0.0009765625 l 1
 368.015625 0.0009765625 l 1
EndSplineSet
Validated: 1
MultipleSubs2: "CCMP cartouches" t.tu cart.body
Ligature2: "LIGA basics" t u
EndChar

StartChar: t.unpa
Encoding: 179 989551 113
GlifName: t.unpa
Width: 640
GlyphClass: 1
Flags: W
HStem: 15.999 63.9795<276.256 363.748> 432.098 63.8828<165.214 255.336 384.689 474.807>
VStem: 63.9961 64.0039<308.384 395.801> 176.015 64.0039<117.196 159.996 160.033 207.987 277.651 309.502> 400.005 64.0039<117.125 207.987 277.53 309.381> 512 64.0039<308.328 395.739>
LayerCount: 2
Fore
SplineSet
208.016601562 495.98046875 m 0
 248.096679688 495.791015625 286.279296875 486.22265625 320.01171875 469.590820312 c 1
 353.744140625 486.22265625 391.926757812 495.791015625 432.006835938 495.98046875 c 0
 511.48046875 495.979492188 576.001953125 431.45703125 576.00390625 351.984375 c 0
 576.000976562 283.540039062 528.057617188 226.19140625 464.008789062 211.590820312 c 1
 464.008789062 159.99609375 l 1
 464.008789062 159.948242188 l 1
 464.008789062 159.899414062 l 2
 463.954101562 80.470703125 399.452148438 16.0009765625 320.01171875 15.9990234375 c 0
 240.538085938 16.0009765625 176.016601562 80.5224609375 176.014648438 159.99609375 c 2
 176.014648438 159.99609375 175.928710938 211.584960938 176.014648438 211.590820312 c 1
 111.955078125 226.182617188 64.0009765625 283.533203125 63.99609375 351.984375 c 0
 63.9970703125 431.458007812 128.541992188 495.98046875 208.016601562 495.98046875 c 0
208.016601562 431.9765625 m 1
 208.016601562 431.9765625 208.017578125 432.09765625 208.016601562 432.09765625 c 2
 208 432.09765625 l 2
 163.848632812 432.09765625 128.00390625 396.254882812 128 352.104492188 c 0
 128.006835938 318.254882812 149.0390625 289.3203125 178.772460938 277.651367188 c 1
 187.44921875 335.49609375 215.444335938 387.288085938 256.056640625 425.6875 c 1
 240.689453125 429.720703125 224.626953125 431.916015625 208.016601562 431.9765625 c 1
432.006835938 431.9765625 m 1
 432.006835938 431.9765625 432.060546875 431.8359375 432.006835938 431.856445312 c 0
 415.396484375 431.794921875 399.333984375 429.600585938 383.967773438 425.56640625 c 1
 424.579101562 387.166992188 452.57421875 335.375 461.250976562 277.530273438 c 1
 490.974609375 289.20703125 511.997070312 318.138671875 512 351.984375 c 0
 511.99609375 396.131835938 476.154296875 431.97265625 432.006835938 431.9765625 c 1
320.01171875 395.354492188 m 1
 279.864257812 366.573242188 251.426757812 322.62890625 242.6796875 271.991210938 c 1
 242.6796875 271.991210938 397.4921875 272.064453125 397.319335938 271.991210938 c 1
 388.579101562 322.625 360.150390625 366.569335938 320.01171875 395.354492188 c 1
240.018554688 207.987304688 m 1
 240.018554688 159.99609375 l 1
 240.018554688 159.978515625 l 2
 240.018554688 115.828125 275.862304688 79.982421875 320.01171875 79.978515625 c 0
 364.134765625 79.982421875 399.9609375 115.786132812 400.004882812 159.899414062 c 2
 400.004882812 159.946289062 l 1
 400.004882812 159.99609375 l 1
 400.004882812 207.987304688 l 1
 240.018554688 207.987304688 l 1
EndSplineSet
Validated: 33
MultipleSubs2: "CCMP cartouches" t.unpa cart.body
Ligature2: "LIGA basics" u n p a
EndChar

StartChar: t.uta
Encoding: 180 989552 114
GlifName: t.uta
Width: 640
GlyphClass: 1
Flags: W
HStem: -8.01367 96<286.078 353.961> 127.983 64.0039<262.329 377.65> 319.996 64.0039<191.98 447.996>
VStem: 128 63.9805<262.928 319.996> 272.02 96<6.04517 73.9275> 447.996 64.0049<262.926 319.996>
LayerCount: 2
Fore
SplineSet
128 384 m 1
 512.000976562 384 l 1
 512.000976562 384 511.98828125 319.983398438 512.000976562 319.99609375 c 1
 512.000976562 214.028320312 425.956054688 127.983398438 319.98828125 127.983398438 c 0
 214.026367188 127.990234375 128 214.032226562 128 319.99609375 c 2
 128 384 l 1
191.98046875 319.99609375 m 1
 191.98046875 249.350585938 249.342773438 191.987304688 319.98828125 191.987304688 c 0
 390.6328125 191.987304688 447.99609375 249.350585938 447.99609375 319.99609375 c 1
 191.98046875 319.99609375 l 1
272.01953125 39.986328125 m 0
 272.01953125 66.49609375 293.509765625 87.986328125 320.01953125 87.986328125 c 0
 346.529296875 87.986328125 368.01953125 66.49609375 368.01953125 39.986328125 c 0
 368.01953125 13.4765625 346.529296875 -8.013671875 320.01953125 -8.013671875 c 0
 293.509765625 -8.013671875 272.01953125 13.4765625 272.01953125 39.986328125 c 0
EndSplineSet
Validated: 33
MultipleSubs2: "CCMP cartouches" t.uta cart.body
Ligature2: "LIGA basics" u t a
EndChar

StartChar: t.utala
Encoding: 181 989553 115
GlifName: t.utala
Width: 640
GlyphClass: 1
Flags: W
HStem: 0 21G<178.672 206.673 433.334 461.335>
LayerCount: 2
Fore
SplineSet
492.38671875 517.836914062 m 1
 544.005859375 480.005859375 l 1
 192.006835938 0 l 1
 63.9990234375 191.98828125 l 1
 117.263671875 227.497070312 l 1
 194.499023438 111.631835938 l 1
 492.38671875 517.836914062 l 1
147.620117188 517.836914062 m 1
 445.5078125 111.631835938 l 1
 522.743164062 227.497070312 l 1
 576.0078125 191.98828125 l 1
 448 0 l 1
 96.0009765625 480.005859375 l 1
 147.620117188 517.836914062 l 1
EndSplineSet
Validated: 5
MultipleSubs2: "CCMP cartouches" t.utala cart.body
Ligature2: "LIGA basics" u t a l a
EndChar

StartChar: t.walo
Encoding: 182 989554 116
GlifName: t.walo
Width: 640
GlyphClass: 1
Flags: W
HStem: -0.0078125 64.0039<167.504 472.405>
LayerCount: 2
Fore
SplineSet
319.966796875 512 m 1
 575.958984375 -0.0078125 l 1
 63.974609375 -0.0078125 l 1
 319.966796875 512 l 1
319.966796875 368.8984375 m 1
 167.50390625 63.99609375 l 1
 472.405273438 63.99609375 l 1
 319.966796875 368.8984375 l 1
445.858398438 221.891601562 m 1
 400.603515625 267.146484375 l 1
 530.7109375 397.25390625 l 1
 575.965820312 351.999023438 l 1
 445.858398438 221.891601562 l 1
194.073242188 221.88671875 m 1
 63.9658203125 351.994140625 l 1
 109.219726562 397.249023438 l 1
 239.328125 267.141601562 l 1
 194.073242188 221.88671875 l 1
EndSplineSet
Validated: 5
MultipleSubs2: "CCMP cartouches" t.walo cart.body
Ligature2: "LIGA basics" w a l o
EndChar

StartChar: t.wan
Encoding: 183 989555 117
GlifName: t.wan
Width: 640
GlyphClass: 1
Flags: W
HStem: 0 21G<319.994 383.999>
VStem: 319.994 64.0049<0 421.493>
LayerCount: 2
Fore
SplineSet
319.994140625 511.984375 m 1
 383.999023438 511.984375 l 1
 383.999023438 0 l 1
 319.994140625 0 l 1
 319.994140625 421.493164062 l 1
 205.2421875 306.741210938 l 1
 159.984375 351.998046875 l 1
 319.994140625 511.984375 l 1
EndSplineSet
Validated: 1
MultipleSubs2: "CCMP cartouches" t.wan cart.body
Ligature2: "LIGA basics" w a n
EndChar

StartChar: t.waso
Encoding: 184 989556 118
GlifName: t.waso
Width: 640
GlyphClass: 1
Flags: W
HStem: 111.996 63.9805<272 451.047> 207.988 80<153.73 214.222> 239.996 80<257.726 318.218>
VStem: 143.976 80<217.743 278.234> 207.995 64.0049<-32 111.996> 247.972 80<249.75 310.242>
LayerCount: 2
Fore
SplineSet
298.631835938 519.9921875 m 1x88
 527.991210938 175.9765625 l 1
 527.991210938 111.99609375 l 1
 272 111.99609375 l 1
 272 -32 l 1
 207.995117188 -32 l 1
 207.995117188 175.9765625 l 1
 256.010742188 175.9765625 l 1
 271.975585938 175.9765625 l 1
 451.046875 175.9765625 l 1
 245.391601562 484.482421875 l 1
 298.631835938 519.9921875 l 1x88
303.977539062 511.985351562 m 1
 527.967773438 175.9765625 l 1
 303.977539062 511.985351562 l 1
247.971679688 279.99609375 m 0xa4
 247.971679688 302.087890625 265.880859375 319.99609375 287.971679688 319.99609375 c 0
 310.063476562 319.99609375 327.971679688 302.087890625 327.971679688 279.99609375 c 0
 327.971679688 257.905273438 310.063476562 239.99609375 287.971679688 239.99609375 c 0
 265.880859375 239.99609375 247.971679688 257.905273438 247.971679688 279.99609375 c 0xa4
143.975585938 247.98828125 m 0xd0
 143.975585938 270.080078125 161.884765625 287.98828125 183.975585938 287.98828125 c 0
 206.067382812 287.98828125 223.975585938 270.080078125 223.975585938 247.98828125 c 0
 223.975585938 225.897460938 206.067382812 207.98828125 183.975585938 207.98828125 c 0
 161.884765625 207.98828125 143.975585938 225.897460938 143.975585938 247.98828125 c 0xd0
EndSplineSet
Validated: 5
LCarets2: 3 0 0 0
MultipleSubs2: "CCMP cartouches" t.waso cart.body
Ligature2: "LIGA basics" w a s o
EndChar

StartChar: t.wawa
Encoding: 185 989557 119
GlifName: t.wawa
Width: 640
GlyphClass: 1
Flags: W
HStem: 64 64.0039<281.229 358.771> 255.988 64.0039<281.225 358.776>
VStem: 191.992 64.0039<153.218 230.76> 384.004 64.0049<153.218 230.76>
LayerCount: 2
Fore
SplineSet
320 319.9921875 m 0
 390.645507812 319.9921875 448.008789062 262.62890625 448.008789062 191.984375 c 0
 447.999023438 121.346679688 390.639648438 64 320 64 c 0
 249.360351562 64 192.000976562 121.346679688 191.9921875 191.984375 c 0
 191.9921875 262.62890625 249.35546875 319.9921875 320 319.9921875 c 0
320 255.98828125 m 0
 284.677734375 255.98828125 255.99609375 227.306640625 255.99609375 191.984375 c 0
 256.0078125 156.670898438 284.684570312 128.00390625 320 128.00390625 c 0
 355.31640625 128.00390625 383.993164062 156.670898438 384.00390625 191.984375 c 0
 384.00390625 227.306640625 355.323242188 255.98828125 320 255.98828125 c 0
123.762695312 123.075195312 m 1
 32.0048828125 429.637695312 l 1
 93.3173828125 447.989257812 l 1
 185.075195312 141.427734375 l 1
 123.762695312 123.075195312 l 1
454.927734375 141.440429688 m 1
 546.685546875 448.002929688 l 1
 607.998046875 429.651367188 l 1
 516.239257812 123.088867188 l 1
 454.927734375 141.440429688 l 1
EndSplineSet
Validated: 1
MultipleSubs2: "CCMP cartouches" t.wawa cart.body
Ligature2: "LIGA basics" w a w a
EndChar

StartChar: t.weka
Encoding: 186 989558 120
GlifName: t.weka
Width: 640
GlyphClass: 1
Flags: W
LayerCount: 2
Fore
SplineSet
141.221679688 480.002929688 m 1
 287.9765625 333.248046875 l 1
 242.71875 287.990234375 l 1
 95.9638671875 434.745117188 l 1
 141.221679688 480.002929688 l 1
498.7109375 480.002929688 m 1
 543.967773438 434.745117188 l 1
 397.237304688 287.990234375 l 1
 351.98046875 333.248046875 l 1
 498.7109375 480.002929688 l 1
242.71875 223.986328125 m 1
 287.9765625 178.728515625 l 1
 141.221679688 31.998046875 l 1
 95.9638671875 77.255859375 l 1
 242.71875 223.986328125 l 1
397.237304688 223.986328125 m 1
 543.967773438 77.255859375 l 1
 498.7109375 31.998046875 l 1
 351.98046875 178.728515625 l 1
 397.237304688 223.986328125 l 1
EndSplineSet
Validated: 1
LCarets2: 3 0 0 0
MultipleSubs2: "CCMP cartouches" t.weka cart.body
Ligature2: "LIGA basics" w e k a
EndChar

StartChar: t.wile
Encoding: 187 989559 121
GlifName: t.wile
Width: 640
GlyphClass: 1
Flags: W
HStem: 48.0039 63.9805<164.208 252.13 388.433 474.822>
VStem: 63.9922 63.9893<149.182 291.013> 287.985 64.001<147.266 224> 511.996 64.0039<149.182 291.013>
LayerCount: 2
Fore
SplineSet
172.50390625 467.490234375 m 1
 217.747070312 422.232421875 l 1
 160.162109375 362.577148438 127.98046875 282.899414062 127.981445312 199.984375 c 0
 127.981445312 197.323242188 128.015625 194.663085938 128.079101562 192.001953125 c 1
 127.985351562 192.001953125 l 1
 127.975585938 147.815429688 163.791015625 111.98828125 207.977539062 111.984375 c 0
 252.1640625 111.98828125 287.985351562 147.813476562 287.985351562 192.000976562 c 2
 287.985351562 224.000976562 l 1
 351.986328125 224 l 1
 351.986328125 192 l 2
 351.977539062 147.805664062 387.806640625 111.977539062 432.001953125 111.984375 c 0
 476.189453125 111.98828125 511.99609375 147.815429688 511.99609375 192.001953125 c 1
 511.897460938 192.001953125 l 1
 511.958007812 194.663085938 511.99609375 197.323242188 511.99609375 199.984375 c 0
 511.997070312 282.899414062 479.815429688 362.577148438 422.23046875 422.232421875 c 1
 467.48828125 467.490234375 l 1
 537.07421875 395.829101562 575.998046875 299.873046875 576 199.984375 c 0
 575.9921875 197.32421875 575.961914062 194.663085938 575.901367188 192.001953125 c 1
 576 192.001953125 l 1
 575.998046875 112.474609375 511.529296875 48.005859375 432.001953125 48.00390625 c 0
 388.499023438 48.001953125 347.327148438 67.6650390625 319.986328125 101.501953125 c 1
 292.649414062 67.669921875 251.484375 48.0068359375 207.98828125 48.00390625 c 0
 128.4609375 48.0068359375 63.9931640625 112.475585938 63.9921875 192.001953125 c 1
 64.0634765625 192.001953125 l 1
 64.029296875 194.663085938 63.9921875 197.32421875 63.9921875 199.984375 c 0
 63.9931640625 299.873046875 102.916992188 395.829101562 172.50390625 467.490234375 c 1
EndSplineSet
Validated: 33
MultipleSubs2: "CCMP cartouches" t.wile cart.body
Ligature2: "LIGA basics" w i l e
EndChar

StartChar: i
Encoding: 49 105 122
GlifName: glyph122
Width: 320
VWidth: -64
Flags: W
VStem: 72 184
LayerCount: 2
Fore
SplineSet
72 512 m 1
 72 448 l 1
 127.984375 448 l 1
 127.984375 64.0078125 l 1
 72 64.0078125 l 1
 72 0.0078125 l 1
 127.984375 0.0078125 l 1
 127.984375 0 l 1
 191.984375 0 l 1
 191.984375 0.0078125 l 1
 256 0.0078125 l 1
 256 64.0078125 l 1
 191.984375 64.0078125 l 1
 191.984375 448 l 1
 256 448 l 1
 256 512 l 1
 72 512 l 1
EndSplineSet
Validated: 524297
EndChar

StartChar: j
Encoding: 50 106 123
GlifName: glyph123
Width: 320
VWidth: -64
Flags: W
HStem: -8.01074 64.0039<125.934 202.067> 492 20G<291.971 292.001> 492 20G<291.971 292.001>
VStem: 35.9912 64.0029<81.9301 119.997> 227.967 64.0039<81.9306 119.997>
LayerCount: 2
Fore
SplineSet
292.000976562 511.998046875 m 1xd8
 100.000976562 511.998046875 l 1
 100.000976562 447.998046875 l 1
 227.966796875 447.990234375 l 1
 227.966796875 119.981445312 l 1
 228.004882812 119.981445312 l 1
 228.004882812 84.6376953125 199.34375 55.9912109375 164.000976562 55.9931640625 c 0
 128.650390625 55.990234375 99.9921875 84.646484375 99.994140625 119.997070312 c 1
 35.9912109375 119.997070312 l 1
 35.9912109375 49.2978515625 93.3017578125 -8.015625 164.000976562 -8.0107421875 c 0
 234.69921875 -8.0146484375 292.012695312 49.298828125 292.008789062 119.997070312 c 1
 291.970703125 119.997070312 l 1
 291.970703125 512 l 1
 292.000976562 511.998046875 l 1xd8
EndSplineSet
Validated: 524325
EndChar

StartChar: o
Encoding: 55 111 124
GlifName: glyph124
Width: 320
VWidth: -64
Flags: W
HStem: -15.9961 64.0039<125.225 202.775> 447.996 64.0039<125.226 202.773>
VStem: 35.9922 64.0039<73.9634 112.012 383.992 422.054> 227.967 64.0039<73.9651 112.012 383.992 422.039>
LayerCount: 2
Fore
SplineSet
164 512 m 0
 93.359375 512 35.998046875 454.651367188 35.9921875 384.01171875 c 1
 35.9921875 112.009765625 l 1
 35.9921875 41.3642578125 93.35546875 -15.99609375 164 -15.99609375 c 0
 234.64453125 -15.99609375 292.0078125 41.3662109375 292.0078125 112.01171875 c 1
 292 112.00390625 291.970703125 112.01171875 291.970703125 112.01171875 c 1
 291.970703125 383.9921875 l 1
 292.0078125 383.9921875 l 1
 292.0078125 454.637695312 234.64453125 512 164 512 c 0
164 447.99609375 m 0
 199.31640625 447.99609375 227.99609375 419.327148438 228.00390625 384.01171875 c 1
 228 384.01171875 227.966796875 384.01171875 227.966796875 384.01171875 c 1
 227.966796875 112.009765625 l 1
 228.00390625 112.009765625 l 1
 228.00390625 76.6875 199.322265625 48.0078125 164 48.0078125 c 0
 128.677734375 48.0078125 99.99609375 76.689453125 99.99609375 112.01171875 c 1
 99.99609375 383.9921875 l 1
 99.99609375 419.314453125 128.677734375 447.99609375 164 447.99609375 c 0
EndSplineSet
Validated: 524297
EndChar

StartChar: a
Encoding: 41 97 125
GlifName: glyph125
Width: 320
VWidth: -64
Flags: W
LayerCount: 2
Fore
SplineSet
131.998046875 512 m 1
 28.009765625 0.015625 l 1
 93.318359375 0.015625 l 1
 112.81640625 96.017578125 l 1
 215.181640625 96.017578125 l 1
 234.6796875 0.015625 l 1
 299.990234375 0.015625 l 1
 196.001953125 512 l 1
 131.998046875 512 l 1
164 348.0234375 m 1
 202.18359375 160.017578125 l 1
 125.814453125 160.017578125 l 1
 164 348.0234375 l 1
EndSplineSet
Validated: 524297
EndChar

StartChar: A
Encoding: 13 65 126
Width: 320
VWidth: 576
Flags: W
LayerCount: 2
Fore
SplineSet
131.998046875 512 m 1
 28.009765625 0.015625 l 1
 93.318359375 0.015625 l 1
 112.81640625 96.017578125 l 1
 215.181640625 96.017578125 l 1
 234.6796875 0.015625 l 1
 299.990234375 0.015625 l 1
 196.001953125 512 l 1
 131.998046875 512 l 1
164 348.0234375 m 1
 202.18359375 160.017578125 l 1
 125.814453125 160.017578125 l 1
 164 348.0234375 l 1
EndSplineSet
Validated: 524297
EndChar

StartChar: B
Encoding: 14 66 127
Width: 320
VWidth: 576
Flags: W
HStem: 0.0078125 64.001<99.9814 198.822> 224.005 64<99.9814 199.868> 448.001 63.999<99.9814 198.822>
VStem: 35.9814 64<0 0.0078125 64.0088 224.005 288.005 448.001> 236.015 64.0039<100.219 188.176 324.362 410.812>
LayerCount: 2
Fore
SplineSet
236.014648438 367.987304688 m 0
 236.0234375 412.18359375 200.193359375 448.013671875 155.995117188 448.001953125 c 2
 99.9814453125 448.000976562 l 1
 99.9814453125 288.004882812 l 1
 157.401367188 288.004882812 l 2
 201.03515625 288.76171875 236.01171875 324.34765625 236.014648438 367.987304688 c 0
99.9814453125 64.0087890625 m 1
 155.995117188 64.0068359375 l 2
 200.184570312 63.994140625 236.01171875 99.810546875 236.014648438 143.998046875 c 0
 236.010742188 188.184570312 200.18359375 224.000976562 155.997070312 223.990234375 c 1
 155.997070312 224.004882812 l 1
 99.9814453125 224.004882812 l 1
 99.9814453125 64.0087890625 l 1
300.018554688 143.997070312 m 2
 300.017578125 64.4599609375 235.534179688 -0.01171875 155.995117188 0.00390625 c 2
 99.9814453125 0.0078125 l 1
 99.9814453125 0 l 1
 35.9814453125 0 l 1
 35.9814453125 512 l 1
 99.9814453125 512 l 1
 155.995117188 511.9921875 l 2
 235.533203125 511.995117188 300.016601562 447.5234375 300.018554688 367.987304688 c 0
 299.885742188 324.40234375 280.017578125 283.22265625 245.985351562 255.991210938 c 1
 280.017578125 228.760742188 299.88671875 187.58203125 300.018554688 143.997070312 c 2
EndSplineSet
Validated: 524321
EndChar

StartChar: C
Encoding: 15 67 128
Width: 320
VWidth: 584
Flags: W
HStem: -7.99609 64.0039<125.941 202.066> 455.996 64.0039<125.933 202.062>
VStem: 35.9883 64.002<81.933 430.074> 228.01 64.002<81.9272 119.988 391.992 430.059>
LayerCount: 2
Fore
SplineSet
99.953125 391.9921875 m 1
 99.990234375 119.999023438 l 2
 100.01171875 84.6484375 128.6640625 56.005859375 164.00390625 56.0078125 c 0
 199.345703125 56.005859375 228.009765625 84.6484375 228.009765625 119.98828125 c 1
 292.01171875 119.98828125 l 1
 292.00390625 49.298828125 234.693359375 -8 164.00390625 -7.99609375 c 0
 93.31640625 -8 35.98828125 49.298828125 35.98828125 119.999023438 c 2
 35.98828125 392.01171875 l 1
 35.994140625 462.702148438 93.3046875 520.00390625 163.99609375 520 c 0
 234.693359375 520.00390625 292.00390625 462.690429688 292.00390625 391.9921875 c 1
 228 391.9921875 l 1
 228.001953125 427.341796875 199.345703125 455.998046875 163.99609375 455.99609375 c 0
 128.646484375 455.998046875 99.990234375 427.341796875 99.9921875 391.9921875 c 1
 99.953125 391.9921875 l 1
EndSplineSet
Validated: 524325
EndChar

StartChar: D
Encoding: 16 68 129
Width: 320
VWidth: 576
Flags: W
HStem: -0.00292969 64.0107<99.998 198.804> 447.999 64.001<99.998 198.813>
VStem: 35.9824 64.0156<64.0078 447.999> 236.014 64.0039<101.173 410.808>
LayerCount: 2
Fore
SplineSet
35.982421875 511.999023438 m 1
 99.998046875 512 l 1
 155.998046875 512 l 1
 155.998046875 511.981445312 l 1
 235.515625 511.971679688 299.98046875 447.510742188 299.98046875 367.993164062 c 1
 300.017578125 367.993164062 l 1
 300.017578125 143.993164062 l 1
 299.98046875 143.993164062 l 1
 299.977539062 64.466796875 235.509765625 -0.0009765625 155.984375 -0.0029296875 c 2
 35.982421875 -0.0009765625 l 1
 35.982421875 511.999023438 l 1
99.998046875 447.999023438 m 1
 99.998046875 64.0078125 l 1
 155.998046875 64.0078125 l 1
 155.998046875 64.0009765625 l 1
 200.169921875 64.0126953125 235.97265625 99.8232421875 235.9765625 143.995117188 c 1
 236.013671875 143.995117188 l 1
 236.013671875 367.985351562 l 1
 235.9765625 367.985351562 l 1
 235.985351562 412.165039062 200.178710938 447.989257812 155.998046875 448.000976562 c 1
 155.998046875 447.999023438 l 1
 99.998046875 447.999023438 l 1
EndSplineSet
Validated: 524321
EndChar

StartChar: E
Encoding: 17 69 130
Width: 320
VWidth: 576
Flags: W
LayerCount: 2
Fore
SplineSet
35.9931640625 0 m 1
 99.9931640625 0 l 1
 291.977539062 0.0078125 l 1
 291.977539062 64.0078125 l 1
 99.9931640625 64.0078125 l 1
 99.9931640625 224.00390625 l 1
 235.977539062 224.00390625 l 1
 235.977539062 288.00390625 l 1
 99.9931640625 288.00390625 l 1
 99.9560546875 448.002929688 l 1
 292.0078125 448 l 1
 292.0078125 512 l 1
 35.9921875 512 l 1
 35.9931640625 0 l 1
EndSplineSet
Validated: 524297
EndChar

StartChar: F
Encoding: 18 70 131
Width: 320
VWidth: 576
Flags: W
HStem: 0 21G<36.0215 100.021> 224.004 64<100.021 236.006> 448 64<100.021 291.979>
VStem: 36.0215 64<0 224.004 288.004 448>
LayerCount: 2
Fore
SplineSet
36.021484375 512 m 1
 99.98046875 512 l 1
 100.021484375 512 l 1
 291.978515625 512 l 1
 291.978515625 448 l 1
 100.021484375 448 l 1
 100.021484375 288.00390625 l 1
 236.005859375 288.00390625 l 1
 236.005859375 224.00390625 l 1
 100.021484375 224.00390625 l 1
 100.021484375 0 l 1
 36.021484375 0 l 1
 36.021484375 512 l 1
EndSplineSet
Validated: 524289
EndChar

StartChar: G
Encoding: 19 71 132
Width: 320
VWidth: 584
Flags: W
HStem: -7.99609 64.0039<125.225 202.775> 224.016 64<155.985 227.974> 455.996 64.0039<125.949 163.992 164.008 202.051>
VStem: 35.9844 64.0195<81.9634 430.059> 227.974 63.9883<81.9651 224.016 392.018 430.059>
LayerCount: 2
Fore
SplineSet
163.9921875 520 m 2
 163.9921875 520 164.015625 520 164.0078125 520 c 1
 234.646484375 520 292.005859375 462.654296875 292.015625 392.017578125 c 1
 292.015625 392.017578125 228.0078125 392.017578125 228.01171875 392.017578125 c 1
 228 427.330078125 199.323242188 455.99609375 164.0078125 455.99609375 c 0
 128.692382812 455.99609375 100.015625 427.330078125 100.00390625 392.017578125 c 1
 100.00390625 120.01171875 l 1
 100.00390625 84.689453125 128.685546875 56.0078125 164.0078125 56.0078125 c 0
 199.330078125 56.0078125 228.01171875 84.689453125 228.01171875 120.01171875 c 1
 227.973632812 120.01171875 l 1
 227.973632812 224.015625 l 1
 155.985351562 224.015625 l 1
 155.985351562 288.015625 l 1
 227.973632812 288.015625 l 1
 291.961914062 288.015625 l 1
 291.961914062 120.01171875 l 1
 291.961914062 120.01171875 291.9921875 120.00390625 292 120.01171875 c 1
 292 49.3662109375 234.637695312 -7.99609375 163.9921875 -7.99609375 c 0
 93.3466796875 -7.99609375 35.984375 49.3642578125 35.984375 120.009765625 c 1
 35.984375 392.017578125 l 1
 35.994140625 462.654296875 93.353515625 520 163.9921875 520 c 2
EndSplineSet
Validated: 524325
EndChar

StartChar: H
Encoding: 20 72 133
Width: 320
VWidth: 576
Flags: W
HStem: 0 21G<36.0059 100.006 227.994 291.994> 224.004 64<100.006 227.994> 492 20G<36.0059 100.006 227.994 291.994> 492 20G<36.0059 100.006 227.994 291.994>
VStem: 36.0059 64<0 224.004 288.004 512> 227.994 64<0 224.004 288.004 512>
LayerCount: 2
Fore
SplineSet
36.005859375 512 m 1xec
 100.005859375 512 l 1
 100.005859375 288.00390625 l 1
 227.994140625 288.00390625 l 1
 227.994140625 512 l 1
 291.994140625 512 l 1
 291.994140625 0 l 1
 227.994140625 0 l 1
 227.994140625 224.00390625 l 1
 100.005859375 224.00390625 l 1
 100.005859375 0 l 1
 36.005859375 0 l 1
 36.005859375 512 l 1xec
EndSplineSet
Validated: 524289
EndChar

StartChar: I
Encoding: 21 73 134
Width: 320
VWidth: 576
Flags: W
VStem: 72 184
LayerCount: 2
Fore
SplineSet
72 512 m 1
 72 448 l 1
 127.984375 448 l 1
 127.984375 64.0078125 l 1
 72 64.0078125 l 1
 72 0.0078125 l 1
 127.984375 0.0078125 l 1
 127.984375 0 l 1
 191.984375 0 l 1
 191.984375 0.0078125 l 1
 256 0.0078125 l 1
 256 64.0078125 l 1
 191.984375 64.0078125 l 1
 191.984375 448 l 1
 256 448 l 1
 256 512 l 1
 72 512 l 1
EndSplineSet
Validated: 524297
EndChar

StartChar: J
Encoding: 22 74 135
Width: 320
VWidth: 576
Flags: W
HStem: -8.01074 64.0039<125.934 202.067> 492 20G<291.971 292.001> 492 20G<291.971 292.001>
VStem: 35.9912 64.0029<81.9301 119.997> 227.967 64.0039<81.9306 119.997>
LayerCount: 2
Fore
SplineSet
292.000976562 511.998046875 m 1xd8
 100.000976562 511.998046875 l 1
 100.000976562 447.998046875 l 1
 227.966796875 447.990234375 l 1
 227.966796875 119.981445312 l 1
 228.004882812 119.981445312 l 1
 228.004882812 84.6376953125 199.34375 55.9912109375 164.000976562 55.9931640625 c 0
 128.650390625 55.990234375 99.9921875 84.646484375 99.994140625 119.997070312 c 1
 35.9912109375 119.997070312 l 1
 35.9912109375 49.2978515625 93.3017578125 -8.015625 164.000976562 -8.0107421875 c 0
 234.69921875 -8.0146484375 292.012695312 49.298828125 292.008789062 119.997070312 c 1
 291.970703125 119.997070312 l 1
 291.970703125 512 l 1
 292.000976562 511.998046875 l 1xd8
EndSplineSet
Validated: 524325
EndChar

StartChar: K
Encoding: 23 75 136
Width: 320
VWidth: 576
Flags: W
LayerCount: 2
Fore
SplineSet
35.9912109375 512 m 1
 35.9912109375 0 l 1
 99.9912109375 0 l 1
 99.9912109375 224.00390625 l 1
 128.846679688 224.00390625 l 1
 229.811523438 -0.001953125 l 1
 300.008789062 -0.001953125 l 1
 184.625976562 255.990234375 l 1
 300.008789062 511.982421875 l 1
 229.811523438 511.982421875 l 1
 128.860351562 288.00390625 l 1
 99.9912109375 288.00390625 l 1
 99.9912109375 512 l 1
 35.9912109375 512 l 1
EndSplineSet
Validated: 524297
EndChar

StartChar: L
Encoding: 24 76 137
Width: 320
VWidth: 576
Flags: W
LayerCount: 2
Fore
SplineSet
292 -0.021484375 m 1
 292 63.978515625 l 1
 100 63.978515625 l 1
 100 512 l 1
 36 512 l 1
 36 0.001953125 l 1
 292 -0.021484375 l 1
EndSplineSet
Validated: 524297
EndChar

StartChar: M
Encoding: 25 77 138
Width: 320
VWidth: 576
Flags: W
LayerCount: 2
Fore
SplineSet
27.998046875 512 m 1
 27.998046875 0.0166015625 l 1
 92.001953125 0.0166015625 l 1
 92.001953125 311.0625 l 1
 132.009765625 192.00390625 l 1
 196.013671875 192.00390625 l 1
 235.998046875 311.0625 l 1
 235.998046875 0.0166015625 l 1
 300.001953125 0.0166015625 l 1
 300.001953125 512 l 1
 235.998046875 512 l 1
 164.01171875 297.709960938 l 1
 92.001953125 512 l 1
 27.998046875 512 l 1
EndSplineSet
Validated: 524297
EndChar

StartChar: N
Encoding: 26 78 139
Width: 320
VWidth: 576
Flags: W
LayerCount: 2
Fore
SplineSet
36.005859375 512 m 1
 36.005859375 0 l 1
 100.005859375 0 l 1
 100.005859375 333.294921875 l 1
 227.982421875 -0.048828125 l 1
 228.109375 0 l 1
 291.994140625 0 l 1
 291.994140625 512 l 1
 227.994140625 512 l 1
 227.994140625 178.521484375 l 1
 100.005859375 511.896484375 l 1
 100.005859375 512 l 1
 36.005859375 512 l 1
EndSplineSet
Validated: 524297
EndChar

StartChar: O
Encoding: 27 79 140
Width: 320
VWidth: 576
Flags: W
HStem: -15.9961 64.0039<125.225 202.775> 447.996 64.0039<125.226 202.773>
VStem: 35.9922 64.0039<73.9634 112.012 383.992 422.054> 227.967 64.0039<73.9651 112.012 383.992 422.039>
LayerCount: 2
Fore
SplineSet
164 512 m 0
 93.359375 512 35.998046875 454.651367188 35.9921875 384.01171875 c 1
 35.9921875 112.009765625 l 1
 35.9921875 41.3642578125 93.35546875 -15.99609375 164 -15.99609375 c 0
 234.64453125 -15.99609375 292.0078125 41.3662109375 292.0078125 112.01171875 c 1
 292 112.00390625 291.970703125 112.01171875 291.970703125 112.01171875 c 1
 291.970703125 383.9921875 l 1
 292.0078125 383.9921875 l 1
 292.0078125 454.637695312 234.64453125 512 164 512 c 0
164 447.99609375 m 0
 199.31640625 447.99609375 227.99609375 419.327148438 228.00390625 384.01171875 c 1
 228 384.01171875 227.966796875 384.01171875 227.966796875 384.01171875 c 1
 227.966796875 112.009765625 l 1
 228.00390625 112.009765625 l 1
 228.00390625 76.6875 199.322265625 48.0078125 164 48.0078125 c 0
 128.677734375 48.0078125 99.99609375 76.689453125 99.99609375 112.01171875 c 1
 99.99609375 383.9921875 l 1
 99.99609375 419.314453125 128.677734375 447.99609375 164 447.99609375 c 0
EndSplineSet
Validated: 524297
EndChar

StartChar: P
Encoding: 28 80 141
Width: 320
VWidth: 576
Flags: W
HStem: 224.004 63.999<155.99 198.814> 447.999 64.001<155.998 198.831>
VStem: 235.992 64.0039<325.166 410.802>
LayerCount: 2
Fore
SplineSet
100.00390625 288.002929688 m 1
 100.00390625 447.999023438 l 1
 155.998046875 447.999023438 l 1
 155.998046875 447.975585938 l 1
 200.17578125 447.97265625 235.98828125 412.161132812 235.9921875 367.983398438 c 0
 235.989257812 323.805664062 200.176757812 287.993164062 155.990234375 287.995117188 c 2
 100.00390625 288.002929688 l 1
299.99609375 367.985351562 m 1
 299.994140625 447.504882812 235.53515625 511.970703125 156.015625 511.981445312 c 1
 156.015625 512 l 1
 100.00390625 512 l 1
 36.00390625 512 l 1
 36.00390625 0 l 1
 100.00390625 0 l 1
 100.00390625 224.00390625 l 1
 155.990234375 223.99609375 l 2
 235.525390625 223.98828125 299.995117188 288.458984375 299.99609375 367.986328125 c 1
 299.99609375 367.985351562 l 1
EndSplineSet
Validated: 524325
EndChar

StartChar: Q
Encoding: 29 81 142
Width: 320
VWidth: 584
Flags: W
HStem: 40.0078 64.0039<121.234 171.066> 455.996 64.0039<121.234 198.779>
VStem: 32.001 64.0039<129.969 168.016 168.178 430.039> 223.976 64.0156<150.713 430.036>
LayerCount: 2
Fore
SplineSet
160.008789062 520 m 0
 230.645507812 519.990234375 287.991210938 462.631835938 287.991210938 391.9921875 c 1
 287.991210938 168.015625 l 1
 287.991210938 133.884765625 274.604492188 102.810546875 252.797851562 79.853515625 c 1
 295.999023438 -16.001953125 l 1
 225.801757812 -16.001953125 l 1
 197.963867188 45.76953125 l 1
 197.963867188 45.76953125 197.9609375 45.7431640625 197.961914062 45.76953125 c 1
 185.96875 42.0439453125 173.220703125 40.009765625 160.008789062 40.0078125 c 0
 89.3642578125 40.0078125 32.0009765625 97.3701171875 32.0009765625 168.015625 c 2
 32.0009765625 168.015625 32.0087890625 392 32.0009765625 391.9921875 c 1
 32.0009765625 462.637695312 89.3642578125 520 160.008789062 520 c 0
160.008789062 455.99609375 m 0
 124.686523438 455.99609375 96.0048828125 427.314453125 96.0048828125 391.9921875 c 1
 96.0048828125 168.015625 l 1
 96.0048828125 132.693359375 124.686523438 104.01171875 160.008789062 104.01171875 c 0
 163.866210938 104.01171875 167.595703125 104.352539062 171.264648438 105.0078125 c 1
 110.420898438 240.013671875 l 1
 180.618164062 240.013671875 l 1
 180.618164062 240.013671875 221.340820312 149.674804688 221.329101562 149.6796875 c 0
 223.067382812 155.491210938 224.012695312 161.642578125 224.012695312 168.015625 c 1
 223.975585938 168.015625 l 1
 223.975585938 392.01171875 l 1
 223.975585938 392.01171875 224.008789062 392.01171875 224.012695312 392.01171875 c 1
 224.00390625 427.327148438 195.326171875 455.99609375 160.008789062 455.99609375 c 0
EndSplineSet
Validated: 524325
EndChar

StartChar: R
Encoding: 30 82 143
Width: 320
VWidth: 576
Flags: W
HStem: -0.00195312 21G<35.9805 99.9805 220.806 300.02> 224.004 63.998<99.9805 128.836> 447.996 64.0039<100.021 155.982>
VStem: 35.9805 64<0 224.004 288.002 447.996> 236 64.0039<323.659 411.76>
LayerCount: 2
Fore
SplineSet
35.98046875 512 m 1
 99.98046875 512 l 1
 99.98046875 512 156.00390625 512 155.982421875 512 c 1
 235.45703125 512 300.001953125 447.477539062 300.00390625 368.00390625 c 0
 300.002929688 302.572265625 256.249023438 247.299804688 196.44140625 229.80078125 c 1
 300.01953125 -0.001953125 l 1
 229.822265625 -0.001953125 l 1
 128.8359375 224.00390625 l 1
 99.98046875 224.00390625 l 1
 99.98046875 0 l 1
 35.98046875 0 l 1
 35.98046875 512 l 1
99.98046875 447.99609375 m 1
 99.98046875 288.001953125 l 1
 155.982421875 288.001953125 l 1
 155.982421875 288.009765625 l 2
 156 288.009765625 l 2
 200.151367188 288.009765625 235.99609375 323.853515625 236 368.00390625 c 0
 235.995117188 412.153320312 200.150390625 447.99609375 156 447.99609375 c 2
 155.982421875 447.99609375 l 1
 99.98046875 447.99609375 l 1
EndSplineSet
Validated: 524325
EndChar

StartChar: S
Encoding: 31 83 144
Width: 320
VWidth: 576
Flags: W
HStem: -15.9961 64.0039<125.925 202.052> 216 64.0039<125.923 202.049> 447.996 64.0039<125.93 202.057>
VStem: 36.0068 64.0039<73.9496 112.012 305.947 344.01 383.992 422.054> 227.989 64.0039<73.9452 112.012 151.996 190.076 383.992 422.059>
CounterMasks: 1 e0
LayerCount: 2
Fore
SplineSet
163.985351562 216 m 2
 199.334960938 216.001953125 227.9921875 187.345703125 227.989257812 151.99609375 c 1
 227.989257812 112.01171875 l 1
 227.9921875 76.662109375 199.334960938 48.005859375 163.985351562 48.0078125 c 0
 128.645507812 48.01953125 100.002929688 76.671875 100.004882812 112.01171875 c 1
 36.0009765625 112.01171875 l 1
 36.0009765625 41.322265625 93.2958984375 -15.9873046875 163.985351562 -15.99609375 c 0
 234.68359375 -16 291.997070312 41.3134765625 291.993164062 112.01171875 c 1
 291.993164062 152.013671875 l 1
 291.993164062 222.705078125 234.676757812 280.0078125 163.985351562 280.00390625 c 0
 128.645507812 280.015625 100.002929688 308.66796875 100.010742188 344.009765625 c 2
 100.010742188 384.01171875 l 1
 100.010742188 419.344726562 128.658203125 447.985351562 163.991210938 447.99609375 c 0
 199.33984375 447.998046875 227.997070312 419.341796875 227.995117188 383.9921875 c 1
 291.999023438 383.9921875 l 1
 291.999023438 454.690429688 234.689453125 512.00390625 163.991210938 512 c 0
 93.3017578125 511.9921875 36.0029296875 454.681640625 36.0068359375 383.9921875 c 1
 36.0068359375 344.009765625 l 2
 36.0068359375 273.318359375 93.2939453125 216.008789062 163.983398438 216 c 2
 163.985351562 216 l 2
EndSplineSet
Validated: 524325
EndChar

StartChar: T
Encoding: 32 84 145
Width: 320
VWidth: 576
Flags: W
LayerCount: 2
Fore
SplineSet
36 512 m 1
 36 448 l 1
 132.025390625 448 l 1
 132.025390625 0 l 1
 196.024414062 0 l 1
 196.024414062 448 l 1
 292 448 l 1
 292 512 l 1
 196.024414062 512 l 1
 132.025390625 512 l 1
 36 512 l 1
EndSplineSet
Validated: 524297
EndChar

StartChar: U
Encoding: 33 85 146
Width: 320
VWidth: 576
Flags: W
HStem: -0.00195312 63.9805<125.944 202.063>
VStem: 36.0039 63.9961<89.926 127.991> 227.996 63.998<89.9303 127.991>
LayerCount: 2
Fore
SplineSet
164.001953125 63.978515625 m 2
 128.65234375 63.9765625 99.99609375 92.6328125 100 127.991210938 c 2
 100.00390625 512 l 1
 36.00390625 512 l 1
 36.00390625 127.991210938 l 2
 36.0078125 57.29296875 93.31640625 -0.0068359375 164.005859375 -0.001953125 c 0
 234.6875 0.005859375 291.982421875 57.3017578125 291.994140625 127.991210938 c 2
 291.99609375 512 l 1
 227.99609375 512 l 1
 227.99609375 127.991210938 l 2
 227.994140625 92.642578125 199.3515625 63.9892578125 164.01171875 63.978515625 c 2
 164.001953125 63.978515625 l 2
EndSplineSet
Validated: 524329
EndChar

StartChar: V
Encoding: 34 86 147
Width: 320
VWidth: 576
Flags: W
HStem: 0.0166016 21G<127.947 200.076> 492 20G<27.998 97.3701 230.629 300.002> 492 20G<27.998 97.3701 230.629 300.002>
LayerCount: 2
Fore
SplineSet
132.009765625 0.0166015625 m 1xc0
 27.998046875 512 l 1
 93.306640625 512 l 1
 164.01171875 163.993164062 l 1
 234.69140625 512 l 1
 300.001953125 512 l 1
 196.013671875 0.0166015625 l 1
 132.009765625 0.0166015625 l 1xc0
EndSplineSet
Validated: 524289
EndChar

StartChar: W
Encoding: 35 87 148
Width: 320
VWidth: 576
Flags: W
LayerCount: 2
Fore
SplineSet
27.998046875 0.0166015625 m 1
 92.001953125 0.0166015625 l 1
 163.98828125 214.306640625 l 1
 235.998046875 0.0166015625 l 1
 300.001953125 0.0166015625 l 1
 300.001953125 512 l 1
 235.998046875 512 l 1
 235.998046875 200.954101562 l 1
 195.990234375 320.01171875 l 1
 131.986328125 320.01171875 l 1
 92.001953125 200.954101562 l 1
 92.001953125 512 l 1
 27.998046875 512 l 1
 27.998046875 0.0166015625 l 1
EndSplineSet
Validated: 524297
EndChar

StartChar: X
Encoding: 36 88 149
Width: 320
VWidth: 576
Flags: W
HStem: 0.0166016 21G<27.998 104.776 223.201 300.002> 492 20G<27.998 104.776 223.201 300.002> 492 20G<27.998 104.776 223.201 300.002>
LayerCount: 2
Fore
SplineSet
27.998046875 512 m 1xc0
 96.83984375 512 l 1
 163.98828125 342.774414062 l 1
 231.13671875 512 l 1
 300.001953125 512 l 1
 198.408203125 256.0078125 l 1
 300.001953125 0.0166015625 l 1
 231.13671875 0.0166015625 l 1
 163.98828125 169.2421875 l 1
 96.83984375 0.0166015625 l 1
 27.998046875 0.0166015625 l 1
 129.56640625 256.0078125 l 1
 27.998046875 512 l 1xc0
EndSplineSet
Validated: 524289
EndChar

StartChar: Y
Encoding: 37 89 150
Width: 320
VWidth: 576
Flags: W
HStem: 0.0166016 21G<132.01 196.014> 492 20G<27.998 104.799 223.224 300.002> 492 20G<27.998 104.799 223.224 300.002>
VStem: 132.01 64.0039<0.0166016 249.889>
LayerCount: 2
Fore
SplineSet
27.998046875 512 m 1xd0
 96.86328125 512 l 1
 164.01171875 342.774414062 l 1
 231.16015625 512 l 1
 300.001953125 512 l 1
 196.013671875 249.888671875 l 1
 196.013671875 0.0166015625 l 1
 132.009765625 0.0166015625 l 1
 132.009765625 249.888671875 l 1
 27.998046875 512 l 1xd0
EndSplineSet
Validated: 524289
EndChar

StartChar: Z
Encoding: 38 90 151
Width: 320
VWidth: 576
Flags: W
HStem: -0.0078125 64.0039<107.047 291.996> 447.996 64.0039<36.0039 220.978>
LayerCount: 2
Fore
SplineSet
36.00390625 512 m 1
 291.99609375 512 l 1
 291.99609375 447.99609375 l 1
 107.046875 63.99609375 l 1
 291.99609375 63.99609375 l 1
 291.99609375 -0.0078125 l 1
 36.00390625 -0.0078125 l 1
 36.00390625 63.99609375 l 1
 220.977539062 447.99609375 l 1
 36.00390625 447.99609375 l 1
 36.00390625 512 l 1
EndSplineSet
Validated: 524289
EndChar

StartChar: b
Encoding: 42 98 152
Width: 320
VWidth: 576
Flags: W
HStem: 0.0078125 64.001<99.9814 198.822> 224.005 64<99.9814 199.868> 448.001 63.999<99.9814 198.822>
VStem: 35.9814 64<0 0.0078125 64.0088 224.005 288.005 448.001> 236.015 64.0039<100.219 188.176 324.362 410.812>
LayerCount: 2
Fore
SplineSet
236.014648438 367.987304688 m 0
 236.0234375 412.18359375 200.193359375 448.013671875 155.995117188 448.001953125 c 2
 99.9814453125 448.000976562 l 1
 99.9814453125 288.004882812 l 1
 157.401367188 288.004882812 l 2
 201.03515625 288.76171875 236.01171875 324.34765625 236.014648438 367.987304688 c 0
99.9814453125 64.0087890625 m 1
 155.995117188 64.0068359375 l 2
 200.184570312 63.994140625 236.01171875 99.810546875 236.014648438 143.998046875 c 0
 236.010742188 188.184570312 200.18359375 224.000976562 155.997070312 223.990234375 c 1
 155.997070312 224.004882812 l 1
 99.9814453125 224.004882812 l 1
 99.9814453125 64.0087890625 l 1
300.018554688 143.997070312 m 2
 300.017578125 64.4599609375 235.534179688 -0.01171875 155.995117188 0.00390625 c 2
 99.9814453125 0.0078125 l 1
 99.9814453125 0 l 1
 35.9814453125 0 l 1
 35.9814453125 512 l 1
 99.9814453125 512 l 1
 155.995117188 511.9921875 l 2
 235.533203125 511.995117188 300.016601562 447.5234375 300.018554688 367.987304688 c 0
 299.885742188 324.40234375 280.017578125 283.22265625 245.985351562 255.991210938 c 1
 280.017578125 228.760742188 299.88671875 187.58203125 300.018554688 143.997070312 c 2
EndSplineSet
Validated: 524321
EndChar

StartChar: c
Encoding: 43 99 153
Width: 320
VWidth: 584
Flags: W
HStem: -7.99609 64.0039<125.941 202.066> 455.996 64.0039<125.933 202.062>
VStem: 35.9883 64.002<81.933 430.074> 228.01 64.002<81.9272 119.988 391.992 430.059>
LayerCount: 2
Fore
SplineSet
99.953125 391.9921875 m 1
 99.990234375 119.999023438 l 2
 100.01171875 84.6484375 128.6640625 56.005859375 164.00390625 56.0078125 c 0
 199.345703125 56.005859375 228.009765625 84.6484375 228.009765625 119.98828125 c 1
 292.01171875 119.98828125 l 1
 292.00390625 49.298828125 234.693359375 -8 164.00390625 -7.99609375 c 0
 93.31640625 -8 35.98828125 49.298828125 35.98828125 119.999023438 c 2
 35.98828125 392.01171875 l 1
 35.994140625 462.702148438 93.3046875 520.00390625 163.99609375 520 c 0
 234.693359375 520.00390625 292.00390625 462.690429688 292.00390625 391.9921875 c 1
 228 391.9921875 l 1
 228.001953125 427.341796875 199.345703125 455.998046875 163.99609375 455.99609375 c 0
 128.646484375 455.998046875 99.990234375 427.341796875 99.9921875 391.9921875 c 1
 99.953125 391.9921875 l 1
EndSplineSet
Validated: 524325
EndChar

StartChar: d
Encoding: 44 100 154
Width: 320
VWidth: 576
Flags: W
HStem: -0.00292969 64.0107<99.998 198.804> 447.999 64.001<99.998 198.813>
VStem: 35.9824 64.0156<64.0078 447.999> 236.014 64.0039<101.173 410.808>
LayerCount: 2
Fore
SplineSet
35.982421875 511.999023438 m 5
 99.998046875 512 l 1
 155.998046875 512 l 1
 155.998046875 511.981445312 l 1
 235.515625 511.971679688 299.98046875 447.510742188 299.98046875 367.993164062 c 1
 300.017578125 367.993164062 l 1
 300.017578125 143.993164062 l 1
 299.98046875 143.993164062 l 1
 299.977539062 64.466796875 235.509765625 -0.0009765625 155.984375 -0.0029296875 c 2
 35.982421875 -0.0009765625 l 1
 35.982421875 511.999023438 l 5
99.998046875 447.999023438 m 1
 99.998046875 64.0078125 l 1
 155.998046875 64.0078125 l 1
 155.998046875 64.0009765625 l 1
 200.169921875 64.0126953125 235.97265625 99.8232421875 235.9765625 143.995117188 c 1
 236.013671875 143.995117188 l 1
 236.013671875 367.985351562 l 1
 235.9765625 367.985351562 l 1
 235.985351562 412.165039062 200.178710938 447.989257812 155.998046875 448.000976562 c 1
 155.998046875 447.999023438 l 1
 99.998046875 447.999023438 l 1
EndSplineSet
Validated: 524321
EndChar

StartChar: e
Encoding: 45 101 155
Width: 320
VWidth: 576
Flags: W
LayerCount: 2
Fore
SplineSet
35.9931640625 0 m 1
 99.9931640625 0 l 1
 291.977539062 0.0078125 l 1
 291.977539062 64.0078125 l 1
 99.9931640625 64.0078125 l 1
 99.9931640625 224.00390625 l 1
 235.977539062 224.00390625 l 1
 235.977539062 288.00390625 l 1
 99.9931640625 288.00390625 l 1
 99.9560546875 448.002929688 l 1
 292.0078125 448 l 1
 292.0078125 512 l 1
 35.9921875 512 l 1
 35.9931640625 0 l 1
EndSplineSet
Validated: 524297
EndChar

StartChar: f
Encoding: 46 102 156
Width: 320
VWidth: 576
Flags: W
HStem: 0 21G<36.0215 100.021> 224.004 64<100.021 236.006> 448 64<100.021 291.979>
VStem: 36.0215 64<0 224.004 288.004 448>
LayerCount: 2
Fore
SplineSet
36.021484375 512 m 1
 99.98046875 512 l 1
 100.021484375 512 l 1
 291.978515625 512 l 1
 291.978515625 448 l 1
 100.021484375 448 l 1
 100.021484375 288.00390625 l 1
 236.005859375 288.00390625 l 1
 236.005859375 224.00390625 l 1
 100.021484375 224.00390625 l 1
 100.021484375 0 l 1
 36.021484375 0 l 1
 36.021484375 512 l 1
EndSplineSet
Validated: 524289
EndChar

StartChar: g
Encoding: 47 103 157
Width: 320
VWidth: 584
Flags: W
HStem: -7.99609 64.0039<125.225 202.775> 224.016 64<155.985 227.974> 455.996 64.0039<125.949 163.992 164.008 202.051>
VStem: 35.9844 64.0195<81.9634 430.059> 227.974 63.9883<81.9651 224.016 392.018 430.059>
LayerCount: 2
Fore
SplineSet
163.9921875 520 m 2
 163.9921875 520 164.015625 520 164.0078125 520 c 1
 234.646484375 520 292.005859375 462.654296875 292.015625 392.017578125 c 1
 292.015625 392.017578125 228.0078125 392.017578125 228.01171875 392.017578125 c 1
 228 427.330078125 199.323242188 455.99609375 164.0078125 455.99609375 c 0
 128.692382812 455.99609375 100.015625 427.330078125 100.00390625 392.017578125 c 1
 100.00390625 120.01171875 l 1
 100.00390625 84.689453125 128.685546875 56.0078125 164.0078125 56.0078125 c 0
 199.330078125 56.0078125 228.01171875 84.689453125 228.01171875 120.01171875 c 1
 227.973632812 120.01171875 l 1
 227.973632812 224.015625 l 1
 155.985351562 224.015625 l 1
 155.985351562 288.015625 l 1
 227.973632812 288.015625 l 1
 291.961914062 288.015625 l 1
 291.961914062 120.01171875 l 1
 291.961914062 120.01171875 291.9921875 120.00390625 292 120.01171875 c 1
 292 49.3662109375 234.637695312 -7.99609375 163.9921875 -7.99609375 c 0
 93.3466796875 -7.99609375 35.984375 49.3642578125 35.984375 120.009765625 c 1
 35.984375 392.017578125 l 1
 35.994140625 462.654296875 93.353515625 520 163.9921875 520 c 2
EndSplineSet
Validated: 524325
EndChar

StartChar: h
Encoding: 48 104 158
Width: 320
VWidth: 576
Flags: W
HStem: 0 21G<36.0059 100.006 227.994 291.994> 224.004 64<100.006 227.994> 492 20G<36.0059 100.006 227.994 291.994> 492 20G<36.0059 100.006 227.994 291.994>
VStem: 36.0059 64<0 224.004 288.004 512> 227.994 64<0 224.004 288.004 512>
LayerCount: 2
Fore
SplineSet
36.005859375 512 m 1xec
 100.005859375 512 l 1
 100.005859375 288.00390625 l 1
 227.994140625 288.00390625 l 1
 227.994140625 512 l 1
 291.994140625 512 l 1
 291.994140625 0 l 1
 227.994140625 0 l 1
 227.994140625 224.00390625 l 1
 100.005859375 224.00390625 l 1
 100.005859375 0 l 1
 36.005859375 0 l 1
 36.005859375 512 l 1xec
EndSplineSet
Validated: 524289
EndChar

StartChar: k
Encoding: 51 107 159
Width: 320
VWidth: 576
Flags: W
LayerCount: 2
Fore
SplineSet
35.9912109375 512 m 1
 35.9912109375 0 l 1
 99.9912109375 0 l 1
 99.9912109375 224.00390625 l 1
 128.846679688 224.00390625 l 1
 229.811523438 -0.001953125 l 1
 300.008789062 -0.001953125 l 1
 184.625976562 255.990234375 l 1
 300.008789062 511.982421875 l 1
 229.811523438 511.982421875 l 1
 128.860351562 288.00390625 l 1
 99.9912109375 288.00390625 l 1
 99.9912109375 512 l 1
 35.9912109375 512 l 1
EndSplineSet
Validated: 524297
EndChar

StartChar: l
Encoding: 52 108 160
Width: 320
VWidth: 576
Flags: W
LayerCount: 2
Fore
SplineSet
292 -0.021484375 m 1
 292 63.978515625 l 1
 100 63.978515625 l 1
 100 512 l 1
 36 512 l 1
 36 0.001953125 l 1
 292 -0.021484375 l 1
EndSplineSet
Validated: 524297
EndChar

StartChar: m
Encoding: 53 109 161
Width: 320
VWidth: 576
Flags: W
LayerCount: 2
Fore
SplineSet
27.998046875 512 m 1
 27.998046875 0.0166015625 l 1
 92.001953125 0.0166015625 l 1
 92.001953125 311.0625 l 1
 132.009765625 192.00390625 l 1
 196.013671875 192.00390625 l 1
 235.998046875 311.0625 l 1
 235.998046875 0.0166015625 l 1
 300.001953125 0.0166015625 l 1
 300.001953125 512 l 1
 235.998046875 512 l 1
 164.01171875 297.709960938 l 1
 92.001953125 512 l 1
 27.998046875 512 l 1
EndSplineSet
Validated: 524297
EndChar

StartChar: n
Encoding: 54 110 162
Width: 320
VWidth: 576
Flags: W
LayerCount: 2
Fore
SplineSet
36.005859375 512 m 1
 36.005859375 0 l 1
 100.005859375 0 l 1
 100.005859375 333.294921875 l 1
 227.982421875 -0.048828125 l 1
 228.109375 0 l 1
 291.994140625 0 l 1
 291.994140625 512 l 1
 227.994140625 512 l 1
 227.994140625 178.521484375 l 1
 100.005859375 511.896484375 l 1
 100.005859375 512 l 1
 36.005859375 512 l 1
EndSplineSet
Validated: 524297
EndChar

StartChar: p
Encoding: 56 112 163
Width: 320
VWidth: 576
Flags: W
HStem: 224.004 63.999<155.99 198.814> 447.999 64.001<155.998 198.831>
VStem: 235.992 64.0039<325.166 410.802>
LayerCount: 2
Fore
SplineSet
100.00390625 288.002929688 m 1
 100.00390625 447.999023438 l 1
 155.998046875 447.999023438 l 1
 155.998046875 447.975585938 l 1
 200.17578125 447.97265625 235.98828125 412.161132812 235.9921875 367.983398438 c 0
 235.989257812 323.805664062 200.176757812 287.993164062 155.990234375 287.995117188 c 2
 100.00390625 288.002929688 l 1
299.99609375 367.985351562 m 1
 299.994140625 447.504882812 235.53515625 511.970703125 156.015625 511.981445312 c 1
 156.015625 512 l 1
 100.00390625 512 l 1
 36.00390625 512 l 1
 36.00390625 0 l 1
 100.00390625 0 l 1
 100.00390625 224.00390625 l 1
 155.990234375 223.99609375 l 2
 235.525390625 223.98828125 299.995117188 288.458984375 299.99609375 367.986328125 c 1
 299.99609375 367.985351562 l 1
EndSplineSet
Validated: 524325
EndChar

StartChar: q
Encoding: 57 113 164
Width: 320
VWidth: 584
Flags: W
HStem: 40.0078 64.0039<121.234 171.066> 455.996 64.0039<121.234 198.779>
VStem: 32.001 64.0039<129.969 168.016 168.178 430.039> 223.976 64.0156<150.713 430.036>
LayerCount: 2
Fore
SplineSet
160.008789062 520 m 0
 230.645507812 519.990234375 287.991210938 462.631835938 287.991210938 391.9921875 c 1
 287.991210938 168.015625 l 1
 287.991210938 133.884765625 274.604492188 102.810546875 252.797851562 79.853515625 c 1
 295.999023438 -16.001953125 l 1
 225.801757812 -16.001953125 l 1
 197.963867188 45.76953125 l 1
 197.963867188 45.76953125 197.9609375 45.7431640625 197.961914062 45.76953125 c 1
 185.96875 42.0439453125 173.220703125 40.009765625 160.008789062 40.0078125 c 0
 89.3642578125 40.0078125 32.0009765625 97.3701171875 32.0009765625 168.015625 c 2
 32.0009765625 168.015625 32.0087890625 392 32.0009765625 391.9921875 c 1
 32.0009765625 462.637695312 89.3642578125 520 160.008789062 520 c 0
160.008789062 455.99609375 m 0
 124.686523438 455.99609375 96.0048828125 427.314453125 96.0048828125 391.9921875 c 1
 96.0048828125 168.015625 l 1
 96.0048828125 132.693359375 124.686523438 104.01171875 160.008789062 104.01171875 c 0
 163.866210938 104.01171875 167.595703125 104.352539062 171.264648438 105.0078125 c 1
 110.420898438 240.013671875 l 1
 180.618164062 240.013671875 l 1
 180.618164062 240.013671875 221.340820312 149.674804688 221.329101562 149.6796875 c 0
 223.067382812 155.491210938 224.012695312 161.642578125 224.012695312 168.015625 c 1
 223.975585938 168.015625 l 1
 223.975585938 392.01171875 l 1
 223.975585938 392.01171875 224.008789062 392.01171875 224.012695312 392.01171875 c 1
 224.00390625 427.327148438 195.326171875 455.99609375 160.008789062 455.99609375 c 0
EndSplineSet
Validated: 524325
EndChar

StartChar: r
Encoding: 58 114 165
Width: 320
VWidth: 576
Flags: W
HStem: -0.00195312 21G<35.9805 99.9805 220.806 300.02> 224.004 63.998<99.9805 128.836> 447.996 64.0039<100.021 155.982>
VStem: 35.9805 64<0 224.004 288.002 447.996> 236 64.0039<323.659 411.76>
LayerCount: 2
Fore
SplineSet
35.98046875 512 m 1
 99.98046875 512 l 1
 99.98046875 512 156.00390625 512 155.982421875 512 c 1
 235.45703125 512 300.001953125 447.477539062 300.00390625 368.00390625 c 0
 300.002929688 302.572265625 256.249023438 247.299804688 196.44140625 229.80078125 c 1
 300.01953125 -0.001953125 l 1
 229.822265625 -0.001953125 l 1
 128.8359375 224.00390625 l 1
 99.98046875 224.00390625 l 1
 99.98046875 0 l 1
 35.98046875 0 l 1
 35.98046875 512 l 1
99.98046875 447.99609375 m 1
 99.98046875 288.001953125 l 1
 155.982421875 288.001953125 l 1
 155.982421875 288.009765625 l 2
 156 288.009765625 l 2
 200.151367188 288.009765625 235.99609375 323.853515625 236 368.00390625 c 0
 235.995117188 412.153320312 200.150390625 447.99609375 156 447.99609375 c 2
 155.982421875 447.99609375 l 1
 99.98046875 447.99609375 l 1
EndSplineSet
Validated: 524325
EndChar

StartChar: s
Encoding: 59 115 166
Width: 320
VWidth: 576
Flags: W
HStem: -15.9961 64.0039<125.925 202.052> 216 64.0039<125.923 202.049> 447.996 64.0039<125.93 202.057>
VStem: 36.0068 64.0039<73.9496 112.012 305.947 344.01 383.992 422.054> 227.989 64.0039<73.9452 112.012 151.996 190.076 383.992 422.059>
CounterMasks: 1 e0
LayerCount: 2
Fore
SplineSet
163.985351562 216 m 2
 199.334960938 216.001953125 227.9921875 187.345703125 227.989257812 151.99609375 c 1
 227.989257812 112.01171875 l 1
 227.9921875 76.662109375 199.334960938 48.005859375 163.985351562 48.0078125 c 0
 128.645507812 48.01953125 100.002929688 76.671875 100.004882812 112.01171875 c 1
 36.0009765625 112.01171875 l 1
 36.0009765625 41.322265625 93.2958984375 -15.9873046875 163.985351562 -15.99609375 c 0
 234.68359375 -16 291.997070312 41.3134765625 291.993164062 112.01171875 c 1
 291.993164062 152.013671875 l 1
 291.993164062 222.705078125 234.676757812 280.0078125 163.985351562 280.00390625 c 0
 128.645507812 280.015625 100.002929688 308.66796875 100.010742188 344.009765625 c 2
 100.010742188 384.01171875 l 1
 100.010742188 419.344726562 128.658203125 447.985351562 163.991210938 447.99609375 c 0
 199.33984375 447.998046875 227.997070312 419.341796875 227.995117188 383.9921875 c 1
 291.999023438 383.9921875 l 1
 291.999023438 454.690429688 234.689453125 512.00390625 163.991210938 512 c 0
 93.3017578125 511.9921875 36.0029296875 454.681640625 36.0068359375 383.9921875 c 1
 36.0068359375 344.009765625 l 2
 36.0068359375 273.318359375 93.2939453125 216.008789062 163.983398438 216 c 2
 163.985351562 216 l 2
EndSplineSet
Validated: 524325
EndChar

